<svg width="40" height="24" viewBox="0 0 40 24" fill="none" xmlns="http://www.w3.org/2000/svg">
<path d="M10.7455 16.8915C10.507 16.8108 10.2042 16.75 9.95632 16.7002C9.85101 16.679 9.75563 16.6598 9.67933 16.642C9.53983 16.6097 9.46017 16.5675 9.46017 16.4708C9.46017 16.389 9.5535 16.3145 9.768 16.3145C9.94 16.3145 10.0568 16.3698 10.061 16.5382H11.2527C11.2527 15.9122 10.6242 15.7033 9.78683 15.7033C8.80417 15.7033 8.24083 16.0207 8.24083 16.5795C8.24083 16.9257 8.4225 17.1743 8.939 17.2983L9.8845 17.5212C10.0095 17.5515 10.1077 17.6032 10.1077 17.7035C10.1077 17.8223 9.98217 17.9235 9.78667 17.9235C9.66083 17.9235 9.577 17.8895 9.52617 17.837C9.4745 17.7817 9.45617 17.7072 9.45617 17.6325H8.18117C8.18117 18.3328 8.92517 18.5337 9.73517 18.5337C10.6847 18.5337 11.3553 18.2577 11.3553 17.5993C11.3552 17.2752 11.1688 17.0323 10.7455 16.8915Z" fill="black"/>
<path d="M14.3385 15.7747H12.3833V18.4628H13.7148V17.5578H14.1522C15.0925 17.5578 15.5298 17.1932 15.5298 16.6567C15.5298 16.1503 15.1485 15.7747 14.3385 15.7747ZM13.7798 16.9475H13.7148V16.385H13.854C14.143 16.385 14.2548 16.4662 14.2548 16.6567C14.2547 16.8463 14.1242 16.9475 13.7798 16.9475Z" fill="black"/>
<path d="M18.1412 15.7032C16.9817 15.7032 16.4048 16.2812 16.4048 17.1188C16.4048 17.9565 16.9817 18.5337 18.1412 18.5337C19.3003 18.5337 19.8778 17.9565 19.8778 17.1188C19.8778 16.2812 19.3003 15.7032 18.1412 15.7032ZM18.1412 17.834C17.9367 17.834 17.7822 17.7402 17.7822 17.1188C17.7822 16.512 17.9268 16.4035 18.1412 16.4035C18.3555 16.4035 18.4998 16.512 18.4998 17.1188C18.4998 17.7402 18.3463 17.834 18.1412 17.834Z" fill="black"/>
<path d="M23.3967 17.104V17.0967C23.8987 17 24.0617 16.7652 24.0617 16.4558C24.0617 15.9497 23.638 15.7747 22.9162 15.7747H20.9288V18.4628H22.2323V17.5062H22.385C22.5998 17.5062 22.684 17.558 22.7113 17.6922C22.7235 17.7534 22.7355 17.8222 22.748 17.894C22.7826 18.0931 22.8212 18.3152 22.8797 18.4628H24.1818C24.0905 18.2192 24.0573 17.9853 24.0292 17.7874C24.0104 17.6553 23.9939 17.5393 23.964 17.4472C23.8987 17.2412 23.7215 17.1262 23.3967 17.104ZM22.3435 16.8952H22.2325V16.385H22.354C22.6142 16.385 22.7862 16.4263 22.7862 16.6227C22.786 16.8242 22.6 16.8952 22.3435 16.8952Z" fill="black"/>
<path d="M24.9312 16.4972H25.7597V18.4628H27.0908V16.4972H27.919V15.7747H24.9312V16.4972Z" fill="black"/>
<path d="M31.2887 16.8915C31.0503 16.8106 30.7467 16.7496 30.4983 16.6998C30.3937 16.6788 30.2989 16.6597 30.2228 16.642C30.0828 16.6097 30.004 16.5675 30.004 16.4708C30.004 16.389 30.0978 16.3145 30.311 16.3145C30.4833 16.3145 30.6 16.3698 30.6045 16.5382H31.7968C31.7968 15.9122 31.168 15.7033 30.3302 15.7033C29.3472 15.7033 28.7847 16.0207 28.7847 16.5795C28.7847 16.9257 28.9663 17.1743 29.4828 17.2983L30.428 17.5212C30.5538 17.5515 30.651 17.6032 30.651 17.7035C30.651 17.8223 30.5255 17.9235 30.3302 17.9235C30.2047 17.9235 30.121 17.8895 30.0697 17.837C30.0178 17.7817 29.9995 17.7072 29.9995 17.6325H28.7237C28.7237 18.3328 29.4688 18.5337 30.2792 18.5337C31.2283 18.5337 31.8993 18.2577 31.8993 17.5993C31.8993 17.2752 31.7127 17.0323 31.2887 16.8915Z" fill="black"/>
<path d="M8.46217 15.0832V5.0175H14.5242L14.7105 7.7695H11.3172V9.0825H14.082V11.8293H11.298V15.0832H8.46217Z" fill="black"/>
<path d="M31.9002 15.0683L28.87 9.84583L31.6233 5.03117H28.5898L27.3307 7.20033L26.0937 5.03117H22.9528L25.7615 9.87983L22.787 15.075L25.8375 15.0742L27.2923 12.5302L28.764 15.0683H31.9002Z" fill="black"/>
<path d="M14.6333 10.0632C14.6333 7.3605 16.7803 5.1695 19.4298 5.1695C22.0793 5.1695 24.2267 7.3605 24.2267 10.0632C24.2267 12.7663 22.0792 14.9568 19.4298 14.9568C16.7805 14.9568 14.6333 12.7663 14.6333 10.0632ZM20.2927 12.0723V8.05133C20.2927 7.59283 19.8923 7.18183 19.4435 7.18183C18.9937 7.18183 18.6302 7.59267 18.6302 8.05133L18.629 12.0603C18.629 12.5197 18.9937 12.8917 19.4435 12.8917C19.8923 12.8917 20.2927 12.5307 20.2927 12.0723Z" fill="black"/>
<path d="M36.7328 12.3478C36.3663 17.8568 29.2068 22.2597 20.3645 22.3658V23.6216V23.6235C30.9443 23.5113 39.5183 18.5558 39.9837 12.3478H39.9798H36.7328Z" fill="black"/>
<path d="M19.6217 22.365C10.8198 22.2307 3.70617 17.8383 3.34117 12.3477H0.0201984H0.0166667C0.481667 18.5533 9.04867 23.5075 19.6218 23.6233V23.6214L19.6217 22.365Z" fill="black"/>
<path d="M19.6217 0C8.86783 0.118 0.189 5.249 0 11.6043H0.00302887H3.3325C3.58233 6.046 10.743 1.57133 19.6218 1.43567L19.6217 0.0020712V0Z" fill="black"/>
<path d="M20.3647 0V0.00192407V1.435C29.283 1.54233 36.4908 6.028 36.741 11.6042H39.997H40C39.8118 5.246 31.126 0.114 20.3647 0Z" fill="black"/>
<path fill-rule="evenodd" clip-rule="evenodd" d="M39.997 11.6042C39.8113 5.24819 31.1252 0.115557 20.3647 0.00192407V1.435C29.283 1.54233 36.4908 6.028 36.741 11.6042H39.997ZM19.6217 0.0020712C8.86767 0.119907 0.18849 5.25097 0.00302887 11.6043H3.3325C3.58233 6.046 10.743 1.57133 19.6218 1.43567L19.6217 0.0020712ZM20.3645 23.6216C30.9394 23.51 39.5108 18.5518 39.9798 12.3478H36.7328C36.3663 17.8568 29.2068 22.2597 20.3645 22.3658V23.6216ZM19.6218 23.6214L19.6217 22.365C10.8198 22.2307 3.70617 17.8383 3.34117 12.3477H0.0201984C0.489153 18.5535 9.06583 23.5129 19.6448 23.6217L19.6218 23.6214ZM10.7455 16.8915C10.507 16.8108 10.2042 16.75 9.95632 16.7002C9.85101 16.679 9.75563 16.6598 9.67933 16.642C9.53983 16.6097 9.46017 16.5675 9.46017 16.4708C9.46017 16.389 9.5535 16.3145 9.768 16.3145C9.94 16.3145 10.0568 16.3698 10.061 16.5382H11.2527C11.2527 15.9122 10.6242 15.7033 9.78683 15.7033C8.80417 15.7033 8.24083 16.0207 8.24083 16.5795C8.24083 16.9257 8.4225 17.1743 8.939 17.2983L9.8845 17.5212C10.0095 17.5515 10.1077 17.6032 10.1077 17.7035C10.1077 17.8223 9.98217 17.9235 9.78667 17.9235C9.66083 17.9235 9.577 17.8895 9.52617 17.837C9.4745 17.7817 9.45617 17.7072 9.45617 17.6325H8.18117C8.18117 18.3328 8.92517 18.5337 9.73517 18.5337C10.6847 18.5337 11.3553 18.2577 11.3553 17.5993C11.3552 17.2752 11.1688 17.0323 10.7455 16.8915ZM14.3385 15.7747H12.3833V18.4628H13.7148V17.5578H14.1522C15.0925 17.5578 15.5298 17.1932 15.5298 16.6567C15.5298 16.1503 15.1485 15.7747 14.3385 15.7747ZM18.1412 15.7032C16.9817 15.7032 16.4048 16.2812 16.4048 17.1188C16.4048 17.9565 16.9817 18.5337 18.1412 18.5337C19.3003 18.5337 19.8778 17.9565 19.8778 17.1188C19.8778 16.2812 19.3003 15.7032 18.1412 15.7032ZM23.3967 17.104V17.0967C23.8987 17 24.0617 16.7652 24.0617 16.4558C24.0617 15.9497 23.638 15.7747 22.9162 15.7747H20.9288V18.4628H22.2323V17.5062H22.385C22.5998 17.5062 22.684 17.558 22.7113 17.6922C22.7235 17.7534 22.7355 17.8222 22.748 17.894C22.7826 18.0931 22.8212 18.3152 22.8797 18.4628H24.1818C24.0905 18.2192 24.0573 17.9853 24.0292 17.7874C24.0104 17.6553 23.9939 17.5393 23.964 17.4472C23.8987 17.2412 23.7215 17.1262 23.3967 17.104ZM24.9312 16.4972H25.7597V18.4628H27.0908V16.4972H27.919V15.7747H24.9312V16.4972ZM31.2887 16.8915C31.0503 16.8106 30.7467 16.7496 30.4983 16.6998C30.3937 16.6788 30.2989 16.6597 30.2228 16.642C30.0828 16.6097 30.004 16.5675 30.004 16.4708C30.004 16.389 30.0978 16.3145 30.311 16.3145C30.4833 16.3145 30.6 16.3698 30.6045 16.5382H31.7968C31.7968 15.9122 31.168 15.7033 30.3302 15.7033C29.3472 15.7033 28.7847 16.0207 28.7847 16.5795C28.7847 16.9257 28.9663 17.1743 29.4828 17.2983L30.428 17.5212C30.5538 17.5515 30.651 17.6032 30.651 17.7035C30.651 17.8223 30.5255 17.9235 30.3302 17.9235C30.2047 17.9235 30.121 17.8895 30.0697 17.837C30.0178 17.7817 29.9995 17.7072 29.9995 17.6325H28.7237C28.7237 18.3328 29.4688 18.5337 30.2792 18.5337C31.2283 18.5337 31.8993 18.2577 31.8993 17.5993C31.8993 17.2752 31.7127 17.0323 31.2887 16.8915ZM8.46217 15.0832V5.0175H14.5242L14.7105 7.7695H11.3172V9.0825H14.082V11.8293H11.298V15.0832H8.46217ZM31.9002 15.0683L28.87 9.84583L31.6233 5.03117H28.5898L27.3307 7.20033L26.0937 5.03117H22.9528L25.7615 9.87983L22.787 15.075L25.8375 15.0742L27.2923 12.5302L28.764 15.0683H31.9002ZM14.6333 10.0632C14.6333 7.3605 16.7803 5.1695 19.4298 5.1695C22.0793 5.1695 24.2267 7.3605 24.2267 10.0632C24.2267 12.7663 22.0792 14.9568 19.4298 14.9568C16.7805 14.9568 14.6333 12.7663 14.6333 10.0632ZM20.2927 12.0723V8.05133C20.2927 7.59283 19.8923 7.18183 19.4435 7.18183C18.9937 7.18183 18.6302 7.59267 18.6302 8.05133L18.629 12.0603C18.629 12.5197 18.9937 12.8917 19.4435 12.8917C19.8923 12.8917 20.2927 12.5307 20.2927 12.0723ZM13.7148 16.9475H13.7798C14.1242 16.9475 14.2547 16.8463 14.2548 16.6567C14.2548 16.4662 14.143 16.385 13.854 16.385H13.7148V16.9475ZM18.1412 17.834C17.9367 17.834 17.7822 17.7402 17.7822 17.1188C17.7822 16.512 17.9268 16.4035 18.1412 16.4035C18.3555 16.4035 18.4998 16.512 18.4998 17.1188C18.4998 17.7402 18.3463 17.834 18.1412 17.834ZM22.2325 16.8952H22.3435C22.6 16.8952 22.786 16.8242 22.7862 16.6227C22.7862 16.4263 22.6142 16.385 22.354 16.385H22.2325V16.8952Z" fill="black"/>
</svg>
