<svg width="40" height="11" viewBox="0 0 40 11" fill="none" xmlns="http://www.w3.org/2000/svg">
<path d="M15.1263 9.83322V4.20335C14.8266 4.47976 14.35 4.50094 13.8734 4.50094H12.6916V4.71275H13.8734V7.92059C13.8734 8.92138 12.9468 9.99101 11.9015 9.99101C11.3339 9.99101 10.9748 9.62458 10.9748 9.03788V4.20335C10.6762 4.47447 10.1986 4.50094 9.71988 4.50094H8.27959V0.672507H9.39158V0.455403H5.80567V0.673565H6.98967V4.50094H2.39555V0.672507H3.58274V0.455403H0V0.673565H1.11199V9.83216H0V10.0524H3.58697V9.83216H2.39555V4.71805H6.98967V9.8311H5.80355V10.0514H9.38946V9.8311H8.27747V4.71805H9.71671V8.71593C9.71671 9.50068 10.2547 10.2176 11.749 10.2176C13.0781 10.2176 13.7051 9.13531 13.8396 8.82395H13.8734V10.0567H16.323V9.83851L15.1263 9.83322Z" fill="black"/>
<path d="M20.52 8.0805C20.5263 8.32741 20.4836 8.57312 20.3942 8.80338C20.3049 9.03364 20.1707 9.24387 19.9995 9.42188C19.8283 9.59989 19.6234 9.74214 19.3968 9.84039C19.1702 9.93863 18.9263 9.99091 18.6794 9.99419C17.3227 9.99419 17.1565 9.21579 17.1565 7.1782C17.1565 5.30475 17.3683 4.36115 18.5819 4.36115C19.7321 4.36115 20.52 5.48267 20.52 6.47923V8.0805ZM25.2359 6.47499L24.7159 6.44746C23.7045 6.39239 23.1072 6.14669 23.1072 5.43078C23.1072 4.71487 23.7352 4.33149 24.5158 4.33149C25.7262 4.33149 26.1848 5.04529 26.2928 5.82898H26.4919L26.4294 4.19382H26.2176V4.29972C26.2176 4.49247 26.2017 4.58778 26.1117 4.58778C25.9592 4.58778 25.3916 4.10698 24.5655 4.10698C23.3709 4.10698 22.6518 4.89067 22.6518 5.87981C22.6518 7.30846 23.6166 7.43237 24.6121 7.5298C25.4223 7.61135 26.3426 7.62512 26.3426 8.71169C26.3426 9.49538 25.6987 9.98995 24.8599 9.98995C23.2523 9.98995 22.8552 8.75193 22.7323 8.05191H22.5258L22.5533 9.8258H21.6839V1.52588e-05C21.4064 0.317728 20.9637 0.343145 20.5189 0.343145H19.4122V0.561307H20.52V5.5388H20.4925C20.2436 4.89702 19.5785 4.1451 18.5862 4.1451C16.9245 4.1451 15.8327 5.83957 15.8327 7.18032C15.8327 8.77947 16.9542 10.2155 18.6847 10.2155C19.6378 10.2155 20.2902 9.51868 20.4977 9.05059H20.5253V10.0493H22.7916C22.8223 9.76014 22.7768 9.62564 22.9748 9.62564C23.2809 9.62564 23.6495 10.2155 24.8578 10.2155C26.0365 10.2155 26.9876 9.37783 26.9876 8.09745C26.9876 7.15066 26.4813 6.54489 25.2412 6.47605" fill="black"/>
<path d="M31.7765 6.6455C31.7765 5.4562 31.7215 4.36221 30.17 4.36221C28.6185 4.36221 28.5634 5.4562 28.5634 6.6455V7.71196C28.5634 8.90232 28.6195 9.99525 30.17 9.99525C31.7204 9.99525 31.7765 8.90232 31.7765 7.71196V6.6455ZM30.17 4.14404C31.9566 4.14404 33.1056 5.60658 33.1056 7.1782C33.1056 8.74982 31.9566 10.2134 30.17 10.2134C28.3834 10.2134 27.2354 8.75193 27.2354 7.1782C27.2354 5.60446 28.3844 4.14404 30.17 4.14404Z" fill="black"/>
<path d="M33.7569 4.66298H32.6619V4.44375H33.7569C34.421 4.44375 34.6698 4.44375 34.9219 4.14404V5.5388H34.9484C35.3074 4.8822 35.9989 4.14404 37.0103 4.14404C38.493 4.14404 38.9071 4.88537 38.9071 5.68813V9.83216H40V10.0514H36.6503V9.83216H37.7432V5.36088C37.7432 4.60896 37.3693 4.36221 36.9256 4.36221C35.7607 4.36221 35.1687 5.51021 34.9198 5.97619V9.83216H35.9714V10.0514H32.6619V9.83216H33.7569V4.66298Z" fill="black"/>
</svg>
