<svg width="40" height="12" viewBox="0 0 40 12" fill="none" xmlns="http://www.w3.org/2000/svg">
<path d="M20.1434 2.07789L19.8173 1.88492L19.8348 1.79915H30.81C31.2062 1.78843 31.2658 1.68837 31.094 1.30957C31.057 1.23034 31.0168 1.15205 30.9766 1.07368C30.9061 0.936424 30.8355 0.798909 30.7819 0.655604C30.6504 0.220428 30.2287 -0.0534398 29.7861 0.00878397H8.48796C8.20744 0.0302255 8.14433 0.115992 8.26004 0.387584C8.31282 0.511456 8.37362 0.632354 8.43446 0.75333C8.50701 0.897598 8.57962 1.04198 8.63874 1.19164C8.7705 1.59194 9.16016 1.84276 9.57145 1.792H18.839C18.8203 1.84309 18.8025 1.89109 18.7854 1.93686C18.7417 2.05439 18.7035 2.15727 18.6707 2.26014L16.5668 8.95348C16.2056 10.0935 16.2337 10.1756 17.2225 10.8403C17.8887 11.2835 18.0641 11.2549 18.59 10.6366L23.3938 4.9725C23.4477 4.8978 23.4958 4.81894 23.5376 4.73664L23.6288 4.81169L23.2781 5.93379C23.1095 6.45982 22.939 6.98092 22.769 7.50068C22.529 8.23444 22.2898 8.96551 22.0579 9.70393C21.9246 10.1256 22.0018 10.2686 22.3524 10.5151L22.945 10.9261C23.3868 11.212 23.5306 11.212 23.9093 10.8546C24.8186 9.97076 25.7291 9.08808 26.6408 8.2066L27.8085 7.08092C27.8114 7.21765 27.7838 7.35328 27.7278 7.47758C27.6219 7.75391 27.5156 8.02975 27.4093 8.30547C27.2269 8.77854 27.0447 9.25124 26.8652 9.72537C26.7443 10.0019 26.847 10.3269 27.1037 10.4794C27.2977 10.6223 27.4929 10.7617 27.6892 10.8975C28.2082 11.2549 28.394 11.2299 28.8288 10.7546L33.4468 5.68007C33.5046 5.61652 33.5653 5.55762 33.6382 5.48703C33.6759 5.45045 33.7169 5.41073 33.7624 5.36559C33.7593 5.4114 33.7522 5.45684 33.7414 5.50139L33.559 5.85875C33.0265 6.82729 32.7645 7.92606 32.8016 9.03567C32.8422 10.0533 33.5314 10.9241 34.4988 11.1798C35.617 11.4595 36.7986 11.1571 37.6546 10.3722C39.4113 8.84984 40.1091 6.84506 39.9863 4.53295C39.929 4.16408 39.7925 3.81266 39.5866 3.50375C39.4038 3.12444 38.9695 2.94707 38.5803 3.09279C38.0736 3.3022 37.5856 3.55567 37.1216 3.85039C36.9498 3.95403 36.9918 4.14343 37.1566 4.26135C37.27 4.33456 37.3826 4.41516 37.4961 4.49643C37.632 4.5937 37.7692 4.69191 37.9105 4.77952C38.0851 4.87583 38.1828 5.07226 38.156 5.27268C38.0989 6.30315 37.7851 7.30181 37.2443 8.17443C36.908 8.81315 36.3846 9.32906 35.747 9.65033C35.5167 9.793 35.2283 9.79603 34.9952 9.65822C34.762 9.52042 34.6214 9.2638 34.6285 8.98921C34.6052 8.85926 34.6052 8.72607 34.6285 8.59612C34.7208 8.12075 34.8533 7.65443 35.0247 7.20242C35.3025 6.56836 35.6281 5.97081 35.9501 5.37963C36.0183 5.25445 36.0864 5.12956 36.1538 5.00466C36.2922 4.80906 36.3486 4.56535 36.3104 4.32734C36.2723 4.08932 36.1427 3.87657 35.9504 3.73604C35.8188 3.61769 35.6777 3.51095 35.5369 3.40443C35.4864 3.36622 35.4359 3.32803 35.3859 3.28934C35.1272 3.04486 34.7795 2.92261 34.4279 2.95253C34.0763 2.98244 33.7533 3.16176 33.538 3.44658C33.1443 3.84778 32.7648 4.25617 32.3859 4.66391C32.3024 4.75373 32.219 4.84352 32.1354 4.93319L29.4074 7.85281C29.4248 7.78456 29.4381 7.72935 29.4495 7.68219C29.4679 7.60588 29.4812 7.55067 29.4986 7.49545C29.6336 7.05947 29.7694 6.62438 29.9053 6.18929C30.0412 5.75421 30.1771 5.31913 30.3121 4.88316C30.419 4.60428 30.3351 4.28693 30.1052 4.10054C29.8466 3.88272 29.571 3.68672 29.2812 3.51447C29.1779 3.43681 29.0446 3.41386 28.922 3.45267C28.7995 3.49147 28.7024 3.5874 28.6605 3.71102C28.5436 3.90556 28.4048 4.08547 28.2468 4.24706C27.8322 4.65562 27.4089 5.0576 26.9872 5.45816C26.8704 5.56913 26.7537 5.67999 26.6373 5.79085L24.6316 7.69915C24.6593 7.60581 24.6801 7.5333 24.6979 7.47136C24.7162 7.4076 24.7313 7.35504 24.7473 7.30248C24.8414 7.01022 24.935 6.716 25.0289 6.421C25.2187 5.82502 25.4094 5.22582 25.6064 4.63301C25.7396 4.28243 25.6363 3.88434 25.3504 3.6467C25.2473 3.54939 25.1384 3.45869 25.0243 3.3751C24.2038 2.77117 23.9864 2.80333 23.3132 3.57523C21.9317 5.16666 20.5396 6.75691 19.137 8.34597C19.0943 8.39458 19.0481 8.43771 19.0021 8.48058C18.9838 8.49758 18.9656 8.51454 18.9477 8.53179C18.9256 8.42703 18.9329 8.31806 18.9687 8.21732L19.7226 5.82659C19.7744 5.66243 19.8262 5.49815 19.8781 5.33377C20.1076 4.60713 20.3376 3.87855 20.5606 3.14997C20.729 2.59249 20.6273 2.36021 20.1434 2.07789Z" fill="black"/>
<path d="M3.67058 6.83176L2.68698 7.69432L2.63521 7.66276C2.65419 7.60842 2.67231 7.55407 2.69043 7.49972C2.70855 7.44537 2.72667 7.39102 2.74565 7.33667C2.84919 7.03747 2.9531 6.73828 3.05702 6.43908C3.26487 5.84066 3.47271 5.24224 3.67748 4.64383C3.76974 4.48623 3.79081 4.29593 3.73533 4.12144C3.67984 3.94696 3.55316 3.80515 3.38758 3.73218C3.15202 3.53284 2.90164 3.35231 2.63866 3.19221C2.46669 3.09059 2.2631 3.05925 2.06921 3.10455C1.59406 3.33689 1.13307 3.598 0.688716 3.88646C0.491996 4.00217 0.512703 4.17398 0.688716 4.31073C0.73773 4.34807 0.788484 4.38365 0.838507 4.41872C0.85893 4.43303 0.879231 4.44727 0.899242 4.4615C0.970553 4.5134 1.05434 4.55997 1.13814 4.60655C1.32609 4.71101 1.51414 4.81553 1.56188 4.98043C1.61195 5.1534 1.51854 5.37249 1.42658 5.58819C1.39178 5.66983 1.35718 5.75098 1.33065 5.82896C1.15609 6.35212 0.980305 6.87404 0.804588 7.39576C0.563405 8.11185 0.322345 8.82758 0.0847506 9.54565C-0.0809086 10.0435 -0.0187864 10.2083 0.405715 10.5029C0.626594 10.6572 0.847473 10.8079 1.06835 10.9587C1.43763 11.2076 1.52737 11.2006 1.84833 10.8991L4.19172 8.69011L5.35478 7.59614C5.35712 7.71638 5.33479 7.83579 5.28921 7.94677C5.09249 8.49726 4.91993 9.04776 4.74737 9.60526C4.63846 9.91623 4.75774 10.2623 5.03382 10.4363C5.22019 10.58 5.41 10.7168 5.60327 10.8535C6.18653 11.2602 6.40051 11.2252 6.87678 10.6782L11.9363 4.85771C11.9744 4.81171 12.0175 4.77239 12.0621 4.73168C12.0821 4.71343 12.1024 4.69491 12.1227 4.67538V9.23359C12.0003 9.18211 11.8908 9.13377 11.7847 9.08697C11.5947 9.00309 11.4158 8.92416 11.1943 8.84088C10.8491 8.71115 10.7111 8.81984 10.6938 9.17048C10.6248 10.5379 10.756 10.7413 11.9639 11.2041C12.2529 11.3279 12.5829 11.3031 12.8509 11.1375C13.1546 10.9587 13.4583 10.7799 13.7689 10.6081C14.103 10.441 14.3077 10.0884 14.29 9.71045C14.2915 9.48006 14.2928 9.24966 14.2942 9.01927C14.3022 7.63676 14.3102 6.25425 14.3487 4.87174C14.4273 4.19651 14.0492 3.55197 13.4272 3.30091C12.7163 2.9608 12.2711 3.00638 11.7465 3.59544L8.31249 7.45238L7.18049 8.71115C7.19312 8.6498 7.20176 8.60297 7.20873 8.56521C7.21888 8.51018 7.22547 8.47444 7.23571 8.44116C7.34431 8.09528 7.45166 7.74908 7.55898 7.40295C7.80634 6.60519 8.05359 5.80778 8.31594 5.01549C8.65071 4.01269 8.61275 3.8549 7.72923 3.26234C7.27022 2.95729 7.04934 3.0169 6.84572 3.52882C6.64716 4.06565 6.31119 4.53893 5.87247 4.89979C5.35115 5.32301 4.84954 5.77459 4.34838 6.22576C4.12294 6.42872 3.89759 6.63159 3.67058 6.83176Z" fill="black"/>
</svg>
