<svg width="40" height="17" viewBox="0 0 40 17" fill="none" xmlns="http://www.w3.org/2000/svg">
<path d="M0 15.8996V0.733146H2.6808V6.40577H2.79188C2.93012 6.1293 3.12513 5.83555 3.37692 5.52451C3.6287 5.20855 3.96936 4.93948 4.39888 4.71731C4.8284 4.49021 5.3764 4.37666 6.0429 4.37666C6.92169 4.37666 7.71408 4.60129 8.42007 5.05056C9.131 5.49489 9.69382 6.15398 10.1085 7.02783C10.5282 7.89675 10.738 8.96314 10.738 10.227C10.738 11.4761 10.5331 12.5375 10.1233 13.4114C9.71357 14.2852 9.15569 14.9517 8.44969 15.4109C7.7437 15.87 6.9439 16.0996 6.05031 16.0996C5.39862 16.0996 4.85802 15.991 4.4285 15.7737C3.99898 15.5565 3.65339 15.2949 3.39173 14.9888C3.135 14.6777 2.93505 14.384 2.79188 14.1075H2.63636V15.8996H0ZM2.62896 10.2122C2.62896 10.9478 2.73264 11.5921 2.93999 12.145C3.15228 12.698 3.45591 13.13 3.85087 13.441C4.25077 13.7471 4.73459 13.9002 5.30235 13.9002C5.89479 13.9002 6.39096 13.7422 6.79086 13.4262C7.19076 13.1053 7.49191 12.6684 7.69433 12.1154C7.90169 11.5575 8.00536 10.9231 8.00536 10.2122C8.00536 9.50621 7.90415 8.87921 7.70174 8.3312C7.49932 7.7832 7.19816 7.35368 6.79826 7.04265C6.39837 6.73161 5.89973 6.5761 5.30235 6.5761C4.72966 6.5761 4.24336 6.72668 3.84346 7.02783C3.44356 7.32899 3.13994 7.75111 2.93258 8.29418C2.73017 8.83725 2.62896 9.47659 2.62896 10.2122Z" fill="black"/>
<path d="M11.3487 15.8996V4.52477H14.0295V15.8996H11.3487ZM12.6965 2.91037C12.272 2.91037 11.9066 2.76966 11.6005 2.48825C11.2944 2.20191 11.1414 1.85878 11.1414 1.45889C11.1414 1.05405 11.2944 0.710929 11.6005 0.429519C11.9066 0.143173 12.272 0 12.6965 0C13.1261 0 13.4914 0.143173 13.7925 0.429519C14.0986 0.710929 14.2517 1.05405 14.2517 1.45889C14.2517 1.85878 14.0986 2.20191 13.7925 2.48825C13.4914 2.76966 13.1261 2.91037 12.6965 2.91037Z" fill="black"/>
<path d="M17.7987 0.733146V15.8996H15.1179V0.733146H17.7987Z" fill="black"/>
<path d="M26.1371 11.1157V4.52477H28.8179V15.8996H26.2186V13.8779H26.1001C25.8433 14.5148 25.4212 15.0357 24.8337 15.4405C24.2512 15.8453 23.5328 16.0478 22.6787 16.0478C21.9332 16.0478 21.2741 15.8824 20.7015 15.5516C20.1337 15.2159 19.6894 14.7296 19.3685 14.0927C19.0476 13.4509 18.8871 12.6758 18.8871 11.7674V4.52477H21.5679V11.3527C21.5679 12.0735 21.7654 12.6462 22.1603 13.0707C22.5553 13.4953 23.0737 13.7076 23.7155 13.7076C24.1105 13.7076 24.4931 13.6113 24.8634 13.4188C25.2336 13.2263 25.5373 12.9399 25.7742 12.5598C26.0161 12.1747 26.1371 11.6933 26.1371 11.1157Z" fill="black"/>
<path d="M34.942 16.1218C33.8016 16.1218 32.8167 15.8848 31.9872 15.4109C31.1628 14.932 30.5283 14.2556 30.084 13.3818C29.6397 12.503 29.4175 11.4687 29.4175 10.2789C29.4175 9.10878 29.6397 8.08189 30.084 7.19816C30.5333 6.3095 31.1603 5.61832 31.965 5.12462C32.7698 4.62598 33.7152 4.37666 34.8013 4.37666C35.5024 4.37666 36.1639 4.49021 36.786 4.71731C37.413 4.93948 37.966 5.28507 38.4448 5.75409C38.9287 6.2231 39.3088 6.82048 39.5853 7.54622C39.8618 8.26702 40 9.12606 40 10.1233V10.9454H30.6765V9.13841H37.4303C37.4254 8.62496 37.3143 8.16828 37.097 7.76839C36.8798 7.36355 36.5762 7.04511 36.1862 6.81307C35.8011 6.58103 35.3518 6.46501 34.8384 6.46501C34.2903 6.46501 33.809 6.59831 33.3943 6.86491C32.9796 7.12657 32.6562 7.47216 32.4242 7.90168C32.1971 8.32627 32.081 8.79282 32.0761 9.30133V10.8787C32.0761 11.5403 32.1971 12.108 32.439 12.582C32.6809 13.051 33.0191 13.4114 33.4535 13.6632C33.888 13.91 34.3965 14.0335 34.9791 14.0335C35.3691 14.0335 35.7221 13.9791 36.0381 13.8705C36.354 13.757 36.628 13.5916 36.8601 13.3744C37.0921 13.1571 37.2674 12.8881 37.3859 12.5672L39.8889 12.8486C39.7309 13.5101 39.4298 14.0878 38.9854 14.5815C38.5461 15.0702 37.9832 15.4504 37.297 15.7219C36.6107 15.9885 35.8258 16.1218 34.942 16.1218Z" fill="black"/>
</svg>
