<svg width="40" height="11" viewBox="0 0 40 11" fill="none" xmlns="http://www.w3.org/2000/svg">
<path d="M7.73691 4.86592L7.42129 6.63665C7.42129 6.63665 7.36095 6.88729 7.6348 7.03118C7.95042 7.19595 8.37744 7.14954 8.65593 7.05438C9.01797 6.93138 9.39393 6.55078 9.09455 6.24908C8.80446 5.95435 7.73691 4.86592 7.73691 4.86592Z" fill="black"/>
<path d="M9.45427 0.00394159C8.97851 0.0387529 8.55846 0.294035 8.5074 0.574846L7.73691 4.86824C7.76476 4.89609 8.8091 5.95899 9.09223 6.24676C9.16185 6.31639 9.19202 6.39065 9.19899 6.46491L10.2294 0.451847C10.2805 0.168715 9.93002 -0.0308697 9.45427 0.00394159Z" fill="black"/>
<path d="M5.03788 8.87849L5.34422 10.3011C5.34422 10.3011 5.39527 10.6191 5.88031 10.6655C6.36767 10.7119 6.72274 10.5448 6.88288 10.4218C7.04301 10.3011 7.14512 10.1363 7.13584 9.99942C7.12888 9.86249 7.02676 9.72557 6.81557 9.63738C6.60439 9.55383 5.03788 8.87849 5.03788 8.87849Z" fill="black"/>
<path d="M6.18665 5.59927L5.56237 2.7053C5.56237 2.7053 5.4881 2.42449 4.96594 2.38039C4.46697 2.34094 4.08405 2.58694 3.97962 2.67977C3.8775 2.7726 3.71041 2.98147 3.82413 3.1973C3.94945 3.43401 6.18665 5.59927 6.18665 5.59927Z" fill="black"/>
<path d="M7.73691 4.86592L5.49971 2.60086C5.54844 2.65888 5.56237 2.7053 5.56237 2.7053L6.18897 5.59927H6.18665V5.60391L7.52572 6.95691C7.52804 6.95923 7.53037 6.95923 7.53269 6.96155C7.37488 6.81999 7.41897 6.63665 7.41897 6.63665L7.69746 5.07942L7.71138 5.00516L7.73691 4.86592Z" fill="black"/>
<path d="M7.13816 9.9971C7.13816 9.98317 7.13584 9.96925 7.13584 9.96229C7.12888 9.93444 6.59742 7.48604 6.18665 5.59695C6.14488 5.5575 3.94945 3.43169 3.82645 3.19962C3.7986 3.14856 3.78931 3.09518 3.78931 3.04645C3.78931 3.08126 3.79164 3.10214 3.79164 3.10214C3.79164 3.10214 4.58533 6.77357 5.0402 8.88082C5.06573 8.89242 6.60903 9.55383 6.8179 9.6397C7.02676 9.72557 7.12888 9.86249 7.13816 9.9971Z" fill="black"/>
<path d="M5.03788 8.88082L1.47553 7.36304C1.13438 7.21452 0.575074 7.33055 0.243207 7.57191C-0.0886607 7.81559 -0.0793777 8.13121 0.261773 8.27742L5.61807 10.6028C5.62039 10.6028 5.62271 10.6051 5.62503 10.6051V10.6028C5.37439 10.4961 5.34422 10.3011 5.34422 10.3011L5.03788 8.88082Z" fill="black"/>
<path d="M14.9034 10.1572L14.1956 7.30735H14.184L13.4854 10.1572H12.5525L11.4455 5.97059H12.3645L13.0282 8.82048H13.0398L13.7662 5.97059H14.6272L15.3443 8.85529H15.3559L16.0406 5.97059H16.9433L15.8178 10.1572H14.9034Z" fill="black"/>
<path d="M18.7048 7.83648C18.605 7.7274 18.4541 7.67171 18.2499 7.67171C18.1176 7.67171 18.0062 7.69259 17.918 7.73901C17.8299 7.7831 17.7602 7.8388 17.7069 7.9061C17.6535 7.97108 17.6164 8.04302 17.5955 8.11729C17.5746 8.19155 17.5607 8.25653 17.5583 8.31687H18.9137C18.8742 8.10569 18.8046 7.94555 18.7048 7.83648ZM17.7649 9.42851C17.8902 9.54919 18.0689 9.60953 18.3033 9.60953C18.4727 9.60953 18.6166 9.56776 18.7373 9.48421C18.858 9.40066 18.9322 9.31248 18.9601 9.21733H19.6934C19.5774 9.58168 19.3964 9.83929 19.155 9.9971C18.9113 10.1526 18.6189 10.2315 18.2754 10.2315C18.0364 10.2315 17.8229 10.1944 17.6303 10.1178C17.44 10.0412 17.2775 9.93212 17.1429 9.79287C17.0106 9.65131 16.9085 9.48421 16.8343 9.28927C16.7623 9.09433 16.7252 8.8785 16.7252 8.6441C16.7252 8.41899 16.7623 8.20548 16.8366 8.01053C16.9108 7.81559 17.0153 7.64618 17.1522 7.50461C17.2891 7.36304 17.4516 7.24933 17.6419 7.1681C17.8299 7.08687 18.041 7.0451 18.2708 7.0451C18.5284 7.0451 18.7535 7.09384 18.9461 7.19595C19.1364 7.29574 19.2943 7.43035 19.4173 7.59744C19.5403 7.76686 19.6284 7.95716 19.6841 8.17067C19.7398 8.3865 19.7584 8.61161 19.7422 8.84368H17.556C17.5723 9.11289 17.6396 9.30783 17.7649 9.42851Z" fill="black"/>
<path d="M22.2903 8.2751C22.2625 8.15906 22.2207 8.05463 22.1604 7.96412C22.1024 7.87593 22.0281 7.80399 21.9399 7.75061C21.8517 7.69723 21.745 7.67171 21.622 7.67171C21.499 7.67171 21.3945 7.69723 21.304 7.75061C21.2135 7.80399 21.1393 7.87593 21.0812 7.96412C21.0232 8.05463 20.9791 8.15906 20.9513 8.2751C20.9234 8.39346 20.9118 8.51646 20.9118 8.6441C20.9118 8.76942 20.9257 8.8901 20.9513 9.00846C20.9791 9.12682 21.0232 9.22893 21.0812 9.31944C21.1393 9.40995 21.2135 9.47957 21.304 9.53295C21.3945 9.58633 21.499 9.61185 21.622 9.61185C21.7473 9.61185 21.854 9.584 21.9399 9.53295C22.0281 9.47957 22.1 9.40995 22.1604 9.31944C22.2184 9.22893 22.2625 9.12682 22.2903 9.00846C22.3182 8.89242 22.3321 8.76942 22.3321 8.6441C22.3321 8.51414 22.3182 8.39114 22.2903 8.2751ZM20.942 5.97059V7.49533H20.9536C21.0557 7.33984 21.1926 7.2238 21.3667 7.15186C21.5407 7.07991 21.7218 7.04278 21.9097 7.04278C22.0629 7.04278 22.2114 7.07295 22.36 7.13561C22.5085 7.19827 22.6408 7.29342 22.7615 7.42338C22.8798 7.55335 22.9773 7.71812 23.0516 7.92003C23.1258 8.12193 23.1629 8.36097 23.1629 8.63714C23.1629 8.91563 23.1258 9.15466 23.0516 9.35657C22.9773 9.55848 22.8798 9.72325 22.7615 9.85321C22.6408 9.98317 22.5085 10.0783 22.36 10.141C22.2114 10.2036 22.0606 10.2338 21.9097 10.2338C21.6869 10.2338 21.4874 10.199 21.311 10.1294C21.1346 10.0598 21.0023 9.93908 20.9118 9.77198H20.9002V10.1595H20.1088V5.97059H20.942Z" fill="black"/>
<path d="M25.6206 7.5487C25.4837 7.41874 25.2934 7.35608 25.0474 7.35608C24.871 7.35608 24.7179 7.39321 24.5832 7.46748C24.451 7.54174 24.3396 7.63921 24.2514 7.75989C24.1632 7.88057 24.0982 8.01982 24.0518 8.17299C24.0054 8.32616 23.9845 8.48397 23.9845 8.6441C23.9845 8.80423 24.0054 8.96204 24.0518 9.11521C24.0982 9.2707 24.1632 9.40763 24.2514 9.52831C24.3396 9.65131 24.4486 9.74646 24.5832 9.82072C24.7155 9.89498 24.871 9.93212 25.0474 9.93212C25.1588 9.93212 25.2679 9.91123 25.37 9.86714C25.4721 9.82304 25.5603 9.76502 25.6392 9.68844C25.7181 9.61417 25.7808 9.52134 25.8318 9.41691C25.8829 9.31248 25.9154 9.19644 25.9246 9.07112H26.2936C26.2426 9.4378 26.108 9.72557 25.8898 9.9298C25.6717 10.1363 25.3909 10.2385 25.0474 10.2385C24.8153 10.2385 24.6111 10.1967 24.4347 10.1131C24.256 10.0296 24.1075 9.91587 23.9868 9.76966C23.8661 9.62578 23.7733 9.45636 23.7106 9.26374C23.648 9.0688 23.6178 8.86457 23.6178 8.64642C23.6178 8.42827 23.648 8.22172 23.7106 8.0291C23.7733 7.83416 23.8638 7.66706 23.9868 7.52318C24.1075 7.37929 24.2583 7.26325 24.4347 7.17738C24.6134 7.09152 24.8176 7.04742 25.0474 7.04742C25.3723 7.04742 25.6462 7.13329 25.8713 7.30503C26.0964 7.47676 26.231 7.73669 26.2728 8.0848H25.9038C25.8504 7.85504 25.7575 7.67635 25.6206 7.5487Z" fill="black"/>
<path d="M28.9114 8.0291C28.865 7.89914 28.8024 7.78542 28.7211 7.68563C28.6376 7.58584 28.5401 7.50693 28.4218 7.44427C28.3057 7.38393 28.1711 7.35376 28.0226 7.35376C27.8718 7.35376 27.7348 7.38393 27.6188 7.44427C27.5004 7.50461 27.4006 7.58352 27.3194 7.68563C27.2359 7.78542 27.1709 7.90146 27.1221 8.03142C27.0734 8.1637 27.0409 8.29599 27.0247 8.43291H28.9834C28.9811 8.29135 28.9579 8.15674 28.9114 8.0291ZM27.0827 9.15699C27.1198 9.29855 27.1802 9.42851 27.2614 9.54223C27.3449 9.65595 27.4471 9.74878 27.5724 9.82304C27.6977 9.89731 27.8485 9.93444 28.0226 9.93444C28.2941 9.93444 28.503 9.86482 28.6562 9.72325C28.807 9.584 28.9138 9.39602 28.9718 9.16163H29.3408C29.2619 9.5051 29.118 9.76966 28.9091 9.95764C28.7003 10.1456 28.4032 10.2385 28.0203 10.2385C27.7812 10.2385 27.577 10.1967 27.403 10.1108C27.2289 10.0273 27.0873 9.91123 26.9783 9.76502C26.8692 9.61882 26.788 9.44708 26.7346 9.25446C26.6812 9.06184 26.6557 8.85761 26.6557 8.64178C26.6557 8.44219 26.6835 8.24725 26.7346 8.05463C26.788 7.86433 26.8692 7.69259 26.9783 7.54174C27.0873 7.39089 27.2289 7.27021 27.403 7.17738C27.577 7.08688 27.7836 7.04046 28.0203 7.04046C28.264 7.04046 28.4705 7.0892 28.6422 7.18667C28.814 7.28414 28.9532 7.41178 29.0623 7.57191C29.1691 7.72972 29.248 7.91074 29.2944 8.11729C29.3408 8.32384 29.3617 8.53038 29.3524 8.74157H27.0247C27.027 8.87617 27.0456 9.01542 27.0827 9.15699Z" fill="black"/>
<path d="M30.2157 7.13097V7.65314H30.2273C30.2993 7.4698 30.4246 7.32359 30.6033 7.2122C30.782 7.1008 30.9792 7.0451 31.1951 7.0451C31.4063 7.0451 31.5826 7.07295 31.7265 7.12633C31.8681 7.18203 31.9841 7.25861 32.07 7.3584C32.1559 7.45819 32.2162 7.57887 32.251 7.72276C32.2858 7.86897 32.3044 8.03142 32.3044 8.21012V10.1572H31.9354V8.27046C31.9354 8.1405 31.9238 8.01982 31.9006 7.90842C31.8774 7.79703 31.8356 7.70187 31.7776 7.61833C31.7196 7.5371 31.6407 7.47212 31.5409 7.4257C31.4411 7.37929 31.3181 7.35608 31.1695 7.35608C31.021 7.35608 30.8887 7.38161 30.775 7.43499C30.659 7.48837 30.5615 7.56031 30.4826 7.65314C30.4014 7.74365 30.3387 7.85504 30.2946 7.98036C30.2482 8.10801 30.225 8.24493 30.2204 8.39346V10.1572H29.8514V7.13097H30.2157Z" fill="black"/>
<path d="M34.2028 7.44195H33.5878V9.48189C33.5878 9.60257 33.604 9.69772 33.6365 9.76502C33.669 9.83465 33.7525 9.87178 33.8848 9.87874C33.9916 9.87874 34.096 9.87178 34.2028 9.86017V10.1712C34.1471 10.1712 34.0937 10.1735 34.038 10.1781C33.9823 10.1804 33.9289 10.1828 33.8732 10.1828C33.6272 10.1828 33.4555 10.1363 33.358 10.0389C33.2605 9.94372 33.2141 9.76734 33.2164 9.50742V7.43731H32.6896V7.12633H33.2164V6.21891H33.5854V7.12633H34.2028V7.44195Z" fill="black"/>
<path d="M35.0754 7.13097V7.84112H35.087C35.1798 7.59512 35.326 7.40482 35.5233 7.27254C35.7205 7.14025 35.9573 7.07991 36.2311 7.09152V7.46052C36.0617 7.45123 35.9108 7.47444 35.7739 7.52782C35.637 7.5812 35.5186 7.65546 35.4188 7.75293C35.319 7.8504 35.2425 7.96644 35.1868 8.10104C35.1311 8.23565 35.1032 8.38185 35.1032 8.54199V10.1549H34.7342V7.13097H35.0754Z" fill="black"/>
<path d="M38.5054 8.50253C38.4822 8.54663 38.4358 8.5768 38.3708 8.59536C38.3059 8.61393 38.2455 8.63018 38.1945 8.63714C38.0366 8.66499 37.8765 8.68819 37.7094 8.7114C37.5423 8.73229 37.3915 8.76478 37.2546 8.80887C37.1176 8.85065 37.0062 8.91331 36.918 8.99453C36.8299 9.07344 36.7858 9.18948 36.7858 9.338C36.7858 9.43083 36.8043 9.51438 36.8415 9.58632C36.8786 9.65827 36.9273 9.72093 36.9923 9.77431C37.055 9.82768 37.1269 9.86714 37.2081 9.89498C37.2894 9.92283 37.3752 9.93676 37.4611 9.93676C37.6003 9.93676 37.7373 9.91587 37.8649 9.87178C37.9949 9.83 38.1063 9.76734 38.2014 9.6838C38.2966 9.60025 38.3732 9.50278 38.4312 9.38442C38.4869 9.26838 38.5147 9.13378 38.5147 8.98525V8.50485H38.5054V8.50253ZM36.6581 7.59976C36.7208 7.4698 36.8066 7.36536 36.9134 7.28182C37.0202 7.20059 37.1478 7.14025 37.2917 7.1008C37.4356 7.06367 37.598 7.04278 37.7721 7.04278C37.9044 7.04278 38.0366 7.05438 38.1712 7.07991C38.3035 7.10544 38.4242 7.15418 38.5286 7.2238C38.6354 7.29342 38.7213 7.39321 38.7862 7.51854C38.8512 7.64618 38.886 7.81095 38.886 8.01518V9.62114C38.886 9.76966 38.958 9.84393 39.1019 9.84393C39.1436 9.84393 39.1831 9.83464 39.2179 9.82072V10.1317C39.1761 10.141 39.1367 10.1456 39.1042 10.1503C39.0694 10.1549 39.0299 10.1572 38.9789 10.1572C38.886 10.1572 38.8095 10.1433 38.7538 10.1201C38.6981 10.0946 38.6516 10.0574 38.6215 10.011C38.5913 9.96461 38.5704 9.90659 38.5611 9.84393C38.5518 9.77895 38.5449 9.707 38.5449 9.63042H38.5333C38.4683 9.72789 38.3987 9.81608 38.3314 9.89034C38.2641 9.96693 38.1875 10.0296 38.1039 10.0806C38.0204 10.1317 37.9252 10.1712 37.8162 10.1967C37.7094 10.2245 37.5818 10.2385 37.4332 10.2385C37.2917 10.2385 37.1594 10.2222 37.0364 10.1897C36.9134 10.1572 36.8066 10.1039 36.7138 10.0319C36.621 9.95997 36.549 9.86714 36.498 9.75574C36.4446 9.64434 36.4191 9.51206 36.4191 9.35889C36.4191 9.1477 36.4655 8.98293 36.5606 8.86457C36.6535 8.74389 36.7788 8.65338 36.932 8.59304C37.0875 8.53038 37.2592 8.48629 37.4541 8.46076C37.6491 8.43523 37.844 8.41202 38.0436 8.3865C38.1225 8.37721 38.1898 8.36793 38.2502 8.35633C38.3082 8.34472 38.3569 8.32384 38.3964 8.29599C38.4358 8.26814 38.466 8.22636 38.4869 8.17531C38.5078 8.12425 38.5194 8.05927 38.5194 7.97572C38.5194 7.8504 38.4985 7.74829 38.4567 7.66706C38.4172 7.58816 38.3592 7.52318 38.2873 7.47676C38.2153 7.43035 38.1295 7.39786 38.0343 7.37929C37.9392 7.36072 37.8347 7.35376 37.7257 7.35376C37.4913 7.35376 37.301 7.40946 37.1524 7.52086C37.0039 7.63225 36.925 7.81095 36.918 8.05695H36.549C36.5606 7.88289 36.5955 7.72972 36.6581 7.59976Z" fill="black"/>
<path d="M40 5.97059H39.631V10.1572H40V5.97059Z" fill="black"/>
</svg>
