<svg width="601" height="234" viewBox="0 0 601 234" fill="none" xmlns="http://www.w3.org/2000/svg">
<path d="M129.5 106C134.9 105.4 150.4 97.8 158.2 93.8C158.6 93.6 159 94.2 158.6 94.5C152.8 98.8 142.2 106.9 134.8 113.9C132 116.6 132.1 121.2 135.1 123.7C140.6 128.5 148.7 134.3 153.4 137.6C153.8 137.9 153.5 138.5 153 138.3C147.7 135.9 138.3 131.9 130.7 129.2C126.9 127.9 122.8 130.1 121.9 134.1L114.8 166.5C114.7 167 114 166.9 114 166.4C113.9 160.5 113.6 148.3 112.8 139.4C112.4 134.7 107.2 131.9 103 134.1C93.3 139.2 82.7 146.4 76.4 150.9C76 151.2 75.5 150.6 75.9 150.3C81.3 145.3 88.5 138.2 93.5 132.2C94.6 130.8 97.1 128.7 97.7 127.1C93.7 124.8 91.1 122 90.5 121.4C89 119.7 87.4 118.1 85.9 116.7C16.4 107.5 0 155.8 0 155.8C34.8 169.6 53.9 164.5 55.6 164.2C55.6 164.2 39.5 189.4 42.5 233.6C103.3 223.4 114.7 181.2 114.7 181.2C128.7 213.4 172.5 209.6 172.5 209.6C172.5 209.6 184.5 171.3 167.5 146.9C212.1 154.7 240 102.6 240 102.6C240 102.6 213.3 82.3 178 84.2C183.3 76.8 202.2 45.5 185.1 0C113.5 21.3 115.7 73.6 116.8 83.3C104.8 63.1 106.9 42.5 93.2 32.5C83.3 24.8 65.9 28.5 51.9 41C37.6 53.7 32.1 71.2 39.3 81.8C39.4 81.9 39.6 82 39.7 82.2L39.8 82.3C40.1 82.7 40.5 83 41 83.4C42.4 84.5 44.4 85.4 46.4 86C49.2 86.7 52.1 87.2 55.1 87.1C61.1 87.1 67.2 85.7 72.8 83.1C78.4 80.5 83.4 76.7 87.7 72.2C91.9 67.6 95.3 62.1 97.9 56.3C98.1 55.8 98.7 55.5 99.2 55.6C99.3 55.6 99.4 55.6 99.5 55.7C100.1 55.9 100.4 56.6 100.2 57.2C98.2 63.5 95.2 69.6 90.9 75C86.7 80.3 81.3 84.8 75.2 88C69.1 91.2 62.3 93.2 55.3 93.6C54.8 93.6 54.2 93.6 53.7 93.6C66.7 100.3 80.1 101.6 95 118.1C99.3 122.8 111.6 132 123.7 121.5C131.3 114.9 129.5 106 129.5 106Z" fill="black"/>
<path d="M324.1 99C323.6 99.5 322.9 100.1 321.8 100.8C320.7 101.5 319.3 102.2 317.5 102.9C315.7 103.6 313.5 104.2 311 104.7C308.5 105.2 305.6 105.5 302.3 105.5C296 105.5 290.5 104.5 285.9 102.5C281.3 100.5 277.5 97.6 274.5 94C271.5 90.4 269.3 86.1 267.9 81.1C266.5 76.1 265.8 70.7 265.8 64.8C265.8 58.9 266.6 53.4 268.1 48.3C269.6 43.3 271.9 38.9 275 35.2C278.1 31.5 281.9 28.7 286.4 26.6C291 24.5 296.3 23.5 302.5 23.5C305.5 23.5 308.3 23.8 310.8 24.3C313.3 24.8 315.4 25.5 317.2 26.2C319 26.9 320.6 27.7 321.8 28.5C323 29.3 323.9 30 324.6 30.6C325.3 31.2 325.9 32 326.4 32.8C326.9 33.7 327.2 34.6 327.2 35.6C327.2 37.2 326.6 38.7 325.4 40.3C324.2 41.9 322.9 43.3 321.5 44.6C320.6 43.7 319.5 42.7 318.3 41.7C317.1 40.7 315.8 39.9 314.4 39.1C313 38.4 311.3 37.7 309.5 37.2C307.7 36.7 305.6 36.4 303.3 36.4C299.3 36.4 296 37.2 293.3 38.8C290.6 40.4 288.4 42.5 286.8 45.1C285.2 47.7 284 50.6 283.3 53.9C282.6 57.2 282.2 60.6 282.2 64C282.2 67.7 282.6 71.2 283.3 74.5C284 77.9 285.2 80.8 286.9 83.4C288.6 86 290.9 88 293.6 89.6C296.4 91.2 299.8 91.9 304 91.9C306.2 91.9 308.2 91.6 310 91.1C311.8 90.6 313.5 89.9 314.9 89.1C316.3 88.3 317.5 87.5 318.6 86.6C319.7 85.7 320.5 85 321.2 84.4C321.7 84.9 322.2 85.6 322.8 86.4C323.4 87.2 324 88 324.6 88.9C325.1 89.8 325.6 90.6 326 91.5C326.4 92.4 326.6 93.1 326.6 93.8C326.6 94.8 326.4 95.7 326 96.4C325.5 97.3 324.9 98.1 324.1 99ZM406.4 103.4H390.3V48L391.7 47.8C392.2 47.7 392.7 47.7 393.3 47.6C393.9 47.6 394.7 47.5 395.5 47.5C398 47.5 400.2 47.9 402 48.8C403.8 49.7 405 51.3 405.5 53.5C406.8 51.7 408.9 50 411.6 48.5C414.3 47 418 46.2 422.7 46.2C428.2 46.2 432.3 47.3 435 49.5C437.7 51.7 439.4 54.6 440.2 58.2C440.6 60 440.8 62 441 64.1C441.1 66.2 441.2 68.3 441.2 70.3V103.3H425.3V71C425.3 69.3 425.2 67.7 425.1 66.2C425 64.7 424.7 63.4 424.2 62.4C423.7 61.3 422.9 60.5 421.7 59.9C420.6 59.3 419 59 417 59C414.1 59 411.6 59.6 409.6 60.8C407.5 62 406.5 63.5 406.5 65.3V103.4H406.4ZM476.9 93.4C478.6 93.4 480.2 93.2 481.6 92.8C483 92.4 484.3 91.9 485.4 91.3C486.5 90.7 487.4 90.1 488.2 89.4C489 88.7 489.6 88.2 490 87.7C490.5 88.2 490.9 88.8 491.4 89.5C491.9 90.2 492.3 91 492.7 91.8C493.1 92.6 493.4 93.4 493.6 94.2C493.8 95 493.9 95.7 493.9 96.3C493.9 97.1 493.7 97.8 493.4 98.6C493.1 99.3 492.4 100.1 491.4 100.9C489.9 102 487.8 103 485.1 103.9C482.4 104.8 478.9 105.3 474.7 105.3C471.9 105.3 468.8 104.9 465.6 104.1C462.3 103.3 459.3 101.8 456.5 99.7C453.7 97.5 451.3 94.5 449.5 90.6C447.6 86.7 446.7 81.7 446.7 75.4C446.7 69.5 447.7 64.6 449.6 60.9C451.5 57.2 454 54.2 456.9 52C459.8 49.8 462.9 48.3 466.1 47.5C469.3 46.7 472.3 46.3 474.8 46.3C478.1 46.3 481.1 46.7 483.8 47.4C486.5 48.1 488.7 49 490.5 50.2C492 51.1 493 52 493.6 52.9C494.2 53.8 494.5 54.8 494.5 55.9C494.5 57 494.2 58.3 493.4 59.9C492.7 61.5 491.8 63 490.7 64.3C489.5 63 487.6 61.6 485.2 60.3C482.8 59 480.1 58.3 477.1 58.3C471.9 58.3 468.3 59.9 466.1 63C463.9 66.2 462.8 70.2 462.8 75.1C462.8 77.6 463 79.9 463.5 82.1C464 84.3 464.8 86.2 465.9 87.8C467 89.4 468.5 90.7 470.3 91.7C472 92.9 474.2 93.4 476.9 93.4ZM527.7 93.5C529.7 93.5 531.4 93.3 532.9 92.9C534.4 92.5 535.7 91.9 536.9 91.3C538.1 90.7 539.1 90 539.9 89.3C540.8 88.6 541.5 87.9 542.2 87.2C543.1 88.4 544.1 89.9 545.1 91.7C546.1 93.5 546.6 95 546.6 96.2C546.6 97.9 545.6 99.5 543.7 100.9C542.1 102.2 539.7 103.2 536.7 104.1C533.7 105 530.2 105.4 526.1 105.4C522.4 105.4 518.8 104.9 515.3 104C511.7 103.1 508.6 101.4 505.8 99.1C503 96.8 500.8 93.6 499.1 89.7C497.4 85.8 496.5 80.8 496.5 74.8C496.5 69.9 497.3 65.7 498.8 62.1C500.3 58.5 502.4 55.6 504.9 53.3C507.4 51 510.3 49.2 513.5 48.2C516.7 47.1 520 46.6 523.3 46.6C527.7 46.6 531.4 47.3 534.4 48.7C537.5 50.1 539.9 51.9 541.8 54.2C543.7 56.5 545.1 59.1 546 62.1C546.9 65.1 547.3 68.2 547.3 71.5V73.1C547.3 73.7 547.3 74.4 547.2 75.1C547.2 75.8 547.1 76.5 547.1 77.2C547.1 77.9 547 78.4 546.9 78.8H512.5C512.8 83.1 514.1 86.7 516.5 89.5C518.9 92 522.6 93.5 527.7 93.5ZM532.9 69.7C532.9 66 532.2 62.9 530.7 60.6C529.3 58.3 526.7 57.1 522.9 57.1C519.6 57.1 517 58.2 515.2 60.4C513.3 62.6 512.4 65.7 512.4 69.7H532.9ZM567.9 53.5C568.4 52.8 569 52 569.8 51.2C570.6 50.3 571.6 49.6 572.7 48.9C573.8 48.2 575 47.6 576.4 47.1C577.8 46.6 579.2 46.4 580.8 46.4C581.7 46.4 582.7 46.5 583.8 46.6C584.9 46.8 585.8 47 586.7 47.5C587.6 47.9 588.3 48.5 588.9 49.3C589.4 50 589.7 51 589.7 52.1C589.7 53.7 589.3 55.7 588.4 58C587.5 60.3 586.7 62.2 585.8 63.7C584.5 62.6 583.1 61.8 581.8 61.2C580.5 60.6 578.9 60.3 577.1 60.3C574.7 60.3 572.7 61 571 62.4C569.4 63.8 568.5 65.5 568.5 67.4V103.5H552.6V48.1L554 47.9C554.5 47.8 555 47.8 555.6 47.7C556.2 47.7 557 47.6 557.8 47.6C560.3 47.6 562.5 48.1 564.3 49.1C566.3 50 567.5 51.5 567.9 53.5ZM324.1 196.9C323.6 197.4 322.9 198 321.8 198.7C320.7 199.4 319.3 200.1 317.5 200.8C315.7 201.5 313.5 202.1 311 202.6C308.5 203.1 305.6 203.4 302.3 203.4C296 203.4 290.5 202.4 285.9 200.4C281.3 198.4 277.5 195.5 274.5 191.9C271.5 188.3 269.3 184 267.9 179C266.5 174 265.8 168.6 265.8 162.7C265.8 156.8 266.6 151.3 268.1 146.2C269.6 141.2 271.9 136.8 275 133.1C278.1 129.4 281.9 126.6 286.4 124.5C291 122.4 296.3 121.4 302.5 121.4C305.5 121.4 308.3 121.7 310.8 122.2C313.3 122.7 315.4 123.4 317.2 124.1C319 124.8 320.6 125.6 321.8 126.4C323 127.2 323.9 127.9 324.6 128.5C325.3 129.1 325.9 129.9 326.4 130.7C326.9 131.6 327.2 132.5 327.2 133.5C327.2 135.1 326.6 136.6 325.4 138.2C324.2 139.8 322.9 141.2 321.5 142.5C320.6 141.6 319.5 140.6 318.3 139.6C317.1 138.6 315.8 137.8 314.4 137C313 136.3 311.3 135.6 309.5 135.1C307.7 134.6 305.6 134.3 303.3 134.3C299.3 134.3 296 135.1 293.3 136.7C290.6 138.3 288.4 140.4 286.8 143C285.2 145.6 284 148.5 283.3 151.8C282.6 155.1 282.2 158.5 282.2 161.9C282.2 165.6 282.6 169.1 283.3 172.4C284 175.8 285.2 178.7 286.9 181.3C288.6 183.9 290.9 185.9 293.6 187.5C296.4 189.1 299.8 189.8 304 189.8C306.2 189.8 308.2 189.5 310 189C311.8 188.5 313.5 187.8 314.9 187C316.3 186.2 317.5 185.4 318.6 184.5C319.7 183.6 320.5 182.9 321.2 182.3C321.7 182.8 322.2 183.5 322.8 184.3C323.4 185.1 324 185.9 324.6 186.8C325.1 187.7 325.6 188.5 326 189.4C326.4 190.3 326.6 191 326.6 191.7C326.6 192.7 326.4 193.6 326 194.3C325.5 195.3 324.9 196.1 324.1 196.9ZM384.4 173.4C384.4 177.3 383.9 181.1 382.9 184.6C381.9 188.2 380.3 191.4 378.1 194.1C375.9 196.8 373 199 369.5 200.7C366 202.3 361.7 203.2 356.7 203.2C351.7 203.2 347.5 202.4 344 200.8C340.5 199.2 337.7 197 335.5 194.4C333.3 191.7 331.7 188.6 330.7 185C329.7 181.5 329.2 177.7 329.2 173.8C329.2 169.8 329.8 166 331 162.5C332.2 158.9 333.9 155.8 336.2 153.1C338.5 150.4 341.4 148.3 344.9 146.7C348.4 145.1 352.5 144.4 357.2 144.4C362.1 144.4 366.3 145.2 369.8 146.7C373.3 148.3 376.1 150.4 378.2 153C380.4 155.7 381.9 158.7 382.9 162.3C383.9 165.8 384.4 169.5 384.4 173.4ZM368.3 173.5C368.3 171.4 368.2 169.3 367.8 167.2C367.5 165.1 366.9 163.3 366 161.8C365.1 160.2 364 159 362.5 158C361 157 359.1 156.5 356.9 156.5C354.6 156.5 352.7 157 351.2 158C349.7 159 348.5 160.3 347.6 161.9C346.7 163.5 346.1 165.3 345.7 167.3C345.3 169.3 345.1 171.4 345.1 173.5C345.1 175.6 345.3 177.7 345.6 179.8C345.9 181.9 346.5 183.8 347.4 185.5C348.3 187.2 349.4 188.5 351 189.5C352.5 190.5 354.4 191 356.7 191C359 191 361 190.5 362.5 189.5C364 188.5 365.2 187.1 366.1 185.5C367 183.8 367.5 181.9 367.9 179.8C368.2 177.8 368.3 175.7 368.3 173.5ZM441.1 201.4H430.4C428.5 201.4 427.2 200.9 426.7 199.8C426.2 198.7 425.9 197.2 425.9 195.2C424.6 197 422.5 198.7 419.8 200.2C417.1 201.7 413.4 202.5 408.7 202.5C403.2 202.5 399 201.4 396.4 199.2C393.7 197 392 194.1 391.2 190.5C390.8 188.7 390.6 186.8 390.4 184.6C390.3 182.5 390.2 180.4 390.2 178.4V146C390.3 145.9 391 145.8 392.1 145.7C393.2 145.6 394.4 145.5 395.6 145.5C396.8 145.5 398.1 145.6 399.4 145.8C400.6 146 401.8 146.5 402.8 147.1C403.8 147.8 404.6 148.7 405.3 149.9C405.9 151.1 406.2 152.7 406.2 154.6V177.6C406.2 179.4 406.3 181 406.4 182.5C406.5 183.9 406.8 185.2 407.3 186.3C407.8 187.3 408.6 188.2 409.8 188.8C410.9 189.4 412.5 189.7 414.5 189.7C417.4 189.7 419.9 189.1 421.9 187.9C424 186.7 425 185.2 425 183.4V146C425.1 145.9 425.8 145.8 426.9 145.7C428 145.6 429.2 145.5 430.4 145.5C431.6 145.5 432.9 145.6 434.2 145.9C435.4 146.2 436.6 146.7 437.6 147.4C438.6 148.1 439.4 149.2 440.1 150.4C440.7 151.7 441 153.3 441 155.3V201.4H441.1ZM465.8 201.4H449.8V146L451.2 145.8C451.7 145.7 452.2 145.7 452.8 145.6C453.4 145.6 454.2 145.5 455 145.5C457.5 145.5 459.7 145.9 461.5 146.8C463.3 147.7 464.5 149.3 465 151.5C466.3 149.7 468.4 148 471.1 146.5C473.8 145 477.5 144.2 482.2 144.2C487.7 144.2 491.8 145.3 494.5 147.5C497.2 149.7 498.9 152.6 499.7 156.2C500.1 158 500.3 160 500.5 162.1C500.6 164.2 500.7 166.3 500.7 168.3V201.3H484.8V169C484.8 167.3 484.7 165.7 484.6 164.2C484.5 162.7 484.2 161.4 483.7 160.4C483.2 159.4 482.4 158.5 481.2 157.9C480.1 157.3 478.5 157 476.5 157C473.6 157 471.1 157.6 469.1 158.8C467 160 466 161.5 466 163.3V201.4H465.8ZM536.4 191.3C538.1 191.3 539.7 191.1 541.1 190.7C542.5 190.3 543.8 189.8 544.8 189.2C545.9 188.6 546.8 188 547.6 187.3C548.4 186.6 549 186.1 549.4 185.6C549.9 186.1 550.3 186.7 550.8 187.4C551.3 188.1 551.7 188.9 552.1 189.7C552.5 190.5 552.8 191.3 553 192.1C553.2 192.9 553.3 193.6 553.3 194.2C553.3 195 553.1 195.7 552.8 196.5C552.5 197.2 551.8 198 550.8 198.8C549.3 199.9 547.2 200.9 544.5 201.8C541.8 202.7 538.3 203.2 534.1 203.2C531.3 203.2 528.2 202.8 525 202C521.7 201.2 518.7 199.7 515.9 197.6C513.1 195.4 510.7 192.4 508.9 188.5C507 184.6 506.1 179.6 506.1 173.3C506.1 167.4 507.1 162.5 509 158.8C511 155.1 513.4 152.1 516.3 149.9C519.2 147.7 522.3 146.2 525.5 145.4C528.7 144.6 531.6 144.2 534.2 144.2C537.5 144.2 540.5 144.6 543.2 145.3C545.9 146 548.1 146.9 549.9 148.1C551.4 149 552.4 149.9 553 150.8C553.6 151.7 553.9 152.7 553.9 153.8C553.9 154.9 553.5 156.2 552.8 157.8C552.1 159.4 551.2 160.9 550.1 162.2C548.9 160.9 547 159.5 544.6 158.2C542.2 156.9 539.5 156.2 536.5 156.2C531.3 156.2 527.7 157.8 525.5 160.9C523.3 164.1 522.2 168.1 522.2 173C522.2 175.5 522.4 177.8 522.9 180C523.4 182.2 524.2 184.1 525.3 185.7C526.4 187.3 527.9 188.6 529.7 189.6C531.5 190.8 533.7 191.3 536.4 191.3ZM575.6 127.2C575.6 129.7 574.8 131.7 573.1 133.3C571.4 134.9 569.4 135.6 567.1 135.6C564.7 135.6 562.7 134.8 561 133.3C559.4 131.7 558.5 129.7 558.5 127.2C558.5 124.7 559.3 122.7 561 121.1C562.6 119.5 564.7 118.7 567.1 118.7C569.4 118.7 571.5 119.5 573.1 121.1C574.8 122.6 575.6 124.7 575.6 127.2ZM575.5 202C575.2 202.2 574.5 202.3 573.4 202.3C572.3 202.4 571.1 202.4 569.9 202.4C566.9 202.4 564.4 201.8 562.5 200.5C560.6 199.2 559.6 196.6 559.6 192.7V145.8C559.7 145.7 560.4 145.6 561.5 145.5C562.6 145.4 563.8 145.3 565 145.3C566.2 145.3 567.5 145.4 568.7 145.7C570 145.9 571.1 146.4 572.1 147C573.1 147.7 573.9 148.6 574.6 149.8C575.2 151 575.5 152.6 575.5 154.5V202ZM600 202C599.6 202.2 598.9 202.3 597.8 202.3C596.7 202.4 595.5 202.4 594.2 202.4C592.9 202.4 591.6 202.3 590.4 202C589.2 201.7 588.1 201.2 587.2 200.5C586.3 199.8 585.5 198.8 585 197.5C584.5 196.2 584.2 194.6 584.2 192.7V118.7C584.4 118.6 585 118.5 586.1 118.4C587.2 118.3 588.4 118.2 589.6 118.2C590.9 118.2 592.1 118.3 593.4 118.5C594.6 118.7 595.8 119.2 596.8 119.8C597.8 120.5 598.6 121.4 599.3 122.6C599.9 123.8 600.2 125.4 600.2 127.3V202H600ZM382 89.9V48.1L380.2 47.9C379.7 47.8 379 47.8 378.4 47.7C377.7 47.7 377.1 47.6 376.3 47.6C374 47.6 372 48.1 370.3 49C368.6 49.9 367.4 51.3 366.9 53.1C366.7 52.6 366.2 52 365.5 51.3C364.8 50.6 363.8 49.8 362.6 49.1C361.4 48.4 359.9 47.8 358.3 47.2C356.6 46.7 354.7 46.4 352.6 46.4C349.8 46.4 347 46.9 344.2 47.9C341.4 48.9 338.9 50.5 336.6 52.9C334.3 55.2 332.5 58.3 331.1 62.2C329.7 66.1 329 70.9 329 76.7C329 81.9 329.6 86.3 330.8 89.9C332 93.5 333.7 96.4 335.8 98.6C337.9 100.8 340.3 102.4 343.1 103.4C345.9 104.4 348.8 104.9 351.9 104.9C355.3 104.9 358.2 104.4 360.6 103.3C363 102.2 365 100.8 366.6 99.1C367 101.1 368.1 102.6 369.9 103.5C371.7 104.4 374 104.9 376.8 104.9C379.4 104.9 381.8 104.4 384.1 103.4C383.5 102.1 383 100.3 382.5 98C382.2 95.7 382 93 382 89.9ZM366.1 88.6C366.1 90.1 365.3 91.3 363.8 92.3C362.3 93.3 360.2 93.8 357.7 93.8C353.3 93.8 350.1 92.2 348.3 89C346.5 85.8 345.6 81.5 345.6 76.1C345.6 70.5 346.6 66.1 348.5 63.1C350.4 60 353.5 58.5 357.5 58.5C359.5 58.5 361.3 58.9 362.8 59.7C364.3 60.5 365.4 61.2 366 61.9V88.6H366.1Z" fill="black"/>
</svg>
