<svg width="40" height="17" viewBox="0 0 40 17" fill="none" xmlns="http://www.w3.org/2000/svg">
<path d="M13.8923 5.52832C13.7128 4.96096 13.4018 4.46768 12.9383 4.08984C12.0522 3.36672 11.0602 3.16128 9.97192 3.54904C9.49632 3.71808 9.13337 4.04952 8.82073 4.43784C8.78313 4.48368 8.75777 4.54336 8.67929 4.58144V3.89312C8.67873 3.12528 8.68313 2.35744 8.67545 1.5896C8.67217 1.22008 8.38601 0.917841 8.02361 0.873681C7.61977 0.824481 7.28833 1.03 7.17345 1.3968C7.13809 1.51008 7.14193 1.62496 7.14193 1.73984C7.14137 4.29752 7.14137 6.85512 7.14137 9.41336C7.14137 9.46528 7.14025 9.5172 7.14249 9.56912C7.16017 9.97016 7.50097 10.295 7.90425 10.2955C8.31857 10.2955 8.66161 9.97184 8.67705 9.56304C8.68089 9.4548 8.67761 9.34648 8.67761 9.23824C8.68865 9.23496 8.70025 9.2316 8.71129 9.22888C8.74057 9.26312 8.76985 9.29792 8.79969 9.33216C9.57857 10.253 10.5658 10.5607 11.723 10.2713C12.7831 10.0056 13.4846 9.31176 13.8565 8.29864C14.1906 7.38552 14.1862 6.45304 13.8923 5.52832ZM12.5274 6.86408C12.5357 7.21488 12.4771 7.54856 12.3429 7.86672C11.7822 9.198 10.0426 9.44328 9.13121 8.3208C8.50753 7.55296 8.46833 6.30448 9.05993 5.50624C9.51289 4.89528 10.1261 4.61192 10.8867 4.72512C11.6286 4.8356 12.107 5.28744 12.3777 5.9708C12.492 6.25808 12.5367 6.56024 12.5274 6.86408Z" fill="black"/>
<path d="M16.4707 4.47504C16.6189 4.33696 16.7358 4.188 16.8707 4.0544C17.323 3.60672 17.865 3.37544 18.5022 3.36456C18.8221 3.35912 19.1373 3.3876 19.4417 3.49024C20.2078 3.74848 20.6582 4.29632 20.8662 5.06032C20.9362 5.31736 20.9721 5.58136 20.9726 5.8476C20.9752 7.06616 20.9753 8.2848 20.9735 9.50336C20.973 9.9 20.7408 10.1966 20.3815 10.2734C19.8911 10.3782 19.4602 10.0518 19.4288 9.55096C19.4252 9.49344 19.427 9.43552 19.427 9.37776C19.427 8.40752 19.4266 7.43728 19.4271 6.46704C19.4273 6.24128 19.4162 6.0176 19.3579 5.79752C19.2028 5.212 18.8377 4.85488 18.2291 4.77936C17.6667 4.7096 17.1717 4.848 16.8088 5.31272C16.5763 5.6104 16.4836 5.96144 16.4766 6.33248C16.4676 6.80592 16.473 7.2796 16.4726 7.75312C16.4722 8.3364 16.4743 8.91976 16.4716 9.50304C16.4696 9.9296 16.2097 10.2262 15.7921 10.2874C15.3806 10.3478 14.9872 10.0466 14.9413 9.63368C14.933 9.55928 14.9326 9.48384 14.9326 9.40888C14.9321 7.71096 14.9322 6.01296 14.9323 4.31504C14.9323 4.1996 14.9306 4.08376 14.9639 3.97136C15.0714 3.60864 15.411 3.38688 15.7884 3.43256C16.1637 3.478 16.4493 3.77512 16.4698 4.14664C16.4758 4.25584 16.4707 4.3656 16.4707 4.47504Z" fill="black"/>
<path d="M1.57401 4.48528C1.68889 4.33368 1.80713 4.18536 1.94265 4.05152C2.39081 3.60904 2.92769 3.37896 3.55825 3.36464C3.91985 3.35648 4.27417 3.39488 4.61289 3.52624C5.31313 3.79768 5.72825 4.32216 5.92785 5.03096C5.99689 5.27608 6.03777 5.52744 6.03825 5.78272C6.04041 7.03608 6.04281 8.28944 6.03921 9.5428C6.03809 9.94528 5.76465 10.2369 5.36129 10.2902C4.99721 10.3382 4.63953 10.1049 4.53145 9.75104C4.50041 9.64944 4.50233 9.54576 4.50225 9.442C4.50177 8.46008 4.50185 7.47816 4.50193 6.49624C4.50193 6.28208 4.48785 6.06936 4.44241 5.85952C4.30745 5.23624 3.92513 4.866 3.29249 4.77928C2.78561 4.70984 2.32633 4.82712 1.96289 5.21088C1.72825 5.45864 1.61273 5.76424 1.56633 6.09736C1.54561 6.246 1.53825 6.39592 1.53849 6.54648C1.53993 7.51104 1.53937 8.47568 1.53889 9.44024C1.53881 9.53824 1.54225 9.63664 1.51513 9.73272C1.40441 10.1251 1.04441 10.3229 0.69881 10.2909C0.30009 10.254 0.0154509 9.9484 0.00185094 9.55792C-0.00134906 9.4656 0.000571639 9.37312 0.000571639 9.28072C0.000491639 7.62304 0.000411463 5.96536 0.000891463 4.3076C0.000891463 4.19824 -0.00174875 4.08952 0.0301712 3.98144C0.138411 3.6152 0.471772 3.38808 0.847052 3.43048C1.23401 3.47424 1.51793 3.77072 1.53601 4.15392C1.54105 4.26136 1.53681 4.36928 1.53681 4.47704C1.54913 4.47992 1.56161 4.48264 1.57401 4.48528Z" fill="black"/>
<path d="M33.473 6.87512C33.473 7.86064 32.6875 8.6456 31.7014 8.64616C30.7198 8.64616 29.9277 7.85512 29.9277 6.874C29.9277 5.894 30.7204 5.10296 31.7026 5.10352C32.6875 5.10352 33.4736 5.89016 33.473 6.87512Z" fill="black"/>
<path d="M34.5474 6.42104C34.8728 6.12664 34.833 5.6764 34.3254 5.51176C34.4491 5.31896 34.4634 5.12176 34.3231 4.93448C34.1922 4.75936 34.0105 4.70856 33.7795 4.7588C33.8022 4.53232 33.7359 4.35832 33.5481 4.24288C33.3591 4.12632 33.1735 4.16992 32.9879 4.27656C32.9786 4.04568 32.8807 3.88544 32.6791 3.80096C32.4675 3.712 32.2886 3.7932 32.1245 3.93632C32.0206 3.74024 31.8792 3.61816 31.6566 3.61872C31.4345 3.61984 31.3058 3.76288 31.1981 3.93584C31.034 3.77672 30.8556 3.72096 30.6495 3.80216C30.4418 3.88392 30.3634 4.06344 30.3297 4.27664C30.1386 4.15456 29.9574 4.13632 29.7756 4.2468C29.5878 4.36112 29.5347 4.54512 29.5364 4.75336C29.3071 4.7092 29.1243 4.7672 28.9939 4.95336C28.8641 5.1384 28.9044 5.3312 28.9934 5.52344C28.779 5.5792 28.6359 5.69472 28.5857 5.90016C28.5338 6.11176 28.6266 6.27632 28.7922 6.42104C28.5608 6.50392 28.4138 6.64424 28.4061 6.87896C28.3967 7.1364 28.5536 7.28608 28.795 7.3772C28.6149 7.52192 28.5331 7.69096 28.5894 7.90584C28.6463 8.1196 28.8093 8.2196 29.0126 8.27432C28.891 8.46216 28.8695 8.64944 28.991 8.83392C29.1192 9.02896 29.3092 9.08472 29.5423 9.04056C29.5313 9.256 29.5915 9.43496 29.7787 9.5488C29.9649 9.66208 30.1494 9.62832 30.335 9.52064C30.3604 9.74104 30.4471 9.9084 30.6515 9.99184C30.8631 10.0786 31.0421 10.0067 31.2056 9.85432C31.31 10.0521 31.4492 10.1747 31.673 10.173C31.8962 10.1719 32.0254 10.036 32.1293 9.85432C32.2911 10.0085 32.4668 10.0764 32.6745 9.99352C32.8827 9.91064 32.9761 9.74384 32.9916 9.51512C33.1838 9.63336 33.37 9.66096 33.5578 9.54496C33.7462 9.4284 33.7987 9.2472 33.7822 9.0356C34.0075 9.08752 34.1931 9.03616 34.3279 8.85328C34.4677 8.66384 34.4406 8.46712 34.3191 8.26776C34.5406 8.21912 34.6937 8.1076 34.7428 7.89216C34.792 7.67896 34.7091 7.50992 34.5323 7.37288C34.7588 7.29392 34.9079 7.16296 34.9206 6.92264C34.9342 6.65744 34.7778 6.51112 34.5474 6.42104ZM33.8199 7.60872C33.757 7.77168 33.7895 7.92528 33.8834 8.06832C33.5138 8.244 33.467 8.30752 33.4465 8.66496C33.2885 8.62464 33.141 8.64784 33.009 8.7456C32.8791 8.84168 32.8272 8.97928 32.809 9.15048C32.6637 9.08144 32.5228 9.02504 32.3637 9.07592C32.2112 9.12512 32.1146 9.2328 32.0455 9.36984C31.7329 9.1456 31.6019 9.14608 31.2937 9.366C31.0843 9.02128 30.828 8.98928 30.5242 9.15224C30.5087 8.99208 30.459 8.84896 30.3275 8.75064C30.1966 8.65232 30.0502 8.6164 29.8801 8.67328C29.905 8.34512 29.7491 8.16064 29.442 8.08112C29.5326 7.93256 29.5762 7.78448 29.5144 7.6204C29.4526 7.45576 29.3254 7.36688 29.1653 7.3116C29.4874 6.9796 29.405 6.72272 29.1642 6.4852C29.321 6.42552 29.4503 6.3388 29.5127 6.17808C29.5768 6.01344 29.5315 5.8632 29.457 5.71624C29.7702 5.608 29.8679 5.48032 29.8884 5.14448C30.2491 5.17208 30.4839 5.02568 30.5242 4.64176C30.8894 4.80912 31.0838 4.75392 31.2949 4.4164C31.3976 4.5092 31.5086 4.58544 31.655 4.58816C31.8042 4.5904 31.9202 4.52352 32.0334 4.4164C32.1158 4.54568 32.2002 4.67104 32.3544 4.71472C32.5074 4.75784 32.651 4.73128 32.7958 4.63904C32.8355 4.81744 32.8869 4.9804 33.051 5.07544C33.173 5.14672 33.3012 5.15664 33.4498 5.1268C33.4333 5.43448 33.5675 5.63448 33.8846 5.70848C33.8056 5.856 33.7526 6.00568 33.8138 6.16808C33.8741 6.32936 33.995 6.42768 34.1602 6.47744C33.8796 6.83928 33.8813 7.0028 34.1702 7.3088C34.0116 7.36344 33.8813 7.45016 33.8199 7.60872Z" fill="black"/>
<path d="M36.2406 6.88896C36.2394 6.7232 36.1428 6.6144 36.0339 6.51224C36.2626 6.22 36.225 5.9996 35.9118 5.76264C35.913 5.75216 35.9113 5.74 35.9151 5.73112C36.0615 5.4328 35.998 5.22512 35.7024 5.07704C35.6295 5.04 35.6543 5.00744 35.6665 4.95552C35.7289 4.68648 35.6162 4.48872 35.3505 4.41032C35.2831 4.3904 35.2615 4.36944 35.2638 4.29488C35.2731 3.9944 35.1489 3.84856 34.85 3.80272C34.7865 3.79336 34.7633 3.7812 34.7605 3.71264C34.7478 3.42872 34.5036 3.258 34.2683 3.3C34.1926 3.31328 34.1733 3.28344 34.1546 3.21496C34.0855 2.96144 33.88 2.84096 33.6254 2.89184C33.5883 2.8996 33.5546 2.93824 33.5088 2.90728C33.5033 2.894 33.4966 2.87912 33.4911 2.86312C33.3961 2.59904 33.0901 2.50128 32.8807 2.62504C32.8122 2.66536 32.7874 2.64104 32.7454 2.58528C32.5708 2.35216 32.3333 2.32288 32.0968 2.4952C32.0808 2.5068 32.0692 2.53552 32.041 2.52008C31.8283 2.2704 31.5301 2.2444 31.2854 2.52448C30.9954 2.31232 30.7429 2.33336 30.523 2.66096C30.3888 2.582 30.2496 2.54496 30.095 2.60184C29.9414 2.65872 29.8674 2.7852 29.811 2.92224C29.4398 2.81952 29.2564 2.92552 29.1443 3.2968C29.1333 3.29904 29.1217 3.304 29.1112 3.30344C28.7598 3.28632 28.6246 3.39128 28.5726 3.7332C28.5622 3.80112 28.5268 3.80008 28.4793 3.80224C28.2826 3.8116 28.107 3.93592 28.0606 4.17456C28.0473 4.24248 28.0628 4.31048 28.0744 4.37952C28.0446 4.38944 28.023 4.39832 28.0015 4.4044C27.7176 4.48176 27.5944 4.68168 27.6723 4.96456C27.695 5.04744 27.6613 5.05736 27.6038 5.08552C27.3597 5.20488 27.2796 5.43296 27.3873 5.67936C27.4 5.70864 27.4375 5.73128 27.4154 5.7716C27.1055 5.98376 27.0702 6.19256 27.2961 6.52456C27.1696 6.61568 27.0884 6.73776 27.0873 6.89968C27.0867 7.06208 27.1768 7.1792 27.2994 7.28136C27.189 7.40512 27.1276 7.5388 27.158 7.69896C27.1878 7.85752 27.2983 7.9564 27.4342 8.03816C27.3365 8.17792 27.3127 8.31992 27.369 8.47288C27.4259 8.62592 27.5596 8.69496 27.6917 8.75904C27.5812 9.1192 27.6823 9.2932 28.0673 9.4208C28.0319 9.77488 28.154 9.94064 28.4998 9.99032C28.5822 10.0019 28.5667 10.0489 28.5711 10.098C28.5894 10.2902 28.6915 10.4167 28.8716 10.4825C28.9611 10.515 29.0517 10.5079 29.1483 10.4836C29.1782 10.6433 29.235 10.7786 29.3776 10.8592C29.5179 10.9387 29.6626 10.931 29.8151 10.8647C29.8643 11.0294 29.9543 11.1459 30.1079 11.1978C30.2582 11.2486 30.4007 11.2138 30.5266 11.1305C30.7537 11.4553 30.9492 11.4885 31.2901 11.2708C31.3873 11.3902 31.5083 11.4735 31.6696 11.4741C31.8337 11.4752 31.948 11.379 32.0502 11.2674C32.3502 11.4856 32.5435 11.4635 32.7639 11.1818C32.8076 11.1261 32.833 11.1503 32.8766 11.1691C33.1042 11.2697 33.3214 11.2161 33.4423 11.0299C33.4733 10.9824 33.4942 10.9282 33.5197 10.8774C33.8262 10.973 34.0743 10.9145 34.1925 10.4836C34.3461 10.5338 34.4874 10.5018 34.6112 10.3996C34.7361 10.2969 34.7642 10.151 34.7714 9.9952C34.9361 9.9996 35.0681 9.95656 35.1714 9.83944C35.2813 9.71512 35.2741 9.56488 35.263 9.41792C35.627 9.31024 35.7238 9.16048 35.6536 8.80864C35.6426 8.75344 35.6619 8.73464 35.7038 8.72024C35.8187 8.67992 35.9027 8.60424 35.953 8.49376C36.0248 8.338 35.9955 8.18992 35.8972 8.03416C36.0419 7.95184 36.1474 7.85184 36.1718 7.68728C36.1961 7.52656 36.1309 7.39672 36.0326 7.27464C36.1649 7.17456 36.2417 7.05576 36.2406 6.88896ZM35.2816 7.46672C35.2418 7.5888 35.2495 7.70592 35.3131 7.81752C35.3358 7.85728 35.3462 7.88768 35.2971 7.91696C35.0657 8.05728 35.0364 8.2644 35.1121 8.49696C35.085 8.534 35.0469 8.53448 35.017 8.55056C34.848 8.64112 34.7607 8.78088 34.7756 8.97424C34.7811 9.0444 34.7811 9.0836 34.6922 9.1052C34.4927 9.15488 34.3801 9.29416 34.3651 9.50184C34.3607 9.56264 34.3518 9.5952 34.2801 9.59904C34.0376 9.61232 33.9022 9.7476 33.8619 9.98408C33.8602 9.994 33.8492 10.0023 33.841 10.0145C33.5907 9.97192 33.4002 10.0504 33.2985 10.2968C33.2819 10.3371 33.2587 10.3487 33.2184 10.3349C32.9615 10.2459 32.7842 10.3564 32.651 10.5735C32.6052 10.5526 32.5654 10.5304 32.5234 10.5155C32.3401 10.4503 32.1826 10.4956 32.0511 10.6348C32.0163 10.6718 31.9954 10.6956 31.9406 10.653C31.7583 10.5094 31.57 10.5116 31.386 10.6536C31.3457 10.6851 31.3225 10.6829 31.2871 10.6447C31.112 10.4558 30.9115 10.4403 30.6977 10.5668C30.6551 10.5668 30.6513 10.532 30.6358 10.5099C30.5138 10.3321 30.348 10.2669 30.1403 10.3243C30.0823 10.3403 30.0542 10.3447 30.0205 10.279C29.9017 10.0437 29.7625 9.97856 29.4996 10.0166C29.4559 9.994 29.467 9.94648 29.4554 9.91056C29.3946 9.72712 29.2721 9.61664 29.0798 9.6012C28.992 9.594 28.965 9.56808 28.9594 9.47968C28.9462 9.2852 28.8296 9.16592 28.6495 9.10456C28.6175 9.09352 28.5838 9.08744 28.5484 9.07856C28.5429 9.00512 28.5678 8.9388 28.5534 8.8692C28.5218 8.71616 28.4385 8.6068 28.297 8.54328C28.2534 8.52392 28.2059 8.514 28.2274 8.44936C28.3147 8.19248 28.2054 8.01568 27.9844 7.88152C28.1363 7.63184 28.0926 7.4164 27.8695 7.2308C28.0546 7.01208 28.0646 6.79272 27.8789 6.57952C27.8817 6.54696 27.9026 6.53536 27.9186 6.51872C28.0882 6.34856 28.1181 6.2072 28.0198 5.98728C27.9927 5.92704 27.9971 5.90224 28.0523 5.86576C28.2313 5.74696 28.2987 5.58016 28.2346 5.37192C28.2153 5.30896 28.2269 5.27968 28.2871 5.25312C28.4938 5.1636 28.581 5.00232 28.5501 4.78136C28.5407 4.7156 28.5678 4.70512 28.6208 4.69296C28.8324 4.64432 28.9495 4.51008 28.9622 4.29304C28.966 4.22784 28.9865 4.20576 29.0533 4.2008C29.2676 4.18536 29.4068 4.06936 29.4598 3.8616C29.4764 3.7964 29.5007 3.78208 29.5648 3.7876C29.7869 3.80752 29.9449 3.7136 30.0282 3.5048C30.0476 3.4556 30.0697 3.45064 30.1194 3.46448C30.3386 3.52744 30.5187 3.47224 30.643 3.27392C30.6706 3.22976 30.6966 3.22528 30.7414 3.24848C30.9739 3.37 31.1639 3.3004 31.3314 3.10544C31.4418 3.1916 31.559 3.25792 31.707 3.24296C31.8169 3.23192 31.9036 3.18168 31.9821 3.112C32.0152 3.11424 32.0307 3.1396 32.05 3.16008C32.2002 3.31472 32.3754 3.35008 32.5704 3.2584C32.6251 3.23248 32.6571 3.22192 32.6969 3.28328C32.8338 3.49648 33.0306 3.52744 33.257 3.45232C33.2913 3.46064 33.2952 3.49264 33.3062 3.51752C33.3913 3.70808 33.5377 3.80368 33.7449 3.78768C33.8327 3.78104 33.8592 3.80424 33.8818 3.88984C33.9332 4.08376 34.0758 4.1848 34.2741 4.19976C34.337 4.20472 34.3614 4.21856 34.3658 4.28816C34.3796 4.50248 34.4939 4.64168 34.705 4.69144C34.7597 4.70472 34.7856 4.72016 34.7784 4.78152C34.7486 5.03896 34.8718 5.19856 35.1038 5.282C35.1182 5.30848 35.1076 5.32896 35.101 5.35104C35.0402 5.5632 35.0888 5.7388 35.2761 5.86592C35.317 5.89352 35.3506 5.91176 35.3175 5.97312C35.1949 6.20344 35.2639 6.39512 35.4601 6.56472C35.2739 6.78456 35.2722 7.01 35.4606 7.23096C35.3849 7.30264 35.3131 7.36952 35.2816 7.46672Z" fill="black"/>
<path d="M22.9806 2.10592C22.8819 2.25424 22.7846 2.4036 22.6841 2.55064C22.5783 2.70536 22.5074 2.70512 22.401 2.5504C22.3002 2.40392 22.2022 2.2556 22.103 2.10808C22.0451 2.13976 22.0694 2.18504 22.0689 2.22016C22.0662 2.42784 22.0678 2.6356 22.0673 2.84328C22.0672 2.8836 22.0676 2.92432 22.0623 2.96408C22.0536 3.02968 22.0148 3.0684 21.9472 3.07032C21.8729 3.07248 21.8275 3.03448 21.8151 2.96136C21.8103 2.9332 21.812 2.90384 21.812 2.87504C21.8118 2.50576 21.8123 2.13648 21.8115 1.7672C21.8114 1.6832 21.8128 1.60184 21.9142 1.5732C21.9988 1.54928 22.0554 1.5776 22.124 1.68328C22.2338 1.85264 22.3402 2.02424 22.4502 2.19344C22.4778 2.23584 22.4945 2.28824 22.5579 2.3212C22.6808 2.13016 22.8039 1.9384 22.9275 1.74696C22.9557 1.70344 22.9834 1.65936 23.0152 1.61856C23.0609 1.56008 23.1256 1.55912 23.1889 1.5768C23.2537 1.59488 23.2753 1.64808 23.2753 1.71096C23.2753 2.12064 23.2768 2.53032 23.2732 2.93992C23.2724 3.02768 23.219 3.07384 23.1463 3.07264C23.0745 3.07136 23.0226 3.0232 23.021 2.93712C23.0167 2.72368 23.0191 2.51016 23.0189 2.29672C23.0188 2.23544 23.0189 2.17424 23.0189 2.11296C23.0062 2.11072 22.9934 2.10832 22.9806 2.10592Z" fill="black"/>
<path d="M26.5253 5.522C26.5579 5.56928 26.617 5.56088 26.6615 5.58664C26.8543 5.69864 26.9431 5.91224 26.8745 6.1188C26.8065 6.32344 26.5947 6.45608 26.3869 6.42424C26.1817 6.3928 26.0146 6.19888 26.0107 5.98752C26.0067 5.7728 26.1571 5.58992 26.3754 5.5464C26.426 5.53632 26.4778 5.53224 26.5291 5.52536L26.5253 5.522Z" fill="black"/>
<path d="M27.3967 9.88504C27.3418 9.88816 27.306 9.9312 27.2586 9.95064C27.0518 10.0355 26.8171 9.95984 26.7032 9.76976C26.5918 9.58392 26.629 9.35008 26.7928 9.20672C26.9569 9.06312 27.1919 9.0596 27.362 9.19832C27.5354 9.33968 27.5754 9.57696 27.4614 9.77328C27.439 9.81192 27.3931 9.83672 27.393 9.88832L27.3967 9.88504Z" fill="black"/>
<path d="M35.9902 9.92336C36.0215 9.96376 36.0549 10.0026 36.0836 10.0447C36.2104 10.2307 36.1813 10.4758 36.0158 10.6266C35.8581 10.7702 35.6118 10.778 35.4434 10.6446C35.2749 10.5113 35.2266 10.2714 35.3303 10.0838C35.4354 9.89384 35.6559 9.80936 35.8646 9.87976C35.908 9.8944 35.9508 9.91096 35.9939 9.92664L35.9902 9.92336Z" fill="black"/>
<path d="M31.2101 1.64736C31.2197 1.5964 31.2263 1.54472 31.2394 1.49472C31.292 1.29336 31.488 1.15048 31.6905 1.16384C31.9033 1.17784 32.0814 1.34736 32.1066 1.55968C32.1318 1.7728 32.0004 1.96944 31.7891 2.03456C31.5905 2.09576 31.374 2.00616 31.2766 1.81816C31.2479 1.76296 31.2303 1.702 31.2077 1.64368L31.2101 1.64736Z" fill="black"/>
<path d="M33.9147 11.8649C33.9156 12.1118 33.7257 12.3081 33.4823 12.3119C33.2318 12.3158 33.0327 12.1155 33.0354 11.8622C33.0379 11.6186 33.2358 11.4214 33.4767 11.4222C33.7175 11.423 33.9138 11.6214 33.9147 11.8649Z" fill="black"/>
<path d="M27.9758 10.599C28.0631 10.5562 28.1467 10.5079 28.2502 10.5077C28.453 10.5072 28.6174 10.6191 28.6832 10.8114C28.7462 10.9954 28.6782 11.2002 28.5164 11.3132C28.3653 11.4188 28.1464 11.4158 27.9995 11.3062C27.8404 11.1874 27.7775 10.9862 27.8459 10.8002C27.8655 10.7469 27.8974 10.6981 27.9238 10.6473C27.9315 10.6209 27.9488 10.6046 27.9758 10.599Z" fill="black"/>
<path d="M35.3798 3.19504C35.3194 3.1988 35.2772 3.244 35.2234 3.2632C35.0252 3.33392 34.8073 3.26152 34.6941 3.08592C34.583 2.9136 34.6098 2.67592 34.7564 2.532C34.9081 2.38312 35.1331 2.36016 35.3102 2.47536C35.4848 2.58904 35.5539 2.8064 35.4808 3.00584C35.4632 3.05376 35.4246 3.094 35.4278 3.14952C35.4303 3.18416 35.415 3.20016 35.3798 3.19504Z" fill="black"/>
<path d="M27.9758 10.599C27.9585 10.6151 27.9411 10.6312 27.9238 10.6474C27.8799 10.6452 27.8502 10.6771 27.8142 10.6934C27.6013 10.79 27.3743 10.733 27.2466 10.5504C27.1221 10.3722 27.1519 10.1293 27.3161 9.96856C27.3436 9.9416 27.39 9.93208 27.3967 9.88504L27.3931 9.8884C27.4353 9.90176 27.4705 9.87616 27.5089 9.86816C27.6873 9.8312 27.8399 9.88087 27.9552 10.0204C28.0662 10.1547 28.085 10.3083 28.0208 10.4717C28.0043 10.5135 27.9693 10.549 27.9758 10.599Z" fill="black"/>
<path d="M35.3798 3.19504C35.3958 3.17984 35.4118 3.16472 35.4278 3.14952C35.491 3.122 35.5518 3.08512 35.6178 3.06856C35.8054 3.02144 35.9953 3.10392 36.0955 3.26728C36.197 3.43256 36.1834 3.6308 36.0585 3.7828C36.0261 3.82224 35.9893 3.85816 35.9545 3.89568L35.9579 3.89216C35.8846 3.90216 35.8179 3.93736 35.7417 3.93992C35.4046 3.9512 35.18 3.62472 35.3156 3.316C35.3338 3.27424 35.3582 3.23528 35.3798 3.19504Z" fill="black"/>
<path d="M32.5775 2.12952C32.3258 2.12632 32.1334 1.92456 32.1394 1.67008C32.145 1.43312 32.3519 1.24352 32.598 1.24992C32.8428 1.25624 33.0334 1.45576 33.0274 1.69952C33.0215 1.94288 32.823 2.13264 32.5775 2.12952Z" fill="black"/>
<path d="M36.947 6.45496C37.1986 6.454 37.4042 6.65568 37.4026 6.9016C37.401 7.14168 37.2011 7.3384 36.9577 7.3396C36.7138 7.34088 36.5162 7.14656 36.5138 6.9032C36.5114 6.66136 36.71 6.45584 36.947 6.45496Z" fill="black"/>
<path d="M26.5311 7.39168C26.7365 7.41456 26.8434 7.54536 26.8871 7.73224C26.9291 7.912 26.8564 8.05544 26.7204 8.17224C26.6825 8.2048 26.6256 8.21024 26.5994 8.25864L26.6033 8.25616C26.5458 8.25736 26.4881 8.26248 26.4308 8.2592C26.2013 8.24576 26.0207 8.06168 26.0108 7.83416C26.0011 7.61176 26.1492 7.4344 26.3806 7.3912C26.4309 7.37112 26.481 7.37 26.5311 7.39168Z" fill="black"/>
<path d="M27.3216 3.85728C27.3519 3.89096 27.3829 3.92408 27.4123 3.95848C27.5586 4.12928 27.5654 4.36 27.4298 4.53064C27.3013 4.69232 27.0634 4.7452 26.882 4.6524C26.6913 4.55488 26.5962 4.32864 26.66 4.12424C26.726 3.91296 26.9159 3.79008 27.1414 3.81768C27.2034 3.82528 27.264 3.84608 27.3252 3.8608L27.3216 3.85728Z" fill="black"/>
<path d="M26.5291 5.52536C26.5054 5.4744 26.4489 5.46528 26.4106 5.43232C26.2433 5.28848 26.2001 5.05528 26.3089 4.8684C26.418 4.68104 26.6459 4.59888 26.8484 4.67392C27.0446 4.74672 27.1648 4.9528 27.1298 5.1564C27.0913 5.37976 26.9238 5.5252 26.6982 5.52872C26.6406 5.5296 26.5829 5.52432 26.5252 5.52192L26.5291 5.52536Z" fill="black"/>
<path d="M35.9939 9.92672C35.909 9.82096 35.8129 9.72456 35.8069 9.57312C35.795 9.2724 36.0466 9.0508 36.3426 9.1088C36.3762 9.11536 36.4098 9.12192 36.4434 9.12856L36.44 9.12552C36.579 9.2328 36.6938 9.35152 36.6894 9.5468C36.6828 9.84432 36.4059 10.0503 36.1195 9.9648C36.0761 9.95184 36.0332 9.9372 35.99 9.92336C35.9902 9.92336 35.9939 9.92672 35.9939 9.92672Z" fill="black"/>
<path d="M37.3162 5.97512C37.3186 6.2208 37.1235 6.42544 36.8871 6.42544C36.6312 6.42544 36.4356 6.23128 36.4364 5.97792C36.4371 5.73408 36.6345 5.53488 36.8747 5.53544C37.1198 5.53592 37.3139 5.72936 37.3162 5.97512Z" fill="black"/>
<path d="M36.4379 4.68744C36.3805 4.68976 36.323 4.69192 36.2656 4.69432C36.0802 4.70208 35.939 4.62424 35.8544 4.46184C35.7706 4.30088 35.7842 4.13992 35.8882 3.98808C35.9106 3.95536 35.9505 3.93536 35.9579 3.892L35.9545 3.89552C36.0447 3.8608 36.1292 3.81216 36.2318 3.8124C36.4247 3.81272 36.5655 3.89816 36.6452 4.06896C36.7252 4.2404 36.6966 4.404 36.5738 4.5504C36.5377 4.59344 36.4766 4.61528 36.4645 4.67864C36.4596 4.69344 36.451 4.69704 36.4379 4.68744Z" fill="black"/>
<path d="M34.7056 11.239C34.7141 11.3187 34.7527 11.3914 34.7515 11.4747C34.7484 11.692 34.6174 11.8604 34.4037 11.9102C34.2096 11.9554 34.0022 11.8565 33.9117 11.6757C33.8226 11.4975 33.8702 11.2721 34.0245 11.141C34.1858 11.004 34.4146 10.9986 34.5821 11.1299C34.6266 11.1647 34.6669 11.2049 34.7091 11.2426L34.7056 11.239Z" fill="black"/>
<path d="M27.3252 3.8608C27.317 3.81136 27.2711 3.78864 27.2462 3.75056C27.1269 3.56768 27.15 3.33008 27.3047 3.18088C27.4599 3.0312 27.705 3.01448 27.8759 3.14176C28.0494 3.27096 28.1059 3.508 28.009 3.69904C27.909 3.89576 27.6769 3.98928 27.4643 3.91664C27.4157 3.9 27.3691 3.8772 27.3216 3.85728L27.3252 3.8608Z" fill="black"/>
<path d="M34.7093 11.2426C34.6915 11.2005 34.6726 11.1589 34.6562 11.1162C34.5751 10.9039 34.6563 10.6719 34.8491 10.563C35.0362 10.4574 35.2779 10.5037 35.4115 10.6706C35.5473 10.8404 35.5417 11.0791 35.3981 11.2426C35.2522 11.4087 35.0083 11.4382 34.8169 11.316C34.7786 11.2916 34.7562 11.2447 34.7057 11.2389L34.7093 11.2426Z" fill="black"/>
<path d="M31.2077 1.64368C31.1969 1.694 31.1872 1.74456 31.1752 1.79456C31.1238 2.008 30.9373 2.14288 30.7135 2.12928C30.4986 2.11624 30.3219 1.944 30.3046 1.73064C30.287 1.51376 30.429 1.3108 30.6328 1.2616C30.8481 1.20968 31.0594 1.31232 31.1518 1.50776C31.1735 1.55368 31.1605 1.61368 31.21 1.64728L31.2077 1.64368Z" fill="black"/>
<path d="M36.4379 4.68744C36.4488 4.6908 36.4578 4.68792 36.4645 4.67864C36.5647 4.64016 36.6681 4.63712 36.7694 4.66616C36.9568 4.71992 37.0806 4.89712 37.0775 5.09664C37.0746 5.28784 36.951 5.45864 36.7741 5.51592C36.5874 5.5764 36.3706 5.49528 36.2616 5.32424C36.1596 5.16424 36.1726 4.95688 36.2944 4.80968C36.335 4.76072 36.3838 4.7208 36.4379 4.68744Z" fill="black"/>
<path d="M36.4434 9.12856C36.4218 9.08488 36.3748 9.06952 36.3422 9.03784C36.2054 8.9052 36.1598 8.74768 36.2185 8.56632C36.276 8.38832 36.4292 8.27552 36.619 8.26376C36.6648 8.26088 36.711 8.26312 36.757 8.26296L36.7532 8.26008C36.801 8.28896 36.8517 8.31416 36.8962 8.34744C37.0556 8.46624 37.1098 8.62984 37.0633 8.81712C37.0205 8.9896 36.9125 9.10816 36.723 9.12944C36.671 9.15272 36.6188 9.14768 36.5663 9.13128C36.5242 9.12936 36.4822 9.12744 36.4402 9.1256L36.4434 9.12856Z" fill="black"/>
<path d="M26.8135 6.90672C26.8097 7.15464 26.6174 7.34216 26.3696 7.33968C26.1238 7.33712 25.9326 7.14376 25.933 6.89792C25.9334 6.64664 26.1322 6.45288 26.3876 6.45496C26.625 6.45688 26.8173 6.6608 26.8135 6.90672Z" fill="black"/>
<path d="M36.9382 7.38984C37.1765 7.42624 37.3189 7.58968 37.3162 7.8236C37.3136 8.04856 37.1487 8.23368 36.9259 8.25768C36.8689 8.26384 36.8106 8.25952 36.753 8.26L36.7568 8.26288C36.7256 8.21768 36.669 8.21416 36.6276 8.18472C36.4783 8.0788 36.4052 7.89784 36.4436 7.7184C36.4814 7.54184 36.617 7.42088 36.8115 7.39016C36.8537 7.3724 36.8959 7.37328 36.9382 7.38984Z" fill="black"/>
<path d="M26.6185 9.13104C26.4181 9.09368 26.2835 8.9636 26.2534 8.7784C26.2245 8.6008 26.3084 8.42128 26.467 8.32632C26.5107 8.30016 26.5576 8.27944 26.6031 8.25616L26.5993 8.25864C26.684 8.26752 26.7695 8.25952 26.8524 8.29272C27.1081 8.39504 27.217 8.69936 27.073 8.93216C27.0055 9.04112 26.898 9.09968 26.775 9.12992C26.723 9.15192 26.6707 9.1484 26.6185 9.13104Z" fill="black"/>
<path d="M20.7986 2.41528C20.7986 2.2536 20.7938 2.09176 20.8005 1.9304C20.8044 1.83632 20.7674 1.80856 20.6799 1.81488C20.6053 1.82024 20.5297 1.8192 20.4548 1.8148C20.3611 1.80928 20.3156 1.76712 20.3157 1.69544C20.3158 1.62416 20.3626 1.5752 20.4533 1.57424C20.7709 1.57096 21.0885 1.57088 21.4061 1.57456C21.4949 1.5756 21.5422 1.62856 21.5367 1.70136C21.5309 1.77816 21.4829 1.8128 21.4099 1.8148C21.3349 1.81688 21.2598 1.81472 21.1847 1.81624C21.061 1.81872 21.0584 1.81928 21.0578 1.93904C21.0562 2.23344 21.0574 2.52784 21.057 2.82232C21.057 2.86848 21.0586 2.91504 21.0534 2.96064C21.0448 3.03608 20.995 3.07304 20.9229 3.07104C20.8501 3.06896 20.8025 3.02816 20.8009 2.95208C20.7978 2.80784 20.7991 2.66344 20.7986 2.51912C20.7986 2.48456 20.7986 2.44992 20.7986 2.41528Z" fill="black"/>
<path d="M25.208 9.102C25.2113 8.88992 25.3906 8.7176 25.6001 8.72512C25.8116 8.7328 25.9779 8.91216 25.9703 9.12456C25.963 9.32832 25.7905 9.49368 25.5862 9.49248C25.375 9.49128 25.2047 9.31552 25.208 9.102Z" fill="black"/>
<path d="M25.2081 4.68688C25.2081 4.47112 25.3774 4.30464 25.5942 4.30728C25.8021 4.30984 25.9669 4.47312 25.9704 4.68024C25.9741 4.89352 25.8044 5.06848 25.5921 5.0704C25.3786 5.0724 25.208 4.902 25.2081 4.68688Z" fill="black"/>
<path d="M37.2675 10.513C37.0525 10.5138 36.8857 10.3448 36.8872 10.1276C36.8886 9.91736 37.049 9.7536 37.2571 9.74984C37.4716 9.74592 37.6466 9.91352 37.6498 10.1258C37.6529 10.3367 37.4796 10.5122 37.2675 10.513Z" fill="black"/>
<path d="M37.0001 2.75C36.9976 2.96296 36.8222 3.132 36.6098 3.1264C36.4058 3.12104 36.2384 2.95032 36.2374 2.74688C36.2364 2.53224 36.4053 2.36416 36.6214 2.3648C36.8381 2.36536 37.0026 2.53272 37.0001 2.75Z" fill="black"/>
<path d="M37.7538 6.90088C37.7532 6.68224 37.9167 6.52008 38.1366 6.5212C38.344 6.52232 38.5114 6.68512 38.5162 6.89016C38.5211 7.09992 38.3489 7.2792 38.1385 7.28352C37.9286 7.28784 37.7543 7.11456 37.7538 6.90088Z" fill="black"/>
<path d="M38.4158 8.0232C38.4148 8.23792 38.2439 8.40456 38.0277 8.40168C37.8195 8.39896 37.6558 8.2352 37.6534 8.02744C37.651 7.81168 37.8181 7.64008 38.0321 7.63864C38.244 7.6372 38.4167 7.81032 38.4158 8.0232Z" fill="black"/>
<path d="M36.2027 1.9496C36.2014 2.16384 36.0289 2.33312 35.8155 2.3296C35.612 2.32624 35.443 2.15664 35.44 1.95296C35.437 1.7392 35.6055 1.56832 35.8206 1.56712C36.037 1.566 36.204 1.7332 36.2027 1.9496Z" fill="black"/>
<path d="M37.3646 4.69224C37.3623 4.4748 37.5275 4.30672 37.7435 4.30696C37.9554 4.3072 38.1308 4.48248 38.1286 4.69168C38.1264 4.8928 37.9557 5.06464 37.7529 5.06992C37.5396 5.07544 37.367 4.90752 37.3646 4.69224Z" fill="black"/>
<path d="M34.9015 12.8762C34.6821 12.8773 34.5189 12.7138 34.5203 12.4943C34.5216 12.2868 34.6846 12.1184 34.8898 12.1126C35.0973 12.1067 35.2789 12.281 35.2842 12.4911C35.2896 12.7002 35.1156 12.8753 34.9015 12.8762Z" fill="black"/>
<path d="M25.2898 6.15392C25.0703 6.15128 24.9134 5.9864 24.9194 5.7648C24.9249 5.55816 25.0923 5.39216 25.2954 5.39192C25.5027 5.3916 25.6799 5.57016 25.6798 5.77912C25.6797 5.98928 25.5058 6.15656 25.2898 6.15392Z" fill="black"/>
<path d="M25.2071 6.52128C25.4138 6.5244 25.5814 6.69056 25.5836 6.89464C25.5859 7.10296 25.4094 7.282 25.2 7.2836C24.9896 7.2852 24.8193 7.1116 24.8201 6.8964C24.821 6.678 24.9862 6.51792 25.2071 6.52128Z" fill="black"/>
<path d="M36.2027 11.8548C36.2014 12.0666 36.024 12.2406 35.8146 12.2357C35.6127 12.2309 35.4429 12.0589 35.4398 11.8562C35.4366 11.6427 35.6065 11.4718 35.8218 11.4716C36.04 11.4715 36.2042 11.6366 36.2027 11.8548Z" fill="black"/>
<path d="M27.0911 11.0596C27.0882 11.273 26.9102 11.4456 26.7011 11.4378C26.4974 11.4303 26.3289 11.259 26.3262 11.0568C26.3235 10.8472 26.4981 10.675 26.7129 10.6755C26.9339 10.676 27.0942 10.8387 27.0911 11.0596Z" fill="black"/>
<path d="M37.0002 11.0498C37.0022 11.2622 36.8308 11.4382 36.6207 11.4394C36.4135 11.4404 36.2363 11.2611 36.2373 11.0514C36.2382 10.8449 36.4014 10.6811 36.6103 10.677C36.8298 10.6728 36.9981 10.8337 37.0002 11.0498Z" fill="black"/>
<path d="M37.3637 9.10792C37.3642 8.89368 37.5378 8.72072 37.7485 8.72464C37.9508 8.7284 38.1222 8.8988 38.1274 9.10128C38.1327 9.30808 37.9552 9.49064 37.7465 9.49312C37.5352 9.49576 37.3632 9.32256 37.3637 9.10792Z" fill="black"/>
<path d="M26.069 10.5119C25.8538 10.5141 25.6858 10.3466 25.6859 10.1301C25.6861 9.91976 25.8446 9.75544 26.0526 9.75C26.266 9.7444 26.4437 9.91096 26.4498 10.1224C26.456 10.3301 26.2803 10.5098 26.069 10.5119Z" fill="black"/>
<path d="M37.2731 4.04472C37.0545 4.04872 36.8881 3.88632 36.8872 3.66792C36.8863 3.46024 37.0463 3.29072 37.2512 3.28224C37.4588 3.2736 37.643 3.44592 37.6498 3.65488C37.6567 3.86672 37.4886 4.0408 37.2731 4.04472Z" fill="black"/>
<path d="M38.4158 5.78224C38.4131 5.99632 38.2417 6.15888 38.0236 6.15408C37.8149 6.14952 37.654 5.986 37.6532 5.77784C37.6525 5.56624 37.827 5.39056 38.0366 5.392C38.2467 5.39336 38.4184 5.57008 38.4158 5.78224Z" fill="black"/>
<path d="M25.2994 8.40168C25.0834 8.4032 24.9179 8.23648 24.9191 8.01872C24.9203 7.80848 25.0796 7.64352 25.2862 7.63872C25.4985 7.63376 25.6749 7.80224 25.6791 8.014C25.6834 8.22584 25.5126 8.40016 25.2994 8.40168Z" fill="black"/>
<path d="M34.9018 1.67944C34.6837 1.68056 34.5191 1.51584 34.5202 1.29744C34.5213 1.08968 34.6832 0.922883 34.8894 0.917283C35.0989 0.911603 35.279 1.08328 35.2844 1.29384C35.2897 1.50256 35.1153 1.67832 34.9018 1.67944Z" fill="black"/>
<path d="M36.5847 1.36056C36.4186 1.36448 36.2733 1.22264 36.2738 1.0572C36.2742 0.899681 36.4115 0.760401 36.5708 0.755921C36.7361 0.751201 36.882 0.89416 36.8818 1.06056C36.8816 1.21848 36.7446 1.35688 36.5847 1.36056Z" fill="black"/>
<path d="M24.4411 8.23096C24.4385 8.39064 24.3022 8.52712 24.1426 8.53C23.9794 8.53296 23.8322 8.38448 23.8357 8.22072C23.8391 8.06232 23.9787 7.92304 24.1355 7.92168C24.3013 7.92016 24.4439 8.06456 24.4411 8.23096Z" fill="black"/>
<path d="M35.7853 13.508C35.7891 13.6764 35.6656 13.8075 35.4983 13.8126C35.3279 13.8178 35.1965 13.698 35.1892 13.5308C35.1815 13.3547 35.31 13.2175 35.4841 13.2158C35.6501 13.2142 35.7814 13.3416 35.7853 13.508Z" fill="black"/>
<path d="M24.4806 9.81408C24.3236 9.81232 24.1824 9.67296 24.1799 9.51744C24.1774 9.35208 24.3218 9.2072 24.4866 9.21C24.6449 9.21264 24.7837 9.35 24.7866 9.50688C24.7898 9.67152 24.6458 9.81592 24.4806 9.81408Z" fill="black"/>
<path d="M25.8165 11.5124C25.99 11.5152 26.1174 11.6502 26.1105 11.8238C26.1041 11.9851 25.969 12.1117 25.8055 12.1095C25.6332 12.1072 25.5074 11.9719 25.5142 11.7962C25.5206 11.6289 25.6475 11.5097 25.8165 11.5124Z" fill="black"/>
<path d="M39.1477 9.51C39.1483 9.67784 39.0064 9.81856 38.841 9.81408C38.6802 9.80968 38.5508 9.67599 38.5502 9.51351C38.5495 9.34287 38.6872 9.20528 38.8546 9.20952C39.0146 9.21344 39.147 9.34912 39.1477 9.51Z" fill="black"/>
<path d="M38.2836 11.0219C38.117 11.0199 37.9823 10.8766 37.988 10.7075C37.9935 10.5449 38.1293 10.4127 38.2882 10.4154C38.4536 10.4181 38.592 10.5639 38.5864 10.7295C38.581 10.8881 38.4406 11.0238 38.2836 11.0219Z" fill="black"/>
<path d="M39.169 8.52936C39.003 8.514 38.8819 8.36448 38.897 8.19376C38.911 8.03528 39.0602 7.90944 39.2171 7.92392C39.3828 7.93912 39.5084 8.09256 39.4914 8.25888C39.4752 8.41624 39.3234 8.54368 39.169 8.52936Z" fill="black"/>
<path d="M39.6004 6.92032C39.591 7.08552 39.4594 7.20288 39.2904 7.19664C39.1174 7.19024 38.993 7.05208 39.0038 6.87824C39.0138 6.71744 39.153 6.5928 39.3152 6.59936C39.4854 6.60624 39.6103 6.7468 39.6004 6.92032Z" fill="black"/>
<path d="M25.0524 11.0219C24.8914 11.0251 24.7548 10.8922 24.751 10.7282C24.747 10.563 24.873 10.4236 25.0334 10.4157C25.1984 10.4076 25.3455 10.5498 25.3463 10.718C25.347 10.8797 25.2125 11.0187 25.0524 11.0219Z" fill="black"/>
<path d="M24.3189 6.89968C24.3195 7.07032 24.1962 7.1956 24.026 7.19712C23.8576 7.19864 23.7266 7.07424 23.7216 6.90808C23.7165 6.73952 23.8563 6.59784 24.0263 6.5992C24.192 6.60056 24.3182 6.73016 24.3189 6.89968Z" fill="black"/>
<path d="M24.1466 5.27544C24.3081 5.27872 24.4407 5.41248 24.4413 5.57272C24.4418 5.7396 24.3002 5.87592 24.1306 5.87208C23.9683 5.8684 23.8352 5.73416 23.8351 5.57424C23.835 5.40728 23.976 5.27208 24.1466 5.27544Z" fill="black"/>
<path d="M37.8228 11.8106C37.823 11.9692 37.6892 12.105 37.5282 12.1095C37.3602 12.1142 37.2159 11.9758 37.2162 11.8104C37.2164 11.6438 37.3574 11.5096 37.5286 11.5131C37.6894 11.5164 37.8226 11.6511 37.8228 11.8106Z" fill="black"/>
<path d="M36.8815 12.7474C36.8836 12.9076 36.7525 13.0438 36.5912 13.0489C36.421 13.0542 36.2766 12.9202 36.2752 12.7556C36.2738 12.5897 36.4154 12.4502 36.583 12.4522C36.7434 12.4542 36.8794 12.5887 36.8815 12.7474Z" fill="black"/>
<path d="M35.792 0.297202C35.792 0.468962 35.6562 0.602083 35.4854 0.597603C35.3249 0.593443 35.1943 0.458802 35.1939 0.297122C35.1935 0.125362 35.3278 -0.00375655 35.5028 8.34518e-05C35.6715 0.00376345 35.792 0.127523 35.792 0.297202Z" fill="black"/>
<path d="M36.9969 13.544C36.993 13.4224 37.0843 13.323 37.2053 13.3171C37.3329 13.311 37.4422 13.4123 37.441 13.5359C37.4399 13.651 37.3363 13.7562 37.2215 13.7586C37.1057 13.7611 37.0006 13.6607 36.9969 13.544Z" fill="black"/>
<path d="M39.1798 11.4119C39.0605 11.4078 38.9667 11.3086 38.9678 11.1874C38.969 11.0665 39.0661 10.9684 39.185 10.9681C39.3089 10.9678 39.4166 11.0801 39.4086 11.2014C39.401 11.3201 39.2969 11.4159 39.1798 11.4119Z" fill="black"/>
<path d="M38.3052 12.6671C38.1819 12.6666 38.0846 12.5741 38.0808 12.4541C38.077 12.3322 38.1878 12.2233 38.3117 12.227C38.4293 12.2304 38.5255 12.3327 38.5238 12.4524C38.5221 12.5758 38.4285 12.6677 38.3052 12.6671Z" fill="black"/>
<path d="M37.0441 14.9462C37.1646 14.9562 37.25 15.0577 37.2419 15.1814C37.234 15.3017 37.1303 15.3955 37.0125 15.3889C36.8898 15.3819 36.7893 15.263 36.8034 15.1415C36.817 15.0239 36.925 14.9362 37.0441 14.9462Z" fill="black"/>
<path d="M36.6849 16.1236C36.5654 16.1229 36.4714 16.0266 36.4702 15.9038C36.469 15.7801 36.5594 15.6838 36.6802 15.6801C36.8078 15.6762 36.9074 15.7776 36.9039 15.9075C36.9006 16.0299 36.8049 16.1242 36.6849 16.1236Z" fill="black"/>
<path d="M39.7836 10.0734C39.6582 10.0762 39.5625 9.98864 39.5574 9.86672C39.5523 9.74192 39.6386 9.6464 39.7621 9.64C39.8941 9.63312 39.999 9.72768 40 9.85416C40.0009 9.97424 39.9055 10.0708 39.7836 10.0734Z" fill="black"/>
<path d="M36.1295 14.9459C36.2542 14.9447 36.3471 15.0374 36.3482 15.1638C36.3492 15.2889 36.2554 15.3869 36.1334 15.3883C36.0133 15.3898 35.9166 15.292 35.9146 15.1671C35.9126 15.0425 36.0053 14.947 36.1295 14.9459Z" fill="black"/>
<path d="M26.5311 7.39168C26.481 7.39152 26.4308 7.39136 26.3806 7.3912C26.431 7.34192 26.481 7.36392 26.5311 7.39168Z" fill="black"/>
<path d="M26.6185 9.13104C26.6706 9.13064 26.7228 9.13032 26.775 9.12992C26.723 9.1612 26.6709 9.16328 26.6185 9.13104Z" fill="black"/>
<path d="M36.5662 9.1312C36.6185 9.13056 36.6707 9.12992 36.723 9.12936C36.6711 9.16048 36.6189 9.16376 36.5662 9.1312Z" fill="black"/>
<path d="M36.9382 7.38984C36.896 7.39 36.8538 7.39 36.8115 7.39016C36.8537 7.36248 36.8958 7.3472 36.9382 7.38984Z" fill="black"/>
<path d="M33.473 6.87512C33.473 7.86064 32.6875 8.6456 31.7014 8.64616C30.7198 8.64616 29.9277 7.85512 29.9277 6.874C29.9277 5.894 30.7204 5.10296 31.7026 5.10352C32.6875 5.10352 33.4736 5.89016 33.473 6.87512Z" fill="black"/>
<path d="M34.5474 6.42104C34.8728 6.12664 34.833 5.6764 34.3254 5.51176C34.4491 5.31896 34.4634 5.12176 34.3231 4.93448C34.1922 4.75936 34.0105 4.70856 33.7795 4.7588C33.8022 4.53232 33.7359 4.35832 33.5481 4.24288C33.3591 4.12632 33.1735 4.16992 32.9879 4.27656C32.9786 4.04568 32.8807 3.88544 32.6791 3.80096C32.4675 3.712 32.2886 3.7932 32.1245 3.93632C32.0206 3.74024 31.8792 3.61816 31.6566 3.61872C31.4345 3.61984 31.3058 3.76288 31.1981 3.93584C31.034 3.77672 30.8556 3.72096 30.6495 3.80216C30.4418 3.88392 30.3634 4.06344 30.3297 4.27664C30.1386 4.15456 29.9574 4.13632 29.7756 4.2468C29.5878 4.36112 29.5347 4.54512 29.5364 4.75336C29.3071 4.7092 29.1243 4.7672 28.9939 4.95336C28.8641 5.1384 28.9044 5.3312 28.9934 5.52344C28.779 5.5792 28.6359 5.69472 28.5857 5.90016C28.5338 6.11176 28.6266 6.27632 28.7922 6.42104C28.5608 6.50392 28.4138 6.64424 28.4061 6.87896C28.3967 7.1364 28.5536 7.28608 28.795 7.3772C28.6149 7.52192 28.5331 7.69096 28.5894 7.90584C28.6463 8.1196 28.8093 8.2196 29.0126 8.27432C28.891 8.46216 28.8695 8.64944 28.991 8.83392C29.1192 9.02896 29.3092 9.08472 29.5423 9.04056C29.5313 9.256 29.5915 9.43496 29.7787 9.5488C29.9649 9.66208 30.1494 9.62832 30.335 9.52064C30.3604 9.74104 30.4471 9.9084 30.6515 9.99184C30.8631 10.0786 31.0421 10.0067 31.2056 9.85432C31.31 10.0521 31.4492 10.1747 31.673 10.173C31.8962 10.1719 32.0254 10.036 32.1293 9.85432C32.2911 10.0085 32.4668 10.0764 32.6745 9.99352C32.8827 9.91064 32.9761 9.74384 32.9916 9.51512C33.1838 9.63336 33.37 9.66096 33.5578 9.54496C33.7462 9.4284 33.7987 9.2472 33.7822 9.0356C34.0075 9.08752 34.1931 9.03616 34.3279 8.85328C34.4677 8.66384 34.4406 8.46712 34.3191 8.26776C34.5406 8.21912 34.6937 8.1076 34.7428 7.89216C34.792 7.67896 34.7091 7.50992 34.5323 7.37288C34.7588 7.29392 34.9079 7.16296 34.9206 6.92264C34.9342 6.65744 34.7778 6.51112 34.5474 6.42104ZM33.8199 7.60872C33.757 7.77168 33.7895 7.92528 33.8834 8.06832C33.5138 8.244 33.467 8.30752 33.4465 8.66496C33.2885 8.62464 33.141 8.64784 33.009 8.7456C32.8791 8.84168 32.8272 8.97928 32.809 9.15048C32.6637 9.08144 32.5228 9.02504 32.3637 9.07592C32.2112 9.12512 32.1146 9.2328 32.0455 9.36984C31.7329 9.1456 31.6019 9.14608 31.2937 9.366C31.0843 9.02128 30.828 8.98928 30.5242 9.15224C30.5087 8.99208 30.459 8.84896 30.3275 8.75064C30.1966 8.65232 30.0502 8.6164 29.8801 8.67328C29.905 8.34512 29.7491 8.16064 29.442 8.08112C29.5326 7.93256 29.5762 7.78448 29.5144 7.6204C29.4526 7.45576 29.3254 7.36688 29.1653 7.3116C29.4874 6.9796 29.405 6.72272 29.1642 6.4852C29.321 6.42552 29.4503 6.3388 29.5127 6.17808C29.5768 6.01344 29.5315 5.8632 29.457 5.71624C29.7702 5.608 29.8679 5.48032 29.8884 5.14448C30.2491 5.17208 30.4839 5.02568 30.5242 4.64176C30.8894 4.80912 31.0838 4.75392 31.2949 4.4164C31.3976 4.5092 31.5086 4.58544 31.655 4.58816C31.8042 4.5904 31.9202 4.52352 32.0334 4.4164C32.1158 4.54568 32.2002 4.67104 32.3544 4.71472C32.5074 4.75784 32.651 4.73128 32.7958 4.63904C32.8355 4.81744 32.8869 4.9804 33.051 5.07544C33.173 5.14672 33.3012 5.15664 33.4498 5.1268C33.4333 5.43448 33.5675 5.63448 33.8846 5.70848C33.8056 5.856 33.7526 6.00568 33.8138 6.16808C33.8741 6.32936 33.995 6.42768 34.1602 6.47744C33.8796 6.83928 33.8813 7.0028 34.1702 7.3088C34.0116 7.36344 33.8813 7.45016 33.8199 7.60872Z" fill="black"/>
<path d="M33.473 6.87512C33.473 7.86064 32.6875 8.6456 31.7014 8.64616C30.7198 8.64616 29.9277 7.85512 29.9277 6.874C29.9277 5.894 30.7204 5.10296 31.7026 5.10352C32.6875 5.10352 33.4736 5.89016 33.473 6.87512Z" fill="black"/>
<path d="M34.5474 6.42104C34.8728 6.12664 34.833 5.6764 34.3254 5.51176C34.4491 5.31896 34.4634 5.12176 34.3231 4.93448C34.1922 4.75936 34.0105 4.70856 33.7795 4.7588C33.8022 4.53232 33.7359 4.35832 33.5481 4.24288C33.3591 4.12632 33.1735 4.16992 32.9879 4.27656C32.9786 4.04568 32.8807 3.88544 32.6791 3.80096C32.4675 3.712 32.2886 3.7932 32.1245 3.93632C32.0206 3.74024 31.8792 3.61816 31.6566 3.61872C31.4345 3.61984 31.3058 3.76288 31.1981 3.93584C31.034 3.77672 30.8556 3.72096 30.6495 3.80216C30.4418 3.88392 30.3634 4.06344 30.3297 4.27664C30.1386 4.15456 29.9574 4.13632 29.7756 4.2468C29.5878 4.36112 29.5347 4.54512 29.5364 4.75336C29.3071 4.7092 29.1243 4.7672 28.9939 4.95336C28.8641 5.1384 28.9044 5.3312 28.9934 5.52344C28.779 5.5792 28.6359 5.69472 28.5857 5.90016C28.5338 6.11176 28.6266 6.27632 28.7922 6.42104C28.5608 6.50392 28.4138 6.64424 28.4061 6.87896C28.3967 7.1364 28.5536 7.28608 28.795 7.3772C28.6149 7.52192 28.5331 7.69096 28.5894 7.90584C28.6463 8.1196 28.8093 8.2196 29.0126 8.27432C28.891 8.46216 28.8695 8.64944 28.991 8.83392C29.1192 9.02896 29.3092 9.08472 29.5423 9.04056C29.5313 9.256 29.5915 9.43496 29.7787 9.5488C29.9649 9.66208 30.1494 9.62832 30.335 9.52064C30.3604 9.74104 30.4471 9.9084 30.6515 9.99184C30.8631 10.0786 31.0421 10.0067 31.2056 9.85432C31.31 10.0521 31.4492 10.1747 31.673 10.173C31.8962 10.1719 32.0254 10.036 32.1293 9.85432C32.2911 10.0085 32.4668 10.0764 32.6745 9.99352C32.8827 9.91064 32.9761 9.74384 32.9916 9.51512C33.1838 9.63336 33.37 9.66096 33.5578 9.54496C33.7462 9.4284 33.7987 9.2472 33.7822 9.0356C34.0075 9.08752 34.1931 9.03616 34.3279 8.85328C34.4677 8.66384 34.4406 8.46712 34.3191 8.26776C34.5406 8.21912 34.6937 8.1076 34.7428 7.89216C34.792 7.67896 34.7091 7.50992 34.5323 7.37288C34.7588 7.29392 34.9079 7.16296 34.9206 6.92264C34.9342 6.65744 34.7778 6.51112 34.5474 6.42104ZM33.8199 7.60872C33.757 7.77168 33.7895 7.92528 33.8834 8.06832C33.5138 8.244 33.467 8.30752 33.4465 8.66496C33.2885 8.62464 33.141 8.64784 33.009 8.7456C32.8791 8.84168 32.8272 8.97928 32.809 9.15048C32.6637 9.08144 32.5228 9.02504 32.3637 9.07592C32.2112 9.12512 32.1146 9.2328 32.0455 9.36984C31.7329 9.1456 31.6019 9.14608 31.2937 9.366C31.0843 9.02128 30.828 8.98928 30.5242 9.15224C30.5087 8.99208 30.459 8.84896 30.3275 8.75064C30.1966 8.65232 30.0502 8.6164 29.8801 8.67328C29.905 8.34512 29.7491 8.16064 29.442 8.08112C29.5326 7.93256 29.5762 7.78448 29.5144 7.6204C29.4526 7.45576 29.3254 7.36688 29.1653 7.3116C29.4874 6.9796 29.405 6.72272 29.1642 6.4852C29.321 6.42552 29.4503 6.3388 29.5127 6.17808C29.5768 6.01344 29.5315 5.8632 29.457 5.71624C29.7702 5.608 29.8679 5.48032 29.8884 5.14448C30.2491 5.17208 30.4839 5.02568 30.5242 4.64176C30.8894 4.80912 31.0838 4.75392 31.2949 4.4164C31.3976 4.5092 31.5086 4.58544 31.655 4.58816C31.8042 4.5904 31.9202 4.52352 32.0334 4.4164C32.1158 4.54568 32.2002 4.67104 32.3544 4.71472C32.5074 4.75784 32.651 4.73128 32.7958 4.63904C32.8355 4.81744 32.8869 4.9804 33.051 5.07544C33.173 5.14672 33.3012 5.15664 33.4498 5.1268C33.4333 5.43448 33.5675 5.63448 33.8846 5.70848C33.8056 5.856 33.7526 6.00568 33.8138 6.16808C33.8741 6.32936 33.995 6.42768 34.1602 6.47744C33.8796 6.83928 33.8813 7.0028 34.1702 7.3088C34.0116 7.36344 33.8813 7.45016 33.8199 7.60872Z" fill="black"/>
<path d="M33.473 6.87512C33.473 7.86064 32.6875 8.6456 31.7014 8.64616C30.7198 8.64616 29.9277 7.85512 29.9277 6.874C29.9277 5.894 30.7204 5.10296 31.7026 5.10352C32.6875 5.10352 33.4736 5.89016 33.473 6.87512Z" fill="black"/>
<path d="M33.473 6.87512C33.473 7.86064 32.6875 8.6456 31.7014 8.64616C30.7198 8.64616 29.9277 7.85512 29.9277 6.874C29.9277 5.894 30.7204 5.10296 31.7026 5.10352C32.6875 5.10352 33.4736 5.89016 33.473 6.87512Z" fill="black"/>
</svg>
