<svg width="40" height="17" viewBox="0 0 40 17" fill="none" xmlns="http://www.w3.org/2000/svg">
<path d="M14.1449 14.4928L10.2029 2.37681C9.68116 0.521739 8.69565 0 7.30435 0H0C0.57971 0.231884 0.927536 1.68116 0.927536 1.68116L4.46377 13.8551C4.86956 15.3623 6.14493 16.1739 7.5942 16.1739H15.3043C14.7246 16.1159 14.1449 14.4928 14.1449 14.4928Z" fill="black"/>
<path d="M25.8551 14.4928L29.7971 2.37681C30.3188 0.521739 31.3043 0 32.6957 0H40C39.4203 0.231884 39.0725 1.68116 39.0725 1.68116L35.5362 13.8551C35.1304 15.3623 33.8551 16.1739 32.4058 16.1739H24.6957C25.2754 16.1159 25.8551 14.4928 25.8551 14.4928Z" fill="black"/>
<path d="M24.3478 0H15.6522V16.2319H24.3478V0Z" fill="black"/>
</svg>
