<svg width="40" height="7" viewBox="0 0 40 7" fill="none" xmlns="http://www.w3.org/2000/svg">
<path d="M2.01347 0.482191C2.86925 0.482191 3.50565 0.677673 3.92268 1.06864C4.33971 1.45526 4.54823 2.0113 4.54823 2.73676C4.54823 3.21026 4.44614 3.62511 4.24197 3.98133C4.0378 4.3332 3.74023 4.60687 3.34927 4.80235C2.96265 4.99784 2.49783 5.09558 1.95483 5.09558C1.88532 5.09558 1.7941 5.09341 1.68115 5.08906C1.5682 5.08472 1.45091 5.08255 1.32928 5.08255C1.20765 5.0782 1.09905 5.07603 1.00348 5.07603C0.812338 5.07603 0.623372 5.0782 0.436578 5.08255C0.254127 5.08255 0.108601 5.08689 0 5.09558V4.96526C0.13901 4.95657 0.243267 4.93919 0.312772 4.91313C0.382277 4.88706 0.42789 4.83493 0.44961 4.75674C0.475674 4.67855 0.488706 4.56126 0.488706 4.40487V1.1729C0.488706 1.01217 0.475674 0.894876 0.44961 0.821027C0.42789 0.742834 0.380105 0.690705 0.306256 0.664641C0.236751 0.634232 0.134666 0.616856 0 0.612512V0.482191C0.108601 0.486535 0.254127 0.493051 0.436578 0.501739C0.623372 0.506083 0.807994 0.506083 0.990445 0.501739C1.14683 0.497395 1.32277 0.493051 1.51825 0.488707C1.71807 0.484363 1.88315 0.482191 2.01347 0.482191ZM2.00695 0.59948C1.80713 0.59948 1.67681 0.636404 1.61599 0.710253C1.55517 0.784102 1.52476 0.933972 1.52476 1.15986V4.4179C1.52476 4.6438 1.55517 4.79367 1.61599 4.86751C1.68115 4.94136 1.81364 4.97829 2.01347 4.97829C2.37837 4.97829 2.66508 4.89358 2.87359 4.72416C3.08645 4.5504 3.23849 4.29844 3.32972 3.9683C3.42094 3.63815 3.46656 3.23632 3.46656 2.76282C3.46656 2.27629 3.4166 1.87446 3.31669 1.55734C3.22112 1.23588 3.0669 0.996961 2.85404 0.840575C2.64119 0.679845 2.35882 0.59948 2.00695 0.59948Z" fill="black"/>
<path d="M5.78323 5.14119C5.58775 5.14119 5.42484 5.10427 5.29452 5.03042C5.1642 4.95657 5.06863 4.85883 5.00781 4.73719C4.947 4.61122 4.91659 4.47438 4.91659 4.32668C4.91659 4.13989 4.95786 3.98784 5.04039 3.87055C5.12728 3.75326 5.23805 3.6577 5.37271 3.58385C5.50738 3.51 5.64856 3.44918 5.79626 3.4014C5.9483 3.35361 6.09166 3.308 6.22632 3.26456C6.36533 3.21677 6.4761 3.16247 6.55864 3.10166C6.64552 3.0365 6.68896 2.95396 6.68896 2.85404V2.34579C6.68896 2.23284 6.66942 2.13293 6.63032 2.04605C6.59557 1.95483 6.53909 1.88532 6.4609 1.83754C6.38705 1.78975 6.28931 1.76586 6.16768 1.76586C6.0808 1.76586 5.99391 1.77889 5.90703 1.80496C5.82015 1.82668 5.74848 1.86577 5.692 1.92224C5.81364 1.96569 5.90703 2.03302 5.97219 2.12424C6.0417 2.21112 6.07645 2.31104 6.07645 2.42398C6.07645 2.57168 6.02432 2.68897 5.92007 2.77585C5.82015 2.86273 5.70069 2.90617 5.56168 2.90617C5.4053 2.90617 5.28583 2.85839 5.2033 2.76282C5.1251 2.66291 5.08601 2.54344 5.08601 2.40444C5.08601 2.27846 5.11642 2.1742 5.17723 2.09166C5.24239 2.00913 5.33145 1.93093 5.44439 1.85708C5.56602 1.78758 5.71155 1.73328 5.88097 1.69418C6.05473 1.65509 6.24153 1.63554 6.44135 1.63554C6.64118 1.63554 6.82146 1.65726 6.98219 1.7007C7.14292 1.73979 7.27758 1.81364 7.38618 1.92224C7.4861 2.02216 7.55126 2.14596 7.58167 2.29366C7.61208 2.43702 7.62728 2.61947 7.62728 2.84101V4.61339C7.62728 4.72199 7.63814 4.79801 7.65986 4.84145C7.68158 4.88055 7.7185 4.9001 7.77063 4.9001C7.80973 4.9001 7.84665 4.88924 7.88141 4.86751C7.9205 4.84579 7.96177 4.81973 8.00521 4.78932L8.07037 4.9001C7.97915 4.97829 7.87272 5.0391 7.75108 5.08255C7.6338 5.12164 7.5013 5.14119 7.3536 5.14119C7.19287 5.14119 7.06472 5.11947 6.96916 5.07603C6.87359 5.02824 6.80408 4.96526 6.76064 4.88706C6.72154 4.80887 6.702 4.71764 6.702 4.61339C6.59774 4.77846 6.47176 4.90878 6.32406 5.00435C6.17636 5.09558 5.99609 5.14119 5.78323 5.14119ZM6.24587 4.72416C6.33275 4.72416 6.41094 4.70461 6.48045 4.66552C6.5543 4.62208 6.6238 4.55257 6.68896 4.457V3.1212C6.64987 3.18637 6.59557 3.24501 6.52606 3.29714C6.45656 3.34927 6.38271 3.40357 6.30451 3.46004C6.22632 3.51217 6.1503 3.57081 6.07645 3.63597C6.00695 3.70114 5.95047 3.7815 5.90703 3.87707C5.86359 3.97264 5.84187 4.08776 5.84187 4.22242C5.84187 4.39184 5.8788 4.51782 5.95265 4.60036C6.0265 4.68289 6.12424 4.72416 6.24587 4.72416Z" fill="black"/>
<path d="M10.6154 1.63554C10.7979 1.63554 10.9456 1.65943 11.0585 1.70721C11.1758 1.75065 11.267 1.81147 11.3322 1.88966C11.4017 1.9722 11.4516 2.07863 11.4821 2.20895C11.5168 2.33927 11.5342 2.51521 11.5342 2.73676V4.48958C11.5342 4.67203 11.5646 4.79584 11.6254 4.861C11.6906 4.92616 11.7992 4.95874 11.9512 4.95874V5.09558C11.8687 5.09123 11.7449 5.08689 11.5798 5.08255C11.4147 5.07386 11.2518 5.06951 11.0911 5.06951C10.926 5.06951 10.7631 5.07386 10.6024 5.08255C10.446 5.08689 10.3265 5.09123 10.244 5.09558V4.95874C10.3743 4.95874 10.4655 4.92616 10.5177 4.861C10.5698 4.79584 10.5959 4.67203 10.5959 4.48958V2.46308C10.5959 2.35448 10.585 2.26108 10.5633 2.18289C10.5416 2.10035 10.5025 2.03736 10.446 1.99392C10.3895 1.94614 10.3048 1.92224 10.1919 1.92224C10.0746 1.92224 9.96598 1.95483 9.86606 2.01999C9.77049 2.08515 9.6923 2.17637 9.63148 2.29366C9.57501 2.40661 9.54677 2.53476 9.54677 2.67811V4.48958C9.54677 4.67203 9.57284 4.79584 9.62497 4.861C9.68144 4.92616 9.77267 4.95874 9.89864 4.95874V5.09558C9.82045 5.09123 9.70533 5.08689 9.55329 5.08255C9.40559 5.07386 9.25138 5.06951 9.09065 5.06951C8.92557 5.06951 8.75616 5.07386 8.58239 5.08255C8.40863 5.08689 8.27831 5.09123 8.19143 5.09558V4.95874C8.34347 4.95874 8.4499 4.92616 8.51072 4.861C8.57588 4.79584 8.60846 4.67203 8.60846 4.48958V2.43702C8.60846 2.24153 8.57805 2.09818 8.51723 2.00695C8.46076 1.91138 8.35216 1.8636 8.19143 1.8636V1.72676C8.33044 1.73979 8.46511 1.74631 8.59543 1.74631C8.77788 1.74631 8.9473 1.73979 9.10368 1.72676C9.26441 1.70939 9.41211 1.68549 9.54677 1.65509V2.24153C9.65538 2.01999 9.80307 1.8636 9.98987 1.77237C10.1767 1.68115 10.3852 1.63554 10.6154 1.63554Z" fill="black"/>
<path d="M17.7978 0.482191V0.612512C17.6588 0.616856 17.5545 0.634232 17.485 0.664641C17.4155 0.690705 17.3678 0.742834 17.3417 0.821027C17.32 0.894876 17.3091 1.01217 17.3091 1.1729V4.40487C17.3091 4.56126 17.32 4.67855 17.3417 4.75674C17.3678 4.83493 17.4155 4.88706 17.485 4.91313C17.5545 4.93919 17.6588 4.95657 17.7978 4.96526V5.09558C17.6762 5.08689 17.522 5.08255 17.3352 5.08255C17.1527 5.0782 16.9659 5.07603 16.7748 5.07603C16.5663 5.07603 16.3708 5.0782 16.1883 5.08255C16.0059 5.08255 15.8582 5.08689 15.7453 5.09558V4.96526C15.8929 4.95657 16.0037 4.93919 16.0776 4.91313C16.1558 4.88706 16.2079 4.83493 16.234 4.75674C16.26 4.67855 16.2731 4.56126 16.2731 4.40487V0.879672H16.3187L14.7027 5.10209H14.5984L12.8391 0.905736V4.02694C12.8391 4.26586 12.8521 4.45049 12.8782 4.58081C12.9042 4.70678 12.9607 4.79801 13.0476 4.85448C13.1388 4.90661 13.28 4.94354 13.4711 4.96526V5.09558C13.3886 5.08689 13.28 5.08255 13.1453 5.08255C13.0107 5.0782 12.8847 5.07603 12.7674 5.07603C12.6675 5.07603 12.5654 5.0782 12.4611 5.08255C12.3569 5.08255 12.27 5.08689 12.2005 5.09558V4.96526C12.3395 4.94354 12.4438 4.90661 12.5133 4.85448C12.5828 4.80235 12.6284 4.71765 12.6501 4.60036C12.6762 4.47872 12.6892 4.31365 12.6892 4.10513V1.1729C12.6892 1.01217 12.6762 0.894876 12.6501 0.821027C12.6284 0.742834 12.5806 0.690705 12.5068 0.664641C12.4373 0.634232 12.3352 0.616856 12.2005 0.612512V0.482191C12.27 0.486535 12.3569 0.490879 12.4611 0.495223C12.5654 0.499567 12.6675 0.501739 12.7674 0.501739C12.9542 0.501739 13.1366 0.499567 13.3148 0.495223C13.4972 0.490879 13.6579 0.486535 13.7969 0.482191L15.1653 3.78584L15.0024 3.93571L16.3121 0.501739C16.386 0.501739 16.462 0.501739 16.5402 0.501739C16.6184 0.501739 16.6966 0.501739 16.7748 0.501739C16.9659 0.501739 17.1527 0.499567 17.3352 0.495223C17.522 0.490879 17.6762 0.486535 17.7978 0.482191Z" fill="black"/>
<path d="M21.2711 1.65509V4.38532C21.2711 4.58081 21.3016 4.72633 21.3624 4.8219C21.4232 4.91313 21.5318 4.95874 21.6882 4.95874V5.09558C21.5535 5.08255 21.4188 5.07603 21.2842 5.07603C21.1017 5.07603 20.9323 5.08255 20.7759 5.09558C20.6195 5.10861 20.4718 5.1325 20.3328 5.16725V4.58081C20.2286 4.79801 20.083 4.9544 19.8963 5.04997C19.7138 5.14119 19.5096 5.1868 19.2837 5.1868C19.1013 5.1868 18.9536 5.16291 18.8406 5.11513C18.7277 5.06734 18.6386 5.00652 18.5735 4.93268C18.4996 4.85014 18.4475 4.74154 18.4171 4.60687C18.3867 4.47221 18.3715 4.29844 18.3715 4.08558V2.43702C18.3715 2.24153 18.3411 2.09818 18.2803 2.00695C18.2238 1.91138 18.1152 1.8636 17.9545 1.8636V1.72676C18.0935 1.73979 18.2281 1.74631 18.3585 1.74631C18.5409 1.74631 18.7103 1.73979 18.8667 1.72676C19.0274 1.70939 19.1751 1.68549 19.3098 1.65509V4.35274C19.3098 4.46135 19.3185 4.55691 19.3359 4.63945C19.3576 4.72199 19.3967 4.78715 19.4532 4.83493C19.5096 4.87837 19.5922 4.9001 19.7008 4.9001C19.8181 4.9001 19.9223 4.86751 20.0135 4.80235C20.1091 4.73719 20.1851 4.64814 20.2416 4.53519C20.3024 4.41791 20.3328 4.28758 20.3328 4.14423V2.43702C20.3328 2.24153 20.3024 2.09818 20.2416 2.00695C20.1851 1.91138 20.0765 1.8636 19.9158 1.8636V1.72676C20.0548 1.73979 20.1895 1.74631 20.3198 1.74631C20.5022 1.74631 20.6717 1.73979 20.8281 1.72676C20.9888 1.70939 21.1365 1.68549 21.2711 1.65509Z" fill="black"/>
<path d="M24.1542 1.63554C24.2932 1.63554 24.4061 1.66595 24.493 1.72676C24.5799 1.78324 24.6429 1.85708 24.682 1.94831C24.7254 2.03953 24.7471 2.1351 24.7471 2.23502C24.7471 2.39575 24.6993 2.52824 24.6038 2.6325C24.5125 2.73241 24.3909 2.78237 24.2389 2.78237C24.0868 2.78237 23.9674 2.74544 23.8805 2.67159C23.7979 2.5934 23.7567 2.49132 23.7567 2.36534C23.7567 2.2437 23.7827 2.14379 23.8349 2.0656C23.8913 1.98306 23.9608 1.91356 24.0434 1.85708C23.9826 1.83971 23.9217 1.84188 23.8609 1.8636C23.7784 1.87663 23.7002 1.91138 23.6264 1.96786C23.5525 2.01999 23.4895 2.08732 23.4374 2.16986C23.3853 2.24805 23.344 2.33493 23.3136 2.4305C23.2832 2.52172 23.268 2.61078 23.268 2.69766V4.42442C23.268 4.63294 23.3179 4.77412 23.4178 4.84797C23.5221 4.92182 23.6763 4.95874 23.8805 4.95874V5.09558C23.7806 5.09123 23.635 5.08689 23.4439 5.08255C23.2528 5.07386 23.0529 5.06951 22.8444 5.06951C22.6707 5.06951 22.4947 5.07386 22.3166 5.08255C22.1385 5.08689 22.0038 5.09123 21.9126 5.09558V4.95874C22.0647 4.95874 22.1711 4.92616 22.2319 4.861C22.2971 4.79584 22.3297 4.67203 22.3297 4.48958V2.43702C22.3297 2.24153 22.2992 2.09818 22.2384 2.00695C22.182 1.91138 22.0734 1.8636 21.9126 1.8636V1.72676C22.0516 1.73979 22.1863 1.74631 22.3166 1.74631C22.4991 1.74631 22.6685 1.73979 22.8249 1.72676C22.9856 1.70939 23.1333 1.68549 23.268 1.65509V2.26108C23.3201 2.14379 23.3896 2.03736 23.4765 1.94179C23.5634 1.84622 23.6633 1.77237 23.7762 1.72025C23.8892 1.66377 24.0151 1.63554 24.1542 1.63554Z" fill="black"/>
<path d="M26.2184 1.65509V5.6299C26.2184 5.83407 26.2706 5.96873 26.3748 6.03389C26.4791 6.1034 26.6224 6.13815 26.8049 6.13815V6.27499C26.6919 6.27064 26.5355 6.26413 26.3357 6.25544C26.1402 6.2511 25.9317 6.24892 25.7102 6.24892C25.5494 6.24892 25.3909 6.2511 25.2345 6.25544C25.0825 6.26413 24.9673 6.27064 24.8891 6.27499V6.13815C25.0325 6.13815 25.1324 6.10774 25.1889 6.04693C25.2497 5.98611 25.2801 5.86882 25.2801 5.69506V2.43702C25.2801 2.24153 25.2497 2.09818 25.1889 2.00695C25.1281 1.91138 25.0195 1.8636 24.8631 1.8636V1.72676C25.0021 1.73979 25.1368 1.74631 25.2671 1.74631C25.4452 1.74631 25.6146 1.73979 25.7753 1.72676C25.9361 1.70939 26.0838 1.68549 26.2184 1.65509ZM27.2284 1.63554C27.45 1.63554 27.6476 1.69635 27.8214 1.81799C27.9951 1.93528 28.1342 2.11556 28.2384 2.35882C28.3427 2.59775 28.3948 2.89749 28.3948 3.25804C28.3948 3.57516 28.3579 3.85318 28.284 4.0921C28.2145 4.33102 28.1124 4.53302 27.9778 4.6981C27.8474 4.85883 27.6889 4.98046 27.5021 5.063C27.3196 5.14553 27.1133 5.1868 26.8831 5.1868C26.7137 5.1868 26.5594 5.15639 26.4204 5.09558C26.2814 5.0391 26.175 4.95657 26.1011 4.84797L26.1663 4.76326C26.2097 4.84145 26.2706 4.90227 26.3488 4.94571C26.4313 4.98915 26.5247 5.01087 26.6289 5.01087C26.8244 5.01087 26.9786 4.94571 27.0916 4.81539C27.2045 4.68072 27.2849 4.49393 27.3327 4.255C27.3848 4.01174 27.4109 3.72286 27.4109 3.38836C27.4109 3.01478 27.387 2.72155 27.3392 2.50869C27.2914 2.29583 27.2263 2.14379 27.1437 2.05257C27.0612 1.96134 26.9613 1.91573 26.844 1.91573C26.6876 1.91573 26.5442 1.97655 26.4139 2.09818C26.2879 2.21981 26.2163 2.39357 26.1989 2.61947L26.1663 2.3914C26.2445 2.14379 26.377 1.957 26.5638 1.83102C26.7549 1.7007 26.9765 1.63554 27.2284 1.63554Z" fill="black"/>
<path d="M30.0539 0V2.24153C30.1625 2.01564 30.308 1.85926 30.4904 1.77237C30.6772 1.68115 30.8857 1.63554 31.116 1.63554C31.3028 1.63554 31.4526 1.65943 31.5656 1.70721C31.6785 1.75065 31.7676 1.81147 31.8327 1.88966C31.9066 1.9722 31.9587 2.07863 31.9891 2.20895C32.0239 2.33927 32.0413 2.51521 32.0413 2.73676V4.48958C32.0413 4.67203 32.0717 4.79584 32.1325 4.861C32.1976 4.92616 32.3062 4.95874 32.4583 4.95874V5.09558C32.3758 5.09123 32.2498 5.08689 32.0804 5.08255C31.9153 5.07386 31.7546 5.06951 31.5982 5.06951C31.4288 5.06951 31.2637 5.07386 31.1029 5.08255C30.9466 5.08689 30.8293 5.09123 30.7511 5.09558V4.95874C30.8814 4.95874 30.9726 4.92616 31.0248 4.861C31.0769 4.79584 31.1029 4.67203 31.1029 4.48958V2.46308C31.1029 2.35448 31.0921 2.26108 31.0704 2.18289C31.0486 2.10035 31.0074 2.03736 30.9466 1.99392C30.8901 1.94614 30.8076 1.92224 30.6989 1.92224C30.5817 1.92224 30.4731 1.95483 30.3731 2.01999C30.2776 2.0808 30.1994 2.16768 30.1386 2.28063C30.0821 2.39358 30.0539 2.5239 30.0539 2.67159V4.48958C30.0539 4.67203 30.0799 4.79584 30.132 4.861C30.1842 4.92616 30.2754 4.95874 30.4057 4.95874V5.09558C30.3275 5.09123 30.2124 5.08689 30.0604 5.08255C29.9083 5.07386 29.7541 5.06951 29.5977 5.06951C29.4283 5.06951 29.2567 5.07386 29.083 5.08255C28.9135 5.08689 28.7854 5.09123 28.6985 5.09558V4.95874C28.8506 4.95874 28.957 4.92616 29.0178 4.861C29.083 4.79584 29.1155 4.67203 29.1155 4.48958V0.78193C29.1155 0.586448 29.0851 0.443094 29.0243 0.351869C28.9678 0.256299 28.8592 0.208515 28.6985 0.208515V0.0716772C28.8375 0.0847094 28.9722 0.0912255 29.1025 0.0912255C29.2806 0.0912255 29.45 0.0847094 29.6108 0.0716772C29.7715 0.0543009 29.9192 0.0304085 30.0539 0Z" fill="black"/>
<path d="M35.7467 1.72676V1.85708C35.6641 1.8788 35.5859 1.93093 35.5121 2.01347C35.4382 2.09166 35.3666 2.22633 35.2971 2.41747L34.3783 4.99784L34.1372 5.45396L32.7167 2.2285C32.6428 2.05908 32.569 1.957 32.4951 1.92224C32.4256 1.88315 32.3648 1.8636 32.3127 1.8636V1.72676C32.4561 1.73979 32.6038 1.75065 32.7558 1.75934C32.9122 1.76369 33.062 1.76586 33.2054 1.76586C33.3835 1.76586 33.5464 1.76151 33.6941 1.75283C33.8418 1.74414 33.9808 1.73545 34.1111 1.72676V1.8636C34.0243 1.8636 33.9417 1.87012 33.8635 1.88315C33.7897 1.89184 33.7375 1.92224 33.7071 1.97437C33.6811 2.02216 33.6941 2.10687 33.7462 2.2285L34.5673 4.20939L34.5086 4.24849L34.9908 2.89966C35.0733 2.66508 35.1081 2.47394 35.0951 2.32624C35.082 2.1742 35.0342 2.06125 34.9517 1.98741C34.8692 1.90921 34.7562 1.86577 34.6129 1.85708V1.72676C34.6824 1.73111 34.7541 1.73545 34.8279 1.73979C34.9018 1.73979 34.9756 1.74197 35.0495 1.74631C35.1233 1.74631 35.1885 1.74631 35.2449 1.74631C35.3318 1.74631 35.423 1.74414 35.5186 1.73979C35.6142 1.73545 35.6902 1.73111 35.7467 1.72676ZM34.3783 4.99784L34.1307 5.69506C34.0872 5.80366 34.0416 5.89488 33.9938 5.96873C33.9504 6.04693 33.9005 6.10991 33.844 6.1577C33.7832 6.20983 33.705 6.24892 33.6094 6.27499C33.5138 6.3054 33.4031 6.3206 33.2771 6.3206C33.1728 6.3206 33.0642 6.30323 32.9513 6.26847C32.8427 6.23372 32.7514 6.17725 32.6776 6.09905C32.6038 6.02086 32.5668 5.92095 32.5668 5.79931C32.5668 5.66465 32.6146 5.55605 32.7102 5.47351C32.8057 5.39532 32.9317 5.35622 33.0881 5.35622C33.2315 5.35622 33.3488 5.39097 33.44 5.46048C33.5312 5.52998 33.5768 5.63207 33.5768 5.76673C33.5768 5.85362 33.5486 5.93615 33.4921 6.01435C33.44 6.09254 33.3596 6.15118 33.251 6.19028C33.2727 6.19462 33.2988 6.1968 33.3292 6.1968C33.3596 6.1968 33.3835 6.1968 33.4009 6.1968C33.5312 6.1968 33.6463 6.15553 33.7462 6.07299C33.8461 5.99045 33.9287 5.86013 33.9938 5.68203L34.2219 5.01087L34.3783 4.99784Z" fill="black"/>
<path d="M36.4931 0.390965C36.6017 0.390965 36.6951 0.410513 36.7733 0.44961C36.8515 0.488706 36.9123 0.545179 36.9558 0.619028C37.0035 0.679845 37.0383 0.76021 37.06 0.860123C37.0861 0.960036 37.0991 1.05995 37.0991 1.15986C37.0991 1.37707 37.0426 1.57906 36.9297 1.76586C36.8211 1.94831 36.6495 2.09384 36.4149 2.20244L36.3563 2.08515C36.4779 2.03302 36.5865 1.95265 36.6821 1.84405C36.7777 1.73545 36.8341 1.62468 36.8515 1.51173C36.8732 1.41616 36.8732 1.32494 36.8515 1.23806C36.7559 1.34231 36.63 1.39444 36.4736 1.39444C36.3215 1.39444 36.1977 1.351 36.1022 1.26412C36.0066 1.1729 35.9588 1.04909 35.9588 0.892704C35.9588 0.740662 36.0088 0.619028 36.1087 0.527803C36.2129 0.436578 36.3411 0.390965 36.4931 0.390965Z" fill="black"/>
<path d="M38.6772 1.63554C38.8597 1.63554 39.0182 1.65943 39.1529 1.70721C39.2919 1.75065 39.3918 1.7941 39.4526 1.83754C39.6003 1.93745 39.6916 1.87229 39.7263 1.64205H39.8632C39.8545 1.76369 39.848 1.91356 39.8436 2.09166C39.8393 2.26543 39.8371 2.49783 39.8371 2.78888H39.7003C39.6785 2.62815 39.6373 2.4696 39.5765 2.31321C39.5156 2.15682 39.4266 2.02867 39.3093 1.92876C39.1963 1.82885 39.0487 1.77889 38.8662 1.77889C38.7402 1.77889 38.6338 1.81582 38.5469 1.88966C38.46 1.95917 38.4166 2.06125 38.4166 2.19592C38.4166 2.32624 38.4557 2.44136 38.5339 2.54127C38.6121 2.63684 38.712 2.73024 38.8336 2.82146C38.9596 2.90835 39.0899 3.00174 39.2246 3.10166C39.3679 3.21026 39.4983 3.31886 39.6155 3.42746C39.7328 3.53172 39.8262 3.64684 39.8957 3.77281C39.9652 3.89879 40 4.04866 40 4.22242C40 4.41791 39.9435 4.5895 39.8306 4.73719C39.7176 4.88055 39.5678 4.99132 39.381 5.06951C39.1985 5.14771 38.9944 5.1868 38.7685 5.1868C38.6381 5.1868 38.5208 5.17377 38.4166 5.14771C38.3167 5.12164 38.2298 5.08906 38.1559 5.04997C38.0995 5.0239 38.0452 5.00001 37.993 4.97829C37.9453 4.95222 37.8996 4.9305 37.8562 4.91313C37.8128 4.90009 37.7737 4.9153 37.7389 4.95874C37.7085 5.00218 37.6846 5.063 37.6672 5.14119H37.5304C37.5391 5.00218 37.5456 4.83276 37.55 4.63294C37.5543 4.43311 37.5565 4.16812 37.5565 3.83797H37.6933C37.7194 4.07255 37.7672 4.28107 37.8367 4.46352C37.9062 4.64162 37.9996 4.78281 38.1168 4.88706C38.2385 4.98698 38.3905 5.03693 38.573 5.03693C38.6468 5.03693 38.7185 5.02173 38.788 4.99132C38.8575 4.96091 38.914 4.91096 38.9574 4.84145C39.0052 4.77195 39.0291 4.68289 39.0291 4.57429C39.0291 4.38315 38.9661 4.22459 38.8401 4.09862C38.7185 3.97264 38.5621 3.8358 38.371 3.6881C38.232 3.57516 38.0995 3.46438 37.9735 3.35578C37.8519 3.24284 37.7519 3.1212 37.6738 2.99088C37.5956 2.85622 37.5565 2.70418 37.5565 2.53476C37.5565 2.33927 37.6086 2.1742 37.7129 2.03953C37.8171 1.90487 37.9539 1.80496 38.1234 1.73979C38.2971 1.67029 38.4817 1.63554 38.6772 1.63554Z" fill="black"/>
</svg>
