<svg width="40" height="36" viewBox="0 0 40 36" fill="none" xmlns="http://www.w3.org/2000/svg">
<path fill-rule="evenodd" clip-rule="evenodd" d="M34.0352 7.87969C34.3852 7.73829 34.7477 7.67579 35.1133 7.83985C35.1313 7.84766 35.15 7.85469 35.168 7.86329C35.2571 7.90235 35.3164 7.98438 35.3867 8.04375C35.461 8.10703 35.4844 8.23828 35.5117 8.34453C35.5336 8.42656 35.55 8.50312 35.6446 8.54766C35.5977 8.60469 35.5399 8.65547 35.5766 8.72656C35.6047 8.78125 35.6446 8.83047 35.6789 8.88281V9.09453C35.5828 9.09765 35.5664 9.175 35.5696 9.2664L35.5813 9.51406L35.6594 9.50624C35.6594 9.58359 35.6774 9.66249 35.6539 9.72499C35.6274 9.79765 35.6383 9.86562 35.6383 9.9328C35.6407 10.0086 35.6617 10.0844 35.6766 10.1664C35.6438 10.2 35.5446 10.1695 35.5586 10.257C35.5664 10.3039 35.5969 10.3476 35.6196 10.3976C35.5477 10.4703 35.5477 10.4703 35.5977 10.5578C35.5782 10.5969 35.5469 10.632 35.5453 10.6672C35.5399 10.8969 35.5375 11.1258 35.5422 11.3547C35.543 11.4133 35.5703 11.4711 35.5914 11.5523C35.5641 11.5851 35.5188 11.6422 35.5594 11.7211C35.5672 11.7375 35.561 11.7664 35.5532 11.7867C35.5219 11.8695 35.5453 11.9289 35.6242 11.9609C35.6164 12.0039 35.5969 12.0445 35.6063 12.0765C35.6235 12.1312 35.6297 12.1765 35.5969 12.2281C35.5836 12.2484 35.5891 12.2828 35.5922 12.3109C35.6 12.3687 35.6078 12.4179 35.5555 12.4703C35.5094 12.5172 35.5375 12.5617 35.6141 12.5797L35.5266 12.7375L35.6133 12.8203C35.5703 12.8609 35.568 12.8718 35.5602 12.9664C35.5555 13.0172 35.5219 13.0718 35.5946 13.1039C35.6063 13.1093 35.6227 13.1281 35.6211 13.1336C35.5766 13.2351 35.6696 13.2656 35.7258 13.3187C35.7102 13.3429 35.7016 13.3656 35.6852 13.3828C35.636 13.4351 35.5985 13.4797 35.711 13.4984C35.725 13.5008 35.7313 13.5445 35.7407 13.5687C35.7625 13.6265 35.7625 13.6984 35.8446 13.7187C35.8649 13.7242 35.8836 13.7453 35.8985 13.7632C36.0094 13.8992 36.1117 13.9351 36.2891 13.8656C36.5414 13.7672 36.793 13.6648 37.0352 13.5453C37.4008 13.364 37.757 13.1648 38.1188 12.9765C38.4813 12.789 38.8609 12.7234 39.2656 12.8133C39.3305 12.8281 39.4039 12.8093 39.4672 12.8265C39.5406 12.8461 39.6203 12.875 39.6734 12.9242C39.8117 13.0523 39.9047 13.2125 39.9609 13.3922C39.9672 13.4125 39.9867 13.4289 40 13.4468V13.5054C39.932 13.5984 39.932 13.5984 40 13.6812V13.7398C39.9781 13.7445 39.9438 13.7414 39.9352 13.7554C39.8906 13.8211 39.8438 13.8882 39.8133 13.9617C39.6477 14.3562 39.3422 14.6179 38.9828 14.8328C38.6406 15.0367 38.2594 15.139 37.8836 15.2601C37.4383 15.4031 36.9906 15.5445 36.5531 15.7101C36.093 15.8843 35.6407 16.0781 35.1914 16.2789C34.8868 16.4148 34.5914 16.5757 34.2946 16.7289C33.9454 16.9093 33.5977 17.0937 33.2493 17.2773C32.8141 17.507 32.3774 17.7328 31.9446 17.9671C31.2969 18.3187 30.6508 18.6718 30.0071 19.0328C29.5712 19.2781 29.1415 19.5359 28.7087 19.789C28.3391 20.0054 27.9665 20.2179 27.6009 20.4406C27.2782 20.6374 26.961 20.8452 26.6438 21.0507C26.5055 21.1405 26.3813 21.2554 26.2352 21.3304C25.8727 21.5163 25.5423 21.7507 25.2056 21.9757C25.0509 22.0796 24.9009 22.189 24.7485 22.296C24.7329 22.307 24.7095 22.3187 24.7048 22.3343C24.6712 22.4515 24.5618 22.4874 24.4727 22.5413C24.3688 22.6046 24.2931 22.6679 24.3017 22.8109C24.311 22.9702 24.2853 23.1319 24.2751 23.2929C24.2735 23.3116 24.2673 23.3382 24.2767 23.3499C24.3282 23.4124 24.2892 23.4554 24.2532 23.5038C24.2376 23.5257 24.2165 23.5702 24.2251 23.5796C24.3149 23.6788 24.2298 23.771 24.2188 23.8733C24.2954 23.9405 24.2899 24.0218 24.2657 24.121C24.2384 24.2257 24.1603 24.3382 24.2602 24.4507C24.2642 24.4562 24.2188 24.5046 24.1821 24.5515C24.1837 24.5562 24.1821 24.5937 24.2001 24.6202C24.2501 24.6983 24.2587 24.7718 24.2103 24.8522C24.2001 24.871 24.1946 24.9069 24.2056 24.921C24.2634 25.0046 24.2212 25.0843 24.2134 25.1694C24.1962 25.3663 24.1993 25.5655 24.2056 25.7632C24.2087 25.839 24.1923 25.921 24.2392 25.9937C24.2501 26.0108 24.2478 26.0538 24.2353 26.064C24.1626 26.1202 24.1751 26.1811 24.197 26.2452C24.2142 26.2921 24.2243 26.3741 24.2227 26.4249C24.2149 26.6874 24.2056 26.9499 24.1962 27.2132C24.1938 27.289 24.1962 27.3671 24.1806 27.4413C24.1704 27.4936 24.1673 27.5343 24.2079 27.5733C24.2157 27.5811 24.2181 27.6007 24.2165 27.6147C24.2048 27.7257 24.1821 27.8366 24.1798 27.9483C24.1774 28.0515 24.1954 28.1554 24.2032 28.2452C24.1681 28.2975 24.122 28.3421 24.1063 28.396C24.0899 28.4522 24.1024 28.5171 24.1024 28.5796C24.1392 28.603 24.1806 28.6264 24.2165 28.6554C24.2282 28.6639 24.2243 28.6905 24.2282 28.7139L24.0954 28.746L24.1892 28.871C24.1845 28.9054 24.1681 28.9429 24.1798 28.9585C24.2313 29.0233 24.2149 29.0811 24.1845 29.146C24.1493 29.2225 24.1243 29.3022 24.0907 29.3921C24.1235 29.4803 24.1649 29.5843 24.1993 29.6913C24.2079 29.7186 24.2056 29.7686 24.1884 29.7819C24.0571 29.8858 24.0915 29.9968 24.1642 30.1124L24.2017 30.1718C24.0923 30.2108 24.0532 30.2975 24.0954 30.3983C24.1009 30.41 24.1142 30.4288 24.1228 30.4288C24.2048 30.4257 24.2009 30.5038 24.2423 30.5475L24.1571 30.5952C24.1985 30.7616 24.1985 30.7616 24.1477 30.8725L24.3134 31.046L24.2329 31.253L24.3267 31.2647C24.2821 31.335 24.2868 31.3991 24.3603 31.4452C24.3298 31.5475 24.4204 31.6405 24.3782 31.746L24.2821 31.7881C24.3524 31.8585 24.3251 31.9233 24.3009 31.9936C24.2751 32.0686 24.3352 32.1702 24.4063 32.1616C24.4923 32.1506 24.5001 32.2061 24.4962 32.2506C24.4813 32.4092 24.5392 32.5436 24.6251 32.6772C24.5813 32.7788 24.5423 32.8842 24.4134 32.9194L24.5227 32.9374L24.5259 32.9608L24.4274 33.0038C24.4313 33.0686 24.4384 33.1436 24.4407 33.2178C24.4431 33.2975 24.4852 33.3311 24.5626 33.3303C24.6345 33.3295 24.7134 33.3795 24.6899 33.4303C24.6509 33.5124 24.7157 33.5194 24.7485 33.5647C24.6681 33.6085 24.7392 33.7663 24.5845 33.7717L24.6665 33.803L24.597 33.9256C24.6399 33.9905 24.7095 34.0381 24.7243 34.1264C24.7298 34.1561 24.8024 34.1749 24.8524 34.203C24.7931 34.2631 24.7376 34.3178 24.7532 34.4053C24.7556 34.4209 24.7267 34.4389 24.7165 34.4584C24.697 34.4944 24.6806 34.5327 24.6602 34.5749L24.7899 34.6491C24.7407 34.6936 24.6829 34.7311 24.6454 34.7834C24.6087 34.8342 24.6032 34.9061 24.5673 34.9561C24.5102 35.0342 24.4493 35.1186 24.3704 35.1717C24.2501 35.2538 24.122 35.3241 23.9946 35.3959C23.9126 35.442 23.8212 35.4717 23.7274 35.4788C23.6087 35.4866 23.5048 35.4881 23.3876 35.4538C23.3517 35.4405 23.3173 35.4241 23.2798 35.4147C23.061 35.3569 22.8696 35.2569 22.711 35.0897C22.5923 34.9647 22.5532 34.8092 22.5024 34.6584C22.3517 34.2163 22.336 33.76 22.3634 33.2991C22.3821 32.9631 22.3782 32.6256 22.3899 32.2897C22.3978 32.0366 22.4189 31.7835 22.429 31.5303C22.4376 31.3014 22.4368 31.0725 22.4439 30.8428C22.4493 30.6444 22.4603 30.446 22.4657 30.2475C22.4704 30.0725 22.4751 29.8983 22.472 29.7233C22.4696 29.5874 22.4501 29.4514 22.4501 29.3155C22.4509 29.1593 22.4689 29.0046 22.4735 28.8491C22.4759 28.7874 22.4657 28.7257 22.4618 28.6639C22.4595 28.6405 22.4454 28.6061 22.4556 28.596C22.5368 28.5116 22.5001 28.41 22.5009 28.3171C22.504 27.7897 22.5032 27.2624 22.504 26.7358L22.5056 25.4194C22.5056 25.0726 22.5056 24.7257 22.5087 24.3788C22.5103 24.2632 22.5235 24.1476 22.5282 24.0319C22.529 23.9991 22.5204 23.9663 22.5142 23.921C22.3392 23.9874 22.1884 24.0796 22.047 24.1804C21.7798 24.371 21.5196 24.5726 21.2579 24.7718C20.9853 24.9796 20.7134 25.1897 20.4431 25.4007L19.865 25.8562C19.6665 26.0101 19.4618 26.1546 19.2681 26.3132C18.929 26.589 18.5978 26.8741 18.2603 27.1507C18.0275 27.3397 17.7861 27.5179 17.554 27.7077L16.508 28.571C16.2619 28.7725 16.0119 28.9702 15.7634 29.1694C15.7517 29.1788 15.7392 29.1866 15.729 29.1968C15.5916 29.3366 15.4541 29.4757 15.3189 29.6163C15.2548 29.6835 15.2017 29.7608 15.1322 29.8218C14.9751 29.96 14.8056 30.0858 14.6509 30.228C14.4853 30.3788 14.3322 30.5436 14.172 30.7007C14.0783 30.7928 13.9783 30.878 13.8869 30.9717C13.8361 31.0241 13.7978 31.0874 13.7517 31.1436C13.7048 31.1991 13.6564 31.253 13.6072 31.3053C13.5337 31.3835 13.4603 31.4616 13.3845 31.5374L12.3923 32.5186C12.347 32.5624 12.3095 32.6139 12.2673 32.6616L11.9275 33.042C11.8884 33.0858 11.8478 33.128 11.8064 33.1702L11.6017 33.3772C11.5705 33.4085 11.5361 33.4374 11.5049 33.4678C11.3752 33.5944 11.247 33.7233 11.1166 33.8483L10.7314 34.2077C10.6111 34.3225 10.476 34.3905 10.3033 34.3967C10.0119 34.4069 9.73455 34.3772 9.4783 34.2225C9.33768 34.1381 9.23846 34.0272 9.16424 33.885C9.07674 33.7163 9.04315 33.5319 9.03377 33.3491C9.02752 33.2288 9.04706 33.0944 9.12752 32.9874C9.24627 32.8311 9.36424 32.6749 9.48455 32.5202C9.80799 32.103 10.2049 31.7561 10.5869 31.3952C10.8588 31.1397 11.1361 30.8897 11.4095 30.6366C11.6361 30.4257 11.858 30.21 12.0884 30.0038C12.333 29.7835 12.5838 29.5702 12.8338 29.3569C13.1181 29.1147 13.4041 28.8749 13.6916 28.6382C13.9306 28.4405 14.1759 28.253 14.4134 28.0538C14.6048 27.8936 14.7837 27.7194 14.9736 27.5569C15.0955 27.453 15.2283 27.3616 15.3541 27.2608L16.065 26.6882L16.6533 26.2179C16.7939 26.1046 16.9361 25.9913 17.079 25.8796C17.1751 25.8038 17.2744 25.7319 17.3697 25.6546C17.4454 25.5921 17.5103 25.5163 17.5884 25.4593L18.5618 24.7702C18.8134 24.5898 19.0572 24.3991 19.3079 24.2179L19.9814 23.7421C20.1962 23.5882 20.4095 23.4319 20.622 23.2734C20.9798 23.0046 21.3329 22.7304 21.6946 22.4655C21.936 22.2882 22.1853 22.1218 22.4337 21.9538C22.4743 21.9273 22.5017 21.8835 22.5064 21.8351C22.5259 21.6445 22.5314 21.4538 22.511 21.2624C22.5009 21.1616 22.5134 21.0593 22.5071 20.9577C22.5048 20.9195 22.4845 20.8609 22.4587 20.8515C22.429 20.8413 22.379 20.8702 22.3454 20.8929C22.1626 21.0124 21.9821 21.1359 21.8009 21.2577C21.7853 21.2687 21.7556 21.2781 21.736 21.2796C21.5978 21.2929 21.4767 21.357 21.3517 21.4085C21.3165 21.4226 21.2845 21.446 21.2493 21.4601C21.2235 21.4718 21.1884 21.489 21.1681 21.4804C21.0767 21.4421 20.9962 21.4835 20.9118 21.5023C20.6751 21.5562 20.4353 21.5898 20.1931 21.5749C19.7837 21.5499 19.4431 21.3835 19.1907 21.0632C19.0673 20.907 19.0165 20.7163 18.9728 20.5249C18.8829 20.1296 18.9103 19.7281 18.9134 19.3281C18.9142 19.1374 18.9197 18.9468 18.915 18.7562C18.9126 18.6499 18.8907 18.5453 18.8822 18.439C18.8775 18.3906 18.872 18.3374 18.8876 18.2937C18.9923 17.9859 18.947 17.6632 18.9907 17.3507C19.0595 16.8546 19.1236 16.357 19.2814 15.8773C19.4259 15.4382 19.6314 15.0289 19.9079 14.6554C20.0298 14.4906 20.1392 14.3117 20.2821 14.1664C20.4353 14.0101 20.622 13.8859 20.7946 13.75C20.8212 13.7289 20.8595 13.7211 20.8837 13.6976C21.1017 13.4906 21.39 13.4476 21.6626 13.3679C21.7978 13.3289 21.9337 13.3523 22.0579 13.407C22.1118 13.4312 22.1767 13.4961 22.1985 13.5508C22.236 13.6445 22.2524 13.7429 22.2142 13.8523C22.1853 13.9343 22.1876 14.0304 22.1689 14.1203C22.1298 14.3023 22.0071 14.4382 21.9251 14.5968C21.9009 14.6437 21.8376 14.6726 21.7907 14.7078C21.7142 14.764 21.6517 14.8297 21.6204 14.9226C21.6079 14.9586 21.5892 15.0007 21.5595 15.0203C21.4775 15.0773 21.4517 15.157 21.4118 15.2429C21.3728 15.3289 21.3165 15.4164 21.2673 15.5023C21.2345 15.5601 21.2126 15.6257 21.1954 15.6898C21.172 15.7742 21.1603 15.8578 21.0939 15.9273C21.0517 15.9703 21.0314 16.0375 21.0134 16.0976C20.9704 16.2429 20.947 16.3945 20.8931 16.5351C20.84 16.6726 20.8321 16.8164 20.8087 16.9585C20.797 17.0296 20.8103 17.1015 20.84 17.1671C20.8829 17.2609 20.8892 17.3421 20.8423 17.4343C20.8173 17.4851 20.8111 17.546 20.8032 17.6031C20.7861 17.7187 20.7712 17.8343 20.7603 17.9507C20.7532 18.0281 20.7548 18.107 20.7525 18.1843C20.7525 18.2187 20.7603 18.2546 20.7525 18.2859C20.6814 18.5476 20.722 18.8124 20.7462 19.0726C20.7595 19.2085 20.8173 19.346 20.8837 19.4695C20.9681 19.6273 21.1157 19.7046 21.3032 19.6882C21.6376 19.6585 21.9079 19.5101 22.1423 19.2718C22.3626 19.0484 22.4493 18.7742 22.497 18.4828C22.5649 18.064 22.6321 17.6453 22.6689 17.2218C22.6907 16.9695 22.7376 16.7187 22.7501 16.4656C22.7571 16.3367 22.7978 16.2031 22.7423 16.0734C22.7376 16.0632 22.7399 16.046 22.7462 16.0367C22.8321 15.9187 22.8126 15.7789 22.8243 15.6461C22.8478 15.4086 22.8712 15.1695 22.8876 14.932C22.9134 14.5664 22.9298 14.2007 22.9579 13.8359C22.9767 13.5976 22.9962 13.3578 23.0407 13.1234C23.1017 12.8062 23.3173 12.6125 23.6079 12.4781C23.8188 12.3797 24.036 12.3648 24.2579 12.3922C24.4032 12.4094 24.5352 12.4648 24.6438 12.582C24.761 12.7093 24.8181 12.8851 24.7954 13.0562C24.7829 13.1523 24.786 13.2515 24.7868 13.35C24.7868 13.3812 24.8056 13.4133 24.8102 13.4461C24.8149 13.4703 24.8142 13.4961 24.8102 13.5203C24.8071 13.5328 24.7837 13.5468 24.7868 13.5547C24.8477 13.7343 24.6985 13.9109 24.7806 14.0898C24.7118 14.2609 24.7977 14.4406 24.7259 14.6234C24.6571 14.7953 24.6696 15.0015 24.6563 15.1937C24.6329 15.5281 24.6212 15.8648 24.5954 16.2C24.5696 16.5359 24.5321 16.8695 24.5017 17.2046C24.4876 17.3507 24.4798 17.4968 24.4665 17.6429C24.4595 17.7195 24.4368 17.7953 24.4352 17.8718C24.4329 18.089 24.4196 18.3062 24.3962 18.5226C24.3837 18.6374 24.3829 18.7515 24.4181 18.8687C24.4415 18.9468 24.4095 19.039 24.4024 19.1249C24.3946 19.2453 24.3634 19.3695 24.3852 19.4843C24.4102 19.6202 24.3751 19.7437 24.3618 19.8726C24.3517 19.9781 24.3477 20.0843 24.3454 20.1906C24.3423 20.3163 24.3438 20.4421 24.3454 20.5679C24.3462 20.6007 24.3563 20.6327 24.3657 20.6866C24.4196 20.6616 24.4642 20.646 24.5024 20.621C24.7157 20.482 24.9251 20.3351 25.1423 20.1992C25.5337 19.9546 25.9298 19.7163 26.3235 19.4749C26.6329 19.2843 26.943 19.0945 27.2509 18.9023C27.4509 18.7781 27.6454 18.646 27.8469 18.5257C27.9563 18.4601 28.0735 18.4078 28.1907 18.3538C28.3235 18.2913 28.4524 18.2249 28.5587 18.1203C28.5774 18.1023 28.6079 18.0937 28.6344 18.0851C28.693 18.0656 28.7594 18.0593 28.8118 18.0288C29.186 17.8132 29.5563 17.5906 29.9305 17.3742C30.254 17.1874 30.5805 17.0054 30.9063 16.8226L32.5672 15.8937L33.7266 15.2437C33.8383 15.1812 33.9477 15.1156 34.0578 15.05C34.0875 15.0328 34.1172 15.014 34.143 14.9914C34.2078 14.9367 34.2008 14.9078 34.1274 14.8586C34.0422 14.8015 33.95 14.7484 33.8844 14.6734C33.7664 14.539 33.693 14.3781 33.6875 14.1968C33.6813 13.982 33.6844 13.7672 33.6797 13.5523C33.6743 13.2906 33.7227 13.0336 33.7383 12.7742C33.7407 12.7398 33.7477 12.7023 33.7375 12.6726C33.6735 12.4867 33.7024 12.307 33.7618 12.1273C33.7696 12.1047 33.7704 12.0804 33.7633 12.0578C33.7329 11.9664 33.6985 11.875 33.7664 11.7844C33.7383 11.4867 33.8938 11.2015 33.7219 10.889C33.6235 10.7094 33.6422 10.4945 33.7391 10.3156C33.8664 10.082 33.8 9.93358 33.6891 9.8078C33.661 9.77655 33.6211 9.73749 33.5829 9.73359C33.3914 9.71249 33.1961 9.65077 33.0133 9.77734C32.8938 9.86093 32.7602 9.92421 32.6469 10.0148C32.5727 10.0758 32.518 10.157 32.4774 10.2437C32.4493 10.3008 32.4125 10.3367 32.3665 10.3734C32.2727 10.4476 32.1797 10.518 32.1422 10.6469C32.1258 10.7055 32.0407 10.7453 31.9766 10.8008C31.9657 10.9015 31.9641 11.0195 31.8829 11.1148C31.8672 11.1336 31.8696 11.1695 31.8665 11.1969C31.854 11.2953 31.8868 11.4023 31.8118 11.4898C31.8055 11.4976 31.8094 11.5172 31.8118 11.5305C31.8297 11.6148 31.8305 11.6148 31.7383 11.5992L31.6961 11.6945L31.761 11.7375V11.9304C31.7258 11.9461 31.6711 11.9539 31.6524 11.9844C31.6336 12.014 31.643 12.0679 31.6524 12.1078C31.6665 12.1687 31.6891 12.2273 31.7118 12.2851C31.736 12.3469 31.729 12.3945 31.6782 12.4422C31.6297 12.4883 31.5844 12.5422 31.5547 12.6015C31.5391 12.6328 31.5422 12.7047 31.5641 12.7187C31.6579 12.782 31.6391 12.8781 31.6547 12.9648L31.6727 13.0789C31.6415 13.0922 31.6102 13.1453 31.5618 13.082C31.5415 13.1687 31.4696 13.2461 31.5477 13.3367C31.5516 13.3406 31.5469 13.3554 31.5422 13.3633C31.4407 13.5554 31.5055 13.7632 31.486 13.9632C31.479 14.039 31.5501 14.0101 31.5821 14.0445C31.5227 14.1343 31.4321 14.2234 31.5446 14.3289L31.4915 14.3789L31.593 14.4609C31.5727 14.5297 31.5477 14.5922 31.5368 14.657C31.5266 14.7156 31.5555 14.8 31.5243 14.8336C31.4563 14.907 31.5258 14.9445 31.536 14.9992C31.5438 15.0367 31.5336 15.0836 31.5157 15.1187C31.4555 15.239 31.3883 15.3562 31.3243 15.4742C31.3219 15.4781 31.3172 15.482 31.3165 15.4867C31.2891 15.7211 31.0899 15.8101 30.9258 15.9195C30.793 16.0085 30.6383 16.0679 30.4922 16.1367C30.3149 16.2203 30.1258 16.2203 29.9407 16.1828C29.7079 16.1359 29.6118 15.9851 29.5727 15.7187C29.5571 15.6187 29.5571 15.5171 29.561 15.4156C29.5868 14.8812 29.6188 14.3476 29.6454 13.814C29.6571 13.5843 29.6602 13.3554 29.6712 13.1265C29.6899 12.7468 29.7133 12.3672 29.7321 11.9883C29.7477 11.6906 29.7587 11.393 29.7735 11.0953C29.7821 10.9148 29.7821 10.7328 29.8079 10.5539C29.8587 10.207 29.9954 9.88202 30.2469 9.64218C30.5547 9.34765 30.929 9.16171 31.3829 9.22109C31.429 9.22734 31.4985 9.21484 31.5383 9.18984C31.6415 9.12734 31.7258 9.14296 31.8375 9.1914C31.9782 9.25234 32.1407 9.26796 32.2946 9.20937C32.5211 9.12343 32.7125 8.9914 32.8571 8.80156C32.8922 8.75625 32.95 8.68437 32.9899 8.64375C33.118 8.51641 33.2446 8.38828 33.3743 8.26328C33.4086 8.22891 33.4485 8.20078 33.4914 8.17734C33.6711 8.07578 33.8446 7.95625 34.0352 7.87969ZM14.3853 0.00786016C14.4548 -0.00463977 14.6283 4.78159e-05 14.7001 0.00629778C14.8251 0.0172352 14.9712 0.0586411 15.1095 0.100047C15.6001 0.248484 15.9189 0.55942 16.0572 1.0516C16.1119 1.24613 16.1353 1.4391 16.1275 1.6391C16.1197 1.87972 16.04 2.09535 15.9072 2.29379C15.8353 2.40003 15.7556 2.50081 15.6822 2.60628C15.6689 2.62503 15.6572 2.65316 15.6611 2.67347C15.6775 2.76878 15.6033 2.82972 15.572 2.9055C15.5642 2.92269 15.5353 2.93519 15.5134 2.943C15.4173 2.97816 15.3283 3.01566 15.3126 3.13597C15.3064 3.1805 15.2744 3.1844 15.2283 3.16097C15.1291 3.2555 15.0244 3.343 14.9345 3.443C14.6689 3.74065 14.4166 4.04924 14.2048 4.38674C14.1314 4.50393 14.0845 4.63674 14.0041 4.7469C13.6502 5.23283 13.4728 5.80158 13.2228 6.33517C13.0775 6.6461 12.9494 6.96407 12.8088 7.27735C12.7697 7.36641 12.7463 7.45313 12.7509 7.55079C12.7533 7.60235 12.7361 7.65782 12.7158 7.70625C12.6869 7.77422 12.6447 7.83594 12.6127 7.90313C12.5134 8.10781 12.4127 8.31094 12.3205 8.51875C12.2744 8.62265 12.2384 8.73203 12.2142 8.84297C12.1869 8.96328 12.147 9.07343 12.0806 9.18046C12.0236 9.27187 11.997 9.38203 11.9619 9.48593C11.9134 9.62968 11.8728 9.77577 11.8244 9.91952C11.7752 10.0641 11.7166 10.2055 11.6705 10.3508C11.6314 10.4773 11.6002 10.6062 11.5713 10.7359C11.5213 10.964 11.4713 11.1906 11.3634 11.4C11.3353 11.4547 11.3369 11.507 11.3681 11.5562C11.4041 11.6109 11.3838 11.6484 11.3525 11.7023C11.2791 11.8328 11.197 11.957 11.165 12.1125C11.1228 12.314 11.0845 12.5195 10.976 12.7039C10.9189 12.8008 10.8822 12.9008 10.8744 13.0218C10.8603 13.2328 10.8072 13.4406 10.7752 13.65C10.7674 13.7015 10.7791 13.7562 10.7791 13.8093C10.7791 13.9515 10.7181 14.0773 10.6627 14.2039C10.6533 14.2257 10.6369 14.2523 10.6158 14.2601C10.501 14.307 10.4806 14.4117 10.4541 14.5132L10.3635 14.857C10.358 14.8757 10.351 14.8992 10.3369 14.9093C10.24 14.9828 10.2549 15.1062 10.201 15.1992C10.1674 15.2586 10.1564 15.3296 10.126 15.3914C10.0392 15.5632 9.98533 15.7461 9.93846 15.9304L9.84861 16.2984C9.75252 16.6679 9.67518 17.0421 9.58924 17.4132C9.52127 17.7023 9.45096 17.9914 9.38612 18.282C9.38143 18.3023 9.3783 18.3226 9.3783 18.3437L9.37283 18.4695C9.37049 18.4984 9.37049 18.5343 9.35408 18.5538C9.30721 18.6093 9.36268 18.6585 9.35408 18.7085C9.34627 18.7562 9.28377 18.7867 9.32362 18.8546C9.34002 18.8828 9.31346 18.9538 9.28455 18.9874C9.17206 19.114 9.12362 19.3007 9.16112 19.457C9.20565 19.646 9.20174 19.8288 9.06737 19.9921C9.03221 20.0343 8.99862 20.1062 9.01112 20.1523C9.05565 20.3117 8.97674 20.4437 8.93143 20.5804C8.90956 20.6468 8.88924 20.707 8.89081 20.7781C8.89315 20.914 8.88768 21.0507 8.87831 21.1859C8.87596 21.221 8.85253 21.2601 8.82753 21.2859C8.77909 21.3366 8.75253 21.3859 8.77284 21.4593C8.78534 21.4991 8.78221 21.5476 8.77284 21.5898C8.72362 21.8202 8.66659 22.0491 8.61972 22.2804C8.59784 22.3866 8.59315 22.496 8.57909 22.6046C8.56737 22.6921 8.62596 22.7249 8.70721 22.7499C8.70096 22.8757 8.72284 23.0069 8.683 23.1155C8.63221 23.253 8.64706 23.4124 8.51737 23.5288C8.44706 23.5929 8.41815 23.703 8.41581 23.8155C8.41034 23.9874 8.37675 24.1593 8.35487 24.3319C8.34862 24.3812 8.34159 24.4296 8.33612 24.4788C8.32831 24.5538 8.33612 24.614 8.40409 24.6741C8.49784 24.7585 8.46034 24.8312 8.29706 24.8929C8.3205 25.0429 8.2455 25.1741 8.20175 25.3147C8.15331 25.4702 8.14237 25.6366 8.1205 25.7991C8.06503 26.2171 8.00956 26.6351 7.95722 27.0546C7.89941 27.5179 7.84784 27.9811 7.78769 28.4444C7.72909 28.896 7.66503 29.3483 7.60019 29.7999C7.55175 30.1436 7.50488 30.4874 7.44394 30.8296C7.39707 31.0921 7.33769 31.353 7.2705 31.6116C7.16504 32.0186 6.78457 32.2092 6.45098 32.2522C6.05957 32.3038 5.70254 31.9694 5.64161 31.6514C5.57286 31.2967 5.47442 30.9475 5.40333 30.5928C5.34239 30.2913 5.30333 29.9858 5.25177 29.6827C5.20489 29.4046 5.15645 29.128 5.10723 28.8507C5.10255 28.8218 5.09161 28.7913 5.07442 28.7686C5.04083 28.7241 5.03302 28.6843 5.05724 28.6311C5.07052 28.603 5.06505 28.5616 5.05724 28.5296C4.99239 28.2749 4.96505 28.0139 4.92364 27.7561C4.9127 27.6905 4.88614 27.6413 4.80802 27.6413C4.90802 27.4702 4.89864 27.4194 4.73927 27.2921C4.74474 27.2593 4.74708 27.2202 4.75958 27.1835C4.79474 27.0741 4.78771 26.9655 4.77052 26.8585L4.73146 26.6436C4.66505 26.228 4.59786 25.8124 4.53224 25.396C4.48536 25.0976 4.4424 24.7991 4.39786 24.5007L4.21896 23.2968C4.17443 23.0023 4.12599 22.7085 4.08224 22.414C4.03537 22.1046 3.99162 21.7945 3.94708 21.4851C3.94318 21.4554 3.94865 21.4187 3.93224 21.3984C3.82521 21.2624 3.8588 21.1054 3.85568 20.9531C3.85334 20.8695 3.84318 20.7859 3.83068 20.7031C3.77131 20.3101 3.70959 19.9187 3.64787 19.5265C3.62756 19.3945 3.61427 19.2609 3.58381 19.132C3.56974 19.0734 3.52912 19.0156 3.48771 18.9687C3.44474 18.9203 3.42678 18.8749 3.43146 18.8085C3.43615 18.7492 3.41193 18.6874 3.40881 18.6273C3.40568 18.557 3.40959 18.4851 3.41662 18.4148C3.41974 18.3679 3.43381 18.3226 3.44318 18.2773C3.39631 18.2148 3.35724 18.2828 3.30568 18.2976C3.30256 18.2656 3.29162 18.239 3.30021 18.2218C3.33381 18.1507 3.31271 18.0929 3.25412 18.0531C3.19865 18.0156 3.13537 17.9851 3.07209 17.964C3.05647 17.9593 3.01428 17.9992 3.00178 18.0265C2.96428 18.1117 2.93928 18.2031 2.89943 18.2874C2.8799 18.3281 2.83928 18.3585 2.80725 18.3929C2.79475 18.4054 2.76428 18.4179 2.76584 18.4257C2.78381 18.5148 2.70881 18.5273 2.65647 18.5531C2.67366 18.6757 2.64866 18.7765 2.59397 18.889C2.54006 18.9976 2.43772 19.0984 2.46116 19.2374C2.37131 19.3765 2.37678 19.5468 2.31428 19.689C2.301 19.7202 2.29084 19.7515 2.28303 19.7827L2.24006 19.9648C2.20881 20.082 2.14631 20.1913 2.09475 20.3038C2.07756 20.3406 2.05178 20.3742 2.0885 20.4007C2.04944 20.4632 1.9885 20.5226 1.97913 20.5882C1.9596 20.7421 1.85569 20.8538 1.80725 20.9921C1.76585 21.1124 1.70022 21.2257 1.66663 21.3476C1.64085 21.4413 1.54163 21.5077 1.56976 21.6179C1.49241 21.6866 1.42366 21.7679 1.33773 21.821C1.07679 21.9851 0.79554 22.053 0.491636 21.9484C0.148669 21.8312 -0.0560172 21.482 0.0135137 21.1312C0.0322636 21.039 0.0603887 20.9476 0.0916386 20.8585C0.208044 20.5257 0.348668 20.1999 0.438511 19.8609C0.516636 19.5702 0.652573 19.307 0.75101 19.0273C0.771322 18.9671 0.768978 18.8992 0.788509 18.839C0.828353 18.7195 0.847884 18.5968 0.937728 18.4906C0.99554 18.4218 0.993196 18.3046 1.01898 18.2093C1.03773 18.1382 1.03851 18.0531 1.08148 17.9992C1.19398 17.8554 1.23694 17.682 1.27366 17.5179C1.32444 17.2937 1.42054 17.0875 1.48616 16.8695L1.63616 16.432C1.67835 16.2953 1.69866 16.1515 1.7471 16.0171C1.80569 15.8484 1.88694 15.6882 1.90022 15.507C2.12678 15.0382 2.2221 14.5257 2.41741 14.0461C2.48147 13.8898 2.52287 13.7257 2.58225 13.5672C2.67209 13.3273 2.82209 13.1336 3.04631 12.9968C3.45021 12.7523 4.05177 12.8336 4.3338 13.2328C4.45646 13.4047 4.53536 13.6 4.57208 13.8086C4.66349 14.3211 4.75411 14.8336 4.84083 15.3476C4.87989 15.582 4.9088 15.8187 4.9463 16.0539C4.95645 16.1218 4.98145 16.1867 4.99708 16.2539C5.00333 16.282 5.00177 16.3109 5.00255 16.3398C5.00255 16.364 4.99317 16.3937 5.00255 16.4125C5.07677 16.5515 5.05333 16.7132 5.11427 16.8546C5.12755 16.8867 5.12208 16.9273 5.12286 16.964C5.12286 16.9874 5.1127 17.0281 5.12208 17.0328C5.23692 17.0929 5.16817 17.2124 5.21114 17.2945C5.21739 17.307 5.21973 17.3249 5.21583 17.3382C5.15333 17.557 5.24239 17.7593 5.27833 17.9671C5.3127 18.1648 5.3213 18.3679 5.36973 18.5617C5.40333 18.6953 5.40255 18.8296 5.42676 18.9609C5.43614 19.0124 5.47755 19.0585 5.5127 19.1226C5.48458 19.1749 5.5127 19.2367 5.53926 19.3101C5.60958 19.507 5.73458 19.689 5.70411 19.9171C5.69629 19.9788 5.76114 20.0492 5.79473 20.1202C5.70411 20.2476 5.76348 20.3866 5.80801 20.5156C5.84942 20.6351 5.88301 20.7499 5.87598 20.8765C5.86661 21.046 5.94239 21.1952 5.99551 21.3499C6.00567 21.3781 6.0166 21.4054 6.02989 21.432C6.08457 21.5405 6.07364 21.6382 6.02989 21.7546C5.98223 21.8796 5.95332 22.0312 5.98301 22.1562C6.0127 22.2812 6.0166 22.4327 6.13613 22.5335C6.16738 22.5593 6.17832 22.6234 6.17832 22.6702C6.1791 22.7687 6.16582 22.8655 6.15957 22.964C6.15645 23.0234 6.1377 23.089 6.15567 23.1405C6.21582 23.3148 6.21035 23.4921 6.21582 23.671C6.21738 23.7194 6.20879 23.7702 6.27129 23.796C6.28926 23.8038 6.30645 23.8343 6.30723 23.8546C6.31113 23.9569 6.30645 24.0601 6.3127 24.1624C6.31504 24.2023 6.33067 24.2476 6.3541 24.2796C6.38066 24.3148 6.42363 24.3382 6.47676 24.3812C6.50566 24.2937 6.54551 24.2132 6.55801 24.1296C6.60098 23.8444 6.62988 23.5585 6.67285 23.2741C6.7416 22.8124 6.81816 22.3523 6.89082 21.8905C6.92207 21.6937 6.94941 21.4968 6.97988 21.3007C7.00175 21.1585 7.02441 21.0163 7.05019 20.8741C7.11972 20.4835 7.20253 20.0929 7.25957 19.7007C7.3205 19.2765 7.40722 18.8593 7.49863 18.4413C7.53535 18.2773 7.56894 18.1117 7.60175 17.946L7.79316 16.9515C7.81503 16.8445 7.84237 16.7382 7.86737 16.632L8.04316 15.9078C8.06191 15.8312 8.08612 15.7554 8.10565 15.6796C8.25097 15.1218 8.39315 14.5632 8.54237 14.007C8.58456 13.8492 8.65096 13.6984 8.69393 13.5414C8.72596 13.4226 8.73221 13.2961 8.7619 13.1765C8.8244 12.9312 8.89237 12.6875 8.96034 12.4437C9.03221 12.1844 9.10877 11.9273 9.17987 11.6679C9.22518 11.5062 9.26424 11.3422 9.30643 11.1789C9.30877 11.1695 9.30799 11.157 9.31424 11.1508C9.40799 11.0484 9.39237 10.9226 9.39549 10.7992C9.39549 10.7656 9.39705 10.725 9.41502 10.6992C9.53221 10.5273 9.53768 10.3219 9.59471 10.1336C9.67596 9.85702 9.75174 9.58124 9.88065 9.32031C9.95643 9.16562 9.99939 8.99375 10.0431 8.82656C10.0783 8.69141 10.1049 8.55859 10.1861 8.4375C10.2369 8.36094 10.2595 8.26406 10.2916 8.17578C10.5002 7.60547 10.7088 7.03516 10.915 6.46485C11.0119 6.19767 11.0994 5.92814 11.1978 5.66252C11.3517 5.24689 11.5111 4.8344 11.6674 4.41955C11.8299 3.98674 11.99 3.55237 12.1549 3.12034C12.215 2.96253 12.2861 2.80784 12.3486 2.6516C12.4314 2.44378 12.5127 2.23519 12.5908 2.0266C12.7064 1.72348 12.8439 1.43285 13.0056 1.15082C13.1564 0.886762 13.3462 0.661763 13.5634 0.455514C13.7962 0.235203 14.0611 0.0648911 14.3853 0.00786016ZM12.3127 17.4195L12.422 17.4265C12.5994 17.4507 12.708 17.546 12.7564 17.6937C12.7877 17.7859 12.8416 17.8749 12.8134 17.9859C12.8017 18.0312 12.8673 18.0937 12.9017 18.157C12.7916 18.214 12.7689 18.2406 12.7947 18.3484C12.8166 18.4367 12.8611 18.5203 12.9041 18.6242C12.8752 18.6742 12.8533 18.7421 12.89 18.8242C12.9056 18.8585 12.8775 18.9179 12.8556 18.9585C12.8134 19.0343 12.7994 19.1085 12.8041 19.1952C12.8088 19.2945 12.7908 19.3968 12.7736 19.496C12.7463 19.6554 12.7463 19.8218 12.6556 19.9679C12.6431 19.9867 12.6478 20.0148 12.6478 20.039C12.6439 20.2515 12.6478 20.464 12.6369 20.6757C12.6306 20.7788 12.6134 20.8874 12.5689 20.9804C12.5259 21.071 12.533 21.1577 12.5259 21.2484C12.5181 21.3484 12.5025 21.4484 12.4869 21.5476C12.4681 21.6616 12.4431 21.7749 12.4259 21.889C12.3916 22.1179 12.3556 22.3476 12.3322 22.5773C12.3173 22.7148 12.3345 22.8538 12.3244 22.9913C12.3088 23.1866 12.3642 23.3812 12.2892 23.5773C12.2384 23.7108 12.2408 23.8616 12.2158 24.0046C12.2072 24.0554 12.1845 24.1046 12.1713 24.1554C12.1588 24.2046 12.1509 24.2546 12.14 24.3108L12.2806 24.3187L12.2478 24.4577C12.1845 24.4765 12.0939 24.4304 12.0845 24.5312C12.0838 24.5437 12.0494 24.5663 12.0392 24.5624C11.9408 24.528 11.9174 24.6124 11.8658 24.653C11.6627 24.8108 11.4533 24.9601 11.2142 25.0749C11.0845 25.1366 10.9564 25.171 10.8127 25.1585C10.522 25.1351 10.3455 24.9897 10.3314 24.7194C10.3158 24.4163 10.3244 24.1116 10.3322 23.8069C10.34 23.5218 10.3619 23.2374 10.3744 22.9523C10.3861 22.7023 10.3783 22.453 10.4361 22.2054C10.4619 22.0913 10.4377 21.9679 10.4361 21.8491C10.4361 21.8257 10.4283 21.7905 10.4416 21.7804C10.483 21.7484 10.4916 21.7101 10.4924 21.671V21.5913L10.5392 20.7523C10.5478 20.5702 10.5533 20.3882 10.5595 20.2054C10.5611 20.182 10.5595 20.1577 10.5611 20.1335C10.5845 19.8781 10.6025 19.6226 10.633 19.3679C10.672 19.0406 10.7533 18.7242 10.9002 18.421C11.0439 18.1249 11.2572 17.8945 11.5447 17.7124C11.7181 17.6015 11.8963 17.5054 12.0994 17.4507C12.2056 17.4218 12.3103 17.4109 12.4228 17.4265L12.3127 17.4195ZM17.4986 15.4836C17.6626 15.4836 17.8001 15.5312 17.8806 15.6898C17.9353 15.7984 17.9954 15.9039 18.0415 16.0156C18.0634 16.0687 18.0603 16.1335 18.065 16.1937C18.0658 16.2171 18.0509 16.2406 18.0525 16.2632C18.0728 16.6054 17.8454 16.7945 17.6189 16.982C17.4611 17.1124 17.3001 17.2398 17.1353 17.3617C16.8751 17.5539 16.6978 17.8156 16.5244 18.0835C16.4814 18.1507 16.4494 18.2195 16.4486 18.3054C16.4486 18.3601 16.4064 18.4117 16.3915 18.4671C16.3642 18.5679 16.3658 18.6734 16.3189 18.7726C16.2915 18.8304 16.3064 18.9078 16.3009 18.9999C16.2306 19.0468 16.2142 19.1413 16.2142 19.2234C16.2142 19.3913 16.1705 19.5562 16.2001 19.7273C16.2158 19.8242 16.1783 19.9304 16.1736 20.032C16.1556 20.4312 16.1353 20.8304 16.1267 21.2296C16.1205 21.5046 16.1009 21.7796 16.0572 22.0491C16.0173 22.3015 15.9025 22.5288 15.715 22.7132C15.4337 22.9913 15.0853 23.1601 14.7634 23.2194C14.5923 23.2507 14.4142 23.1562 14.315 22.978C14.2509 22.8632 14.2056 22.7398 14.2056 22.6038C14.2041 22.4351 14.2173 22.2632 14.1978 22.096C14.1783 21.9335 14.2384 21.7835 14.2369 21.6257C14.2353 21.446 14.2791 21.2695 14.2252 21.0851C14.197 20.9913 14.247 20.8741 14.258 20.7679C14.2634 20.714 14.2728 20.6577 14.2619 20.6062C14.2361 20.4851 14.2791 20.3687 14.272 20.2507C14.272 20.246 14.2752 20.2413 14.2744 20.2366C14.2634 20.0827 14.2853 19.9367 14.3423 19.7906C14.3697 19.7202 14.3548 19.6327 14.3619 19.5538C14.3759 19.3992 14.3939 19.2452 14.4048 19.0906C14.4212 18.8421 14.4337 18.5937 14.4462 18.3445C14.4595 18.0867 14.4642 17.8273 14.4822 17.5695C14.5017 17.296 14.5619 17.0281 14.6814 16.7812C14.8017 16.5328 15.0072 16.3632 15.247 16.2367C15.4845 16.1117 15.7408 16.057 16.0072 16.0289C16.1814 16.0101 16.3486 15.9562 16.5048 15.8679C16.5908 15.8195 16.6876 15.7945 16.7783 15.7546C16.872 15.7117 16.9634 15.6625 17.0572 15.6187C17.1978 15.5515 17.3384 15.4843 17.4986 15.4836ZM27.9876 10.3289C28.1634 10.3398 28.2532 10.4281 28.2493 10.5797C28.2462 10.6742 28.304 10.7453 28.3477 10.814C28.4055 10.9055 28.3829 10.993 28.3821 11.0812C28.3821 11.1547 28.3696 11.2375 28.3282 11.2992C28.279 11.3719 28.3157 11.4351 28.3102 11.5023C28.3009 11.6273 28.2923 11.757 28.2032 11.8797C28.2219 11.9008 28.254 11.9211 28.2509 11.9367C28.2313 12.0304 28.2032 12.1242 28.1798 12.2187C28.1407 12.3734 28.1462 12.5281 28.1884 12.6812C28.2055 12.7437 28.2079 12.8023 28.1837 12.8656C28.1688 12.907 28.1852 12.957 28.1891 13.0031C28.1891 13.0125 28.2024 13.0211 28.2016 13.0297C28.1938 13.1922 28.1829 13.3554 28.1782 13.5179C28.1766 13.5976 28.1829 13.6781 28.1954 13.757C28.2157 13.882 28.2079 13.9906 28.1016 14.0953C28.0587 14.1382 28.0766 14.2304 28.0735 14.3007C28.0712 14.3687 28.0735 14.4359 28.1626 14.475C28.1891 14.4867 28.1993 14.525 28.2344 14.5765L28.0602 14.5476C28.079 14.5882 28.0923 14.6226 28.1118 14.6547C28.1274 14.6828 28.1509 14.707 28.1798 14.7453L28.0563 14.7375C28.043 14.8273 28.0235 14.9171 28.0173 15.007C28.0016 15.2828 27.986 15.5593 27.9774 15.8351C27.9766 15.8539 27.979 15.8726 27.9829 15.8906L28.011 16.0015C28.0188 16.0437 28.029 16.0867 28.0251 16.1281C28.0204 16.1843 27.993 16.2398 27.9954 16.2953C28.0032 16.4531 27.8798 16.5632 27.7969 16.6804C27.693 16.8273 27.5493 16.9554 27.372 17.0453C27.1876 17.139 27.0024 17.2312 26.8141 17.3171C26.6688 17.3835 26.5149 17.4265 26.3454 17.4187C25.9891 17.3992 25.8165 17.2242 25.8079 16.9273C25.8001 16.6812 25.8306 16.4328 25.8548 16.1867C25.8938 15.8 25.9438 15.414 25.9876 15.0273C26.047 14.4961 26.1001 13.9648 26.1657 13.4336C26.2235 12.9609 26.2946 12.4898 26.3595 12.0179C26.3727 11.9164 26.3884 11.8164 26.3962 11.7148C26.4165 11.4469 26.529 11.2031 26.6743 10.9726C26.822 10.7383 27.0501 10.5633 27.3157 10.4258C27.5243 10.3195 27.7571 10.3141 27.9876 10.3289ZM13.0744 12.9031C13.2822 12.9 13.3556 12.9476 13.415 13.0961C13.4337 13.1429 13.4478 13.1929 13.4744 13.2359C13.5916 13.4234 13.5502 13.6195 13.4822 13.8023C13.44 13.9132 13.3392 14.0039 13.265 14.1039C13.2627 14.107 13.2548 14.107 13.2533 14.1101C13.1127 14.3461 12.8658 14.4632 12.6439 14.607C12.5298 14.6804 12.4064 14.7414 12.283 14.8C12.108 14.8828 11.9353 14.8203 11.8017 14.7289C11.6814 14.6461 11.6166 14.5039 11.6134 14.3461C11.6103 14.2148 11.6416 14.0898 11.7002 13.9765C11.7603 13.8593 11.7861 13.7265 11.8845 13.6273C11.9603 13.5523 12.0252 13.464 12.1088 13.3984C12.2681 13.2734 12.4314 13.1523 12.6048 13.0468C12.7556 12.9554 12.9283 12.9023 13.0744 12.9031ZM28.2055 7.13126C28.3719 7.08907 28.5352 7.07735 28.7001 7.14298C28.7485 7.16251 28.8048 7.1586 28.8641 7.16641C28.9251 7.28048 29.0188 7.37735 29.0305 7.52969C29.0368 7.62344 29.0258 7.70157 29.0055 7.79219C28.9548 8.02656 28.8133 8.19141 28.6696 8.36016C28.643 8.39141 28.6188 8.42344 28.5993 8.45937C28.4493 8.72656 28.2055 8.87812 27.9485 8.99218C27.7954 9.06015 27.6126 9.03437 27.4485 8.97031C27.3766 8.9414 27.3032 8.9039 27.2454 8.85234C27.2001 8.81172 27.168 8.74687 27.1485 8.68594C27.0087 8.26406 27.1688 7.9211 27.4313 7.62032C27.6407 7.38126 27.8977 7.2086 28.2055 7.13126Z" fill="black"/>
</svg>
