<svg width="40" height="40" viewBox="0 0 40 40" fill="none" xmlns="http://www.w3.org/2000/svg">
<path fill-rule="evenodd" clip-rule="evenodd" d="M36.2287 18.7428C34.6549 19.0751 34.1703 17.7108 32.8614 16.8468C31.5478 15.9819 30.3432 15.6505 29.1276 14.4432C28.6393 13.9558 28.5147 13.1241 28.0291 12.6155C27.3821 11.9269 26.9879 11.7386 26.1092 11.3961C24.5676 10.798 23.2449 10.3549 21.9637 9.30078C21.7468 9.1254 21.2381 8.89094 20.7628 8.80233C20.5597 8.75894 20.4683 8.79125 20.4 8.86879C20.2089 9.11432 20.0345 9.41062 19.8646 9.68939C19.8176 9.766 19.6597 9.98938 19.5323 10.1103C19.284 10.3318 18.9748 10.6198 18.7385 10.7518C17.449 11.5392 15.7505 12.2047 15.0176 13.5238C14.8819 13.7656 13.4761 14.421 13.1512 14.6739C12.6407 15.0948 12.1395 15.5056 11.6143 15.8933C11.1232 16.2598 10.4429 16.8247 9.93063 17.2013C9.66017 17.1025 9.38325 17.0139 9.12757 16.9705C8.52388 16.8468 8.0162 16.3816 7.49744 16.0724C6.83191 15.6505 6.88176 15.6071 6.6713 15.4835C6.48761 15.3847 6.39715 15.3182 6.32607 15.2859C5.83131 14.9961 5.80177 15.2859 5.09932 15.717C4.5141 16.0724 3.83934 16.6696 3.33627 17.1459C2.93474 17.5234 2.52582 17.9222 2.10675 18.332C2.70767 9.26755 10.3755 2.11104 19.7502 2.11104C29.0306 2.11104 36.6367 9.13555 37.3705 18.0653C37.0844 18.4428 36.6782 18.644 36.2287 18.7428ZM19.7391 0C9.38972 0 1 8.35926 1 18.6689C1 22.9658 2.45844 26.9073 4.90456 30.0632L5.41593 29.6414C4.05441 27.8045 3.05012 25.6999 2.50275 23.4089C2.66059 23.4421 2.85166 23.4966 3.16735 23.5953C4.20857 23.9286 6.17192 24.5692 7.58605 23.9286C8.48511 23.5076 10.0506 23.1633 10.6506 22.9316C11.2192 22.699 12.4201 23.2187 11.0032 22.2892H10.9958C10.9774 22.2781 10.9552 22.267 10.9238 22.256C10.8768 22.2338 10.8306 22.2227 10.7771 22.2117C10.6386 22.1784 9.50233 22.399 9.25033 22.3667C9.17187 22.3446 9.09618 22.3215 9.02141 22.2781C8.40481 21.9458 11.0365 19.8985 11.1232 19.3871C10.3672 19.4665 9.74417 19.9428 9.06849 20.24C8.27466 20.5843 7.40329 20.5954 6.55222 20.6055C5.57931 20.6055 4.8224 21.3597 3.96765 21.704C3.51996 21.8904 2.78613 22.0575 2.29044 22.3778C2.25352 22.1683 2.22213 21.9569 2.19444 21.7474C2.21013 21.3809 2.24983 20.9378 2.34029 20.4292C2.53505 19.3215 2.98643 18.4576 3.99072 17.1293C3.99072 17.1293 4.96917 15.957 5.54055 15.5795C5.76208 15.4235 6.00208 15.2148 6.23838 15.3579C6.48761 15.5139 6.16915 16.4767 6.83745 16.6419C7.24083 16.7305 6.88452 17.3951 7.02391 17.7828C7.1716 18.1926 5.36239 19.7757 5.83962 19.964C6.10546 20.0748 7.30452 19.4665 7.94051 19.2662C8.50173 19.0899 9.09895 19.0788 9.71371 18.5019C10.3469 17.9148 10.9746 17.5825 10.9746 17.5825C11.4897 17.1505 11.99 16.7084 12.4977 16.2764C12.9934 15.8444 13.4669 15.4013 13.9469 14.9582C14.2478 14.6721 15.6075 13.9189 15.7284 13.6632C16.3607 12.3017 18.0111 11.5032 19.2388 10.6401C19.464 10.486 19.7086 10.1528 19.848 9.96631C19.9865 9.77708 20.1342 9.49001 20.2145 9.39955C20.3705 9.22324 20.4083 9.09125 20.5837 9.00263C20.6539 8.96755 20.9308 8.96755 21.0508 9.10232C21.4505 9.52324 21.9951 9.88877 22.0144 10.3309C22.0486 11.0168 23.976 11.6158 24.4153 12.1475C24.5963 12.3681 24.7024 12.5786 24.7772 12.7881C24.4412 12.6561 24.1098 12.4909 23.8163 12.2804C23.6215 12.1364 23.1674 12.1697 22.9357 12.1364C22.2692 12.0127 22.4234 12.3238 22.7917 12.6995C23.1692 13.0992 23.6077 13.4315 23.952 13.8635C24.3489 14.3509 24.3129 14.7496 24.4199 15.3358C24.5381 15.957 24.911 16.4988 25.2166 17.0527C25.5267 17.6047 25.5055 18.1926 25.6781 18.7908C25.8636 19.3871 26.3741 19.8874 26.7968 20.3305C27.1568 20.7052 27.9784 21.6264 28.427 21.4261C28.9033 21.2277 29.4949 21.8018 29.6731 21.6366C29.854 21.4806 29.1959 20.7163 29.4479 20.4846C29.7008 20.2511 30.7955 20.6166 31.0217 21.3154C31.2765 22.135 31.2497 22.2015 31.21 22.7867C31.1823 23.1744 31.0291 23.4855 30.7678 23.7606C30.4429 24.0827 29.6897 24.6245 29.8383 25.1692C30.5288 24.8036 31.2801 24.7704 32.0518 24.7925C32.7995 24.8147 33.3506 24.5036 33.8509 23.9729C34.0724 23.7393 34.7084 22.9981 35.0693 23.3756C35.289 23.5953 34.6475 24.5036 35.3518 24.3162C35.8207 24.1935 36.2388 23.8289 36.6644 23.5963C36.7779 23.5298 36.8831 23.4633 36.9736 23.3978C36.4179 25.7221 35.3915 27.87 33.9949 29.73L34.5081 30.1509C36.9893 26.9848 38.4791 22.9981 38.4791 18.6689C38.4791 8.35833 30.0866 0 19.7391 0ZM13.0524 29.6949C13.0229 29.8915 12.7478 31.5909 12.4469 33.4675C11.8949 33.3447 11.3457 33.137 10.73 32.7973C10.1171 32.4567 9.65187 32.1078 9.26141 31.7026C10.6986 30.4518 11.9964 29.3229 12.1571 29.1919C12.5447 28.8623 12.734 28.7857 12.914 28.8845C13.0912 28.9823 13.129 29.1909 13.0524 29.6949ZM14.0733 26.9627C14.0733 26.9627 14.0272 26.9304 13.9746 26.9054C13.9247 26.8833 13.8878 26.8621 13.8832 26.8501C13.886 26.8621 13.8878 26.862 13.8878 26.862C13.0081 26.3756 12.1395 26.3987 11.1398 27.1279C9.75986 28.1211 3.11566 33.7213 3.11566 33.7213L5.03286 35.3459C5.03286 35.3459 6.09808 34.4182 7.40421 33.2912C8.04482 33.8542 8.7648 34.3638 9.57525 34.8161C10.3783 35.2582 11.1998 35.5988 12.0149 35.8315L11.5128 38.9357L13.9053 39.6982C13.9053 39.6982 15.1745 31.1155 15.2945 29.4245C15.3859 28.1986 14.9447 27.4482 14.0733 26.9627ZM20.9483 40V27.739H18.4283V40H20.9483ZM28.5396 32.8084C27.9211 33.1481 27.3719 33.3438 26.8227 33.4675C26.5264 31.5909 26.2596 29.8915 26.2227 29.6949C26.1498 29.1909 26.1858 28.9934 26.3667 28.8845C26.5421 28.7857 26.7359 28.8623 27.1181 29.1909C27.2842 29.3331 28.583 30.4629 30.0165 31.7127C29.6233 32.1078 29.158 32.4678 28.5396 32.8084ZM25.3015 26.8528C25.2969 26.8639 25.2572 26.886 25.2036 26.9082C25.1538 26.9322 25.1169 26.9544 25.1169 26.9544C24.2418 27.4399 23.7932 28.1894 23.8809 29.4152C24.0046 31.1164 25.2572 39.6982 25.2572 39.6982L27.6534 38.9357L27.1596 35.8435C27.9747 35.5998 28.7953 35.2591 29.6057 34.817C30.4088 34.3749 31.1334 33.8543 31.7684 33.2921C33.0746 34.4302 34.1435 35.369 34.1435 35.369L36.0616 33.7444C36.0616 33.7444 29.4248 28.123 28.0476 27.1297C27.0525 26.4005 26.1793 26.3774 25.3015 26.8528ZM23.0944 22.4073C22.8821 22.22 22.4298 21.8111 22.1991 21.1132C21.9794 20.4523 21.6461 19.9225 21.0886 19.4914C20.0963 18.716 17.7471 17.5447 17.9087 15.9634C17.9825 15.2573 18.8373 15.1124 19.1871 14.5936C19.3994 14.2964 19.4289 13.8875 19.68 13.6096C19.9616 13.2884 19.5656 13.2884 19.2896 13.2672C18.6988 13.245 18.2576 13.8875 17.7665 14.1515C16.9616 14.5715 16.2379 15.1696 15.3315 15.3671C15.0656 15.4225 13.7106 15.8425 14.5939 16.065C15.1995 16.2182 15.877 16.1748 16.3782 16.6059C17.0225 17.157 17.5459 17.8659 18.193 18.4179C18.5207 18.6948 18.84 18.9588 19.1068 19.3012C19.4142 19.7 19.3745 20.1532 19.6025 20.5621C19.8222 20.9591 20.256 20.6055 20.5255 20.828C21.4108 21.5563 20.1803 21.9098 19.8628 22.2532C19.4474 22.7064 19.3671 22.9944 18.6074 23.3018C18.2714 23.4366 16.0912 23.7006 15.8253 23.9009C15.5567 24.0984 15.6979 24.1649 15.7672 24.2424C15.8382 24.3209 16.2111 24.4418 16.3782 24.4519C17.2939 24.5405 20.1111 25.0704 20.6889 24.3532C21.0831 23.8566 21.6683 23.7993 22.3181 23.9775C22.775 24.0984 23.6797 24.0107 24.4652 23.6895C24.9193 23.5021 26.1765 23.491 25.8239 23.3018C25.3901 22.4618 23.867 23.1153 23.0944 22.4064V22.4073Z" fill="black"/>
</svg>
