<svg width="40" height="12" viewBox="0 0 40 12" fill="none" xmlns="http://www.w3.org/2000/svg">
<path d="M5.91735 11.8919C5.10973 11.8919 4.34871 11.7439 3.63428 11.448C2.93538 11.1365 2.30637 10.7082 1.74725 10.163C1.20366 9.63345 0.776555 9.01043 0.465933 8.29395C0.155311 7.5619 0 6.7987 0 6.00435C0 5.21 0.155311 4.45459 0.465933 3.73812C0.776555 3.00607 1.20366 2.37526 1.74725 1.8457C2.30637 1.30055 2.93538 0.880015 3.63428 0.584081C4.34871 0.272571 5.10973 0.116816 5.91735 0.116816C6.7405 0.116816 7.50929 0.272571 8.22372 0.584081C8.95368 0.895591 9.59822 1.33949 10.1573 1.91579L9.20218 2.4765C8.76731 2.05597 8.27031 1.73667 7.71119 1.51861C7.15207 1.30055 6.55413 1.19153 5.91735 1.19153C5.26504 1.19153 4.6438 1.31613 4.05362 1.56534C3.47897 1.81455 2.96644 2.15721 2.51604 2.59332C2.06564 3.02943 1.70842 3.54343 1.44439 4.13529C1.1959 4.72716 1.07165 5.35018 1.07165 6.00435C1.07165 6.65853 1.1959 7.28155 1.44439 7.87341C1.70842 8.46528 2.06564 8.97927 2.51604 9.41539C2.96644 9.8515 3.47897 10.1942 4.05362 10.4434C4.6438 10.6926 5.26504 10.8172 5.91735 10.8172C6.55413 10.8172 7.15207 10.7082 7.71119 10.4901C8.27031 10.272 8.76731 9.95274 9.20218 9.53221L10.1573 10.0929C9.59822 10.6692 8.95368 11.1131 8.22372 11.4246C7.50929 11.7361 6.7405 11.8919 5.91735 11.8919Z" fill="black"/>
<path d="M16.3222 1.26162C15.9029 1.12144 15.5224 1.05135 15.1807 1.05135C14.2954 1.05135 13.5344 1.35507 12.8976 1.96251C12.6025 2.25845 12.3696 2.60111 12.1987 2.9905C12.0279 3.37988 11.9424 3.77706 11.9424 4.18202V11.7751H10.8475V4.18202C10.8475 3.35652 11.0649 2.61668 11.4998 1.96251C11.9502 1.29277 12.5637 0.770987 13.3402 0.397175C13.8994 0.132392 14.5128 0 15.1807 0C16.0349 0 16.8037 0.210269 17.4871 0.630807L16.3222 1.26162Z" fill="black"/>
<path d="M21.7503 11.8919C20.9583 11.8919 20.205 11.7361 19.4906 11.4246C18.7761 11.1131 18.1471 10.6848 17.6035 10.1396C17.0599 9.59451 16.6328 8.9637 16.3222 8.24723C16.0116 7.53075 15.8563 6.77534 15.8563 5.98099C15.8563 5.17107 16.0116 4.40008 16.3222 3.66803C16.6328 2.93598 17.0599 2.29739 17.6035 1.75224C18.1471 1.2071 18.7761 0.786563 19.4906 0.490628C20.205 0.179118 20.9583 0.0233629 21.7503 0.0233629C22.558 0.0233629 23.3267 0.179118 24.0567 0.490628C24.7867 0.786563 25.4234 1.2071 25.967 1.75224C26.5106 2.29739 26.93 2.93598 27.2251 3.66803C27.5357 4.40008 27.691 5.17107 27.691 5.98099C27.691 6.77534 27.5357 7.53075 27.2251 8.24723C26.93 8.9637 26.5106 9.59451 25.967 10.1396C25.4234 10.6848 24.7867 11.1131 24.0567 11.4246C23.3267 11.7361 22.558 11.8919 21.7503 11.8919ZM21.7503 1.07471C21.098 1.07471 20.4768 1.19931 19.8866 1.44852C19.312 1.69773 18.7994 2.04818 18.349 2.49987C17.8986 2.95156 17.5414 3.48112 17.2774 4.08857C17.0289 4.69601 16.9046 5.32682 16.9046 5.98099C16.9046 6.63516 17.0289 7.25818 17.2774 7.85005C17.5414 8.44192 17.8986 8.9637 18.349 9.41539C18.7994 9.86708 19.312 10.2253 19.8866 10.4901C20.4768 10.7393 21.098 10.8639 21.7503 10.8639C22.4026 10.8639 23.0317 10.7393 23.6374 10.4901C24.2431 10.2253 24.7634 9.86708 25.1982 9.41539C25.6487 8.9637 25.9981 8.44192 26.2466 7.85005C26.4951 7.25818 26.6193 6.63516 26.6193 5.98099C26.6193 5.32682 26.4873 4.69601 26.2233 4.08857C25.9748 3.48112 25.6331 2.95156 25.1982 2.49987C24.7634 2.04818 24.2431 1.69773 23.6374 1.44852C23.0317 1.19931 22.4026 1.07471 21.7503 1.07471Z" fill="black"/>
<path d="M34.0593 11.8919C33.2673 11.8919 32.514 11.7361 31.7996 11.4246C31.0851 11.1131 30.4561 10.6848 29.9125 10.1396C29.369 9.59451 28.9418 8.9637 28.6312 8.24723C28.3206 7.53075 28.1653 6.77534 28.1653 5.98099C28.1653 5.17107 28.3206 4.40008 28.6312 3.66803C28.9418 2.93598 29.369 2.29739 29.9125 1.75224C30.4561 1.2071 31.0851 0.786563 31.7996 0.490628C32.514 0.179118 33.2673 0.0233629 34.0593 0.0233629C34.867 0.0233629 35.6358 0.179118 36.3657 0.490628C37.0957 0.786563 37.7325 1.2071 38.276 1.75224C38.8196 2.29739 39.239 2.93598 39.5341 3.66803C39.8447 4.40008 40 5.17107 40 5.98099C40 6.77534 39.8447 7.53075 39.5341 8.24723C39.239 8.9637 38.8196 9.59451 38.276 10.1396C37.7325 10.6848 37.0957 11.1131 36.3657 11.4246C35.6358 11.7361 34.867 11.8919 34.0593 11.8919ZM34.0593 1.07471C33.407 1.07471 32.7858 1.19931 32.1956 1.44852C31.621 1.69773 31.1084 2.04818 30.658 2.49987C30.2076 2.95156 29.8504 3.48112 29.5864 4.08857C29.3379 4.69601 29.2136 5.32682 29.2136 5.98099C29.2136 6.63516 29.3379 7.25818 29.5864 7.85005C29.8504 8.44192 30.2076 8.9637 30.658 9.41539C31.1084 9.86708 31.621 10.2253 32.1956 10.4901C32.7858 10.7393 33.407 10.8639 34.0593 10.8639C34.7117 10.8639 35.3407 10.7393 35.9464 10.4901C36.5521 10.2253 37.0724 9.86708 37.5073 9.41539C37.9577 8.9637 38.3071 8.44192 38.5556 7.85005C38.8041 7.25818 38.9284 6.63516 38.9284 5.98099C38.9284 5.32682 38.7963 4.69601 38.5323 4.08857C38.2838 3.48112 37.9421 2.95156 37.5073 2.49987C37.0724 2.04818 36.5521 1.69773 35.9464 1.44852C35.3407 1.19931 34.7117 1.07471 34.0593 1.07471Z" fill="black"/>
</svg>
