<svg width="40" height="18" viewBox="0 0 40 18" fill="none" xmlns="http://www.w3.org/2000/svg">
<path d="M12.3643 1.96834C12.2216 2.04891 12.0648 2.10144 11.9023 2.12309C11.3648 2.18583 10.9037 2.53515 10.6979 3.03553C10.2621 3.82242 10.0241 4.1801 9.45693 6.58201C9.04862 8.20544 8.8095 9.86679 8.7434 11.5395C8.60627 13.0098 8.6626 14.4917 8.91093 15.9473C9.02042 16.5262 8.9602 16.8232 8.34813 16.3725C7.73607 15.9218 7.07071 15.4557 7.06415 14.9327C7.05758 14.4097 7.64811 10.1967 7.93644 8.84815C8.22477 7.49956 8.73939 5.13013 9.42226 3.69833C9.95367 2.58478 10.5457 1.86359 11.0479 1.55774C11.5501 1.25189 12.1972 1.1778 12.4454 1.56467C12.5269 1.69992 12.4917 1.87502 12.3643 1.96834Z" fill="black"/>
<path d="M5.87177 5.0637C6.0371 3.84395 4.19798 4.21075 3.52971 4.65895C2.86144 5.10714 0.789103 6.54952 0.0668144 10.2007C-0.345974 12.9217 1.25481 13.5147 2.10265 13.4034C2.38638 13.3904 2.66785 13.3466 2.9421 13.2728C2.64391 14.6232 2.24864 16.4072 2.23697 16.4648C2.22091 16.5554 2.04499 16.7459 2.54136 17.1276C2.91089 17.4426 3.31179 17.7187 3.73775 17.9518C4.01258 18.0653 4.0936 17.72 4.22207 16.9922C4.29981 16.4564 5.75169 5.9506 5.87177 5.0637ZM4.43339 6.57033C4.02754 8.17257 3.29941 11.6008 3.26766 11.7833C3.26109 11.8198 3.21364 12.0388 3.14284 12.3636C1.52417 12.9063 0.223024 12.703 0.588001 10.2577C0.71672 9.46964 0.966776 8.7063 1.32927 7.99483C1.82792 7.02918 2.49541 6.16058 3.30014 5.43014C3.61001 5.15531 5.0086 4.29944 4.43339 6.57033Z" fill="black"/>
<path d="M17.4255 9.28429C17.0254 10.2365 16.6818 11.2114 16.3966 12.2041C16.6554 11.868 16.9587 11.188 17.2828 10.9752C17.4152 10.8884 17.3412 11.4106 17.4769 11.3263C17.7087 10.5927 18.1959 9.14414 18.235 8.99523C18.3007 8.74741 17.87 8.57733 17.1641 8.1463C17.0624 8.08414 16.9649 8.01537 16.8722 7.94045C16.9795 7.67657 17.0521 7.49883 17.0747 7.4543C17.205 7.19371 17.4791 6.52726 17.2572 6.12287C17.0353 5.71847 16.4995 5.7703 16.2386 5.88782C15.8513 6.17337 15.6631 6.65648 15.7553 7.12874C15.817 7.45851 15.9603 7.76757 16.1721 8.02768C15.9594 8.44339 15.7535 8.83063 15.7535 8.83063C15.7535 8.83063 14.5925 11.1387 14.2841 11.672C13.8611 12.4019 13.2987 12.9633 13.5458 11.665C13.6012 11.3731 13.8841 9.89782 13.9363 9.68905C13.9885 9.48029 13.687 9.43065 13.4337 9.43138C13.2582 9.43138 13.0198 10.3321 12.4231 11.3143C11.9183 12.1457 11.4526 12.353 11.1971 12.3727C10.9344 12.3939 10.2646 12.4005 10.5336 10.9493C10.7964 9.53138 12.2881 7.63095 13.3757 7.73752C13.9013 7.78862 13.7972 8.28718 13.6914 8.56492C13.6122 8.77369 13.5454 8.96238 13.5454 8.96238C13.8343 9.0579 14.1497 8.92892 14.2889 8.65836C14.433 8.38426 14.9557 6.88092 13.4129 6.77581C11.9621 6.67654 11.1088 7.86307 10.3756 9.19122C9.84205 10.1652 9.6569 11.292 9.85074 12.3855C9.91866 12.7949 10.1652 13.1529 10.5235 13.3623C10.8818 13.5717 11.3148 13.6109 11.7048 13.4691C12.1541 13.2854 12.5244 12.9495 12.7508 12.5202C12.7476 12.5384 12.7446 12.5548 12.7414 12.5746C12.6023 13.5494 13.4972 14.0764 14.3199 13.2406C14.9097 12.6413 16.0035 10.0602 16.6236 8.55033C16.8798 8.87223 17.4379 9.24743 17.4255 9.28429ZM16.4586 7.45357C16.3821 7.28972 16.3337 7.11414 16.3156 6.93421C16.2634 6.55573 16.551 6.2944 16.7207 6.45098C16.8904 6.60755 16.7725 6.75829 16.5765 7.20247C16.5466 7.27035 16.5054 7.35576 16.4586 7.45357Z" fill="black"/>
<path d="M11.5796 7.51051C9.77373 9.52919 5.32248 11.669 3.25233 12.3888C2.63187 12.9673 2.80195 13.476 4.87502 12.5687C8.11126 11.1519 9.90074 9.73285 11.2544 8.30762C12.0607 7.4605 12.0322 7.0072 11.5796 7.51051Z" fill="black"/>
<path d="M23.9476 0.279226C23.4122 0.0704593 22.7859 -0.112029 22.5377 0.0832334C22.2895 0.278496 22.0705 2.62165 21.9939 3.25853C21.8023 4.84727 21.6103 10.657 20.6183 12.1191C20.1705 12.7789 19.731 12.7848 19.4175 12.537C19.104 12.2891 19.1303 11.4143 19.535 10.592C19.8295 10.0203 20.2824 9.54539 20.8395 9.22407C20.996 9.1456 21.1913 8.37295 21.0997 8.07294C21.0081 7.77292 20.2376 8.22148 19.9128 8.55835C19.5028 8.99256 19.1856 9.50567 18.9803 10.0664C18.8708 10.3639 18.7124 11.1011 18.6339 11.4533C18.5554 11.8056 18.3211 12.2366 18.1507 12.2888C17.8357 12.3667 17.5126 12.1945 17.4017 11.8895C17.3404 11.6278 17.6572 10.6986 17.8915 10.0358C17.6382 10.2682 17.3569 10.4683 17.0543 10.6314C16.9619 10.6814 17.1014 10.1993 17.0543 10.2248C16.8015 10.7871 16.5893 11.3667 16.4192 11.9592C16.1842 13.526 17.6813 13.9531 18.2682 13.3914C18.5686 13.1045 18.6076 12.68 18.6861 12.9534C18.858 13.3982 19.2799 13.6966 19.7566 13.7104C20.827 13.7888 21.4537 12.2395 21.4537 12.2395C21.4537 12.2395 21.4249 13.9465 21.5304 14.8549C21.6607 15.9776 22.3614 15.1549 22.6096 14.7637C22.8578 14.3724 23.1691 13.795 23.0038 13.7261C22.9165 13.6896 22.8698 13.8534 22.4534 14.4024C22.288 14.6213 22.1541 14.7159 22.157 14.437C22.1731 12.8005 22.211 5.74694 24.4049 0.83764C24.548 0.52011 23.9476 0.279226 23.9476 0.279226Z" fill="black"/>
<path d="M25.6907 2.23842C25.4763 2.20208 25.2617 2.30183 25.1513 2.48916C24.9367 2.85122 24.1126 5.58088 23.6793 8.13206C23.2582 10.6117 23.1403 13.6607 23.3052 14.0728C23.4925 14.5411 23.9126 14.3283 24.0531 14.1093C24.1936 13.8903 25.2371 11.5763 25.5177 11.0825C25.8546 10.4887 26.3207 10.1657 26.4302 10.4723C26.5397 10.7789 26.3207 11.319 26.2057 11.6588C26.0907 11.9986 25.5644 13.3972 25.6637 13.952C25.7415 14.3863 26.4532 14.6954 27.1364 14.0326C27.8196 13.3698 28.1649 12.2056 28.2226 12.2716C28.2592 12.492 28.308 12.7102 28.3686 12.9253C28.5713 13.4788 29.1264 13.8217 29.712 13.7553C30.1829 13.6149 30.5812 13.2977 30.8234 12.8702C31.1851 12.341 31.1792 11.9526 31.1329 12.1767C31.0167 12.5548 31.0561 12.9636 31.2424 13.3125C31.5238 13.7706 32.1661 13.8553 33.0833 12.7173C33.6633 11.9975 33.5443 11.9209 33.4801 12.2227C33.4158 12.5246 32.8986 14.6936 33.2976 14.8903C33.6965 15.0871 34.168 14.6323 34.8254 13.622C35.4827 12.6118 35.6801 12.2307 35.6977 12.0023C35.7152 11.7738 35.544 11.8198 35.2553 12.1578C34.9666 12.4957 34.1604 13.5852 33.9907 13.4406C33.8209 13.2961 34.0637 12.4764 34.206 11.9275C34.8459 9.5925 35.7032 7.32265 36.7667 5.14765C37.3284 4.13885 37.4422 4.15382 37.3116 4.0414C37.1809 3.92899 36.6207 3.67643 36.4918 3.82242C36.363 3.96841 34.2764 8.91348 33.8443 9.88906C33.4122 10.8646 32.8954 12.4249 32.2508 12.4563C32.2508 12.4563 31.7709 12.4928 31.9282 11.7993C32.0855 11.1059 32.4807 10.2358 32.418 10.1007C32.2625 9.93455 32.0327 9.85961 31.8092 9.9022C31.6931 9.98103 30.8716 11.3526 30.5522 11.7435C30.2329 12.1344 29.3427 13.0574 28.9233 12.1286C28.504 11.1997 29.6452 9.46824 30.0989 8.98465C30.4398 8.6215 31.0778 8.24557 31.6267 8.64193C32.1888 9.04742 31.8249 9.4124 31.9691 9.47116C32.1132 9.52992 32.626 9.52554 32.7329 8.85399C32.8399 8.18243 32.6235 7.48386 31.8074 7.33568C30.9913 7.1875 30.3438 7.37693 29.5941 8.30689C28.8445 9.23685 28.6635 9.69599 27.9966 11.0993C27.555 12.0286 27.1514 13.0928 26.8462 13.2892C26.6539 13.4129 26.5397 13.2527 26.6145 12.864C26.6893 12.4753 27.2977 10.4723 27.2682 9.96862C27.2744 9.7535 27.175 9.54894 27.0019 9.42105C26.8288 9.29316 26.604 9.25816 26.4002 9.32736C25.8955 9.53467 25.6703 9.86315 25.2458 10.4716C24.8214 11.08 24.1089 12.5132 24.0075 12.3286C23.906 12.1439 24.1556 11.3022 24.2425 10.842C24.6295 9.07217 25.164 7.33783 25.8404 5.65716C26.8623 3.1775 27.3999 2.55485 26.7006 2.40302C26.3671 2.33055 26.03 2.2756 25.6907 2.23842Z" fill="black"/>
<path d="M36.5532 7.77074C35.8499 7.78022 35.1425 7.79482 34.4414 7.84081C34.2115 7.83023 32.9384 7.94373 33.6385 8.37149C34.2954 8.77296 35.7918 8.35762 36.5094 8.2963C38.351 8.13863 39.7544 8.22623 40 7.89884C39.0708 7.84008 37.8959 7.75212 36.5532 7.77074Z" fill="black"/>
</svg>
