<svg width="40" height="8" viewBox="0 0 40 8" fill="none" xmlns="http://www.w3.org/2000/svg">
<path d="M11.2207 6.49519C11.528 6.90146 12.0945 7.11111 12.7911 7.11111H13.1505C14.6064 7.11111 15.6715 6.74 15.6715 5.06281V4.03801C15.6715 2.48453 14.9853 1.93241 13.1961 1.93241H12.6401C11.8588 1.93241 11.4239 2.19805 11.2194 2.48453H11.1999V0.00130208H10.1048V6.95225H11.1999V6.49519H11.2207ZM11.2012 3.99634C11.2012 2.83351 11.9447 2.81267 12.9487 2.81267H13.0633C14.0412 2.81267 14.5777 2.97805 14.5777 4.10181V4.88572C14.5777 5.82848 14.3342 6.22955 13.0281 6.22955H12.7781C11.5398 6.22955 11.2012 5.88968 11.2012 4.95082V3.99634Z" fill="white"/>
<path d="M27.4756 2.05481V1.60687C27.4756 1.17846 27.7556 0.834686 28.3546 0.834686L29.4471 0.835988V0.00130208H27.9952C27.1175 0.00130208 26.3805 0.458361 26.3805 1.61208V2.05612H25.7906V2.93508H26.3805V7.10981H27.4769V2.93508H28.947V2.05481H27.4756Z" fill="white"/>
<path d="M22.6159 5.49773C22.6159 6.65145 23.353 7.10981 24.2306 7.10981H25.5901V6.22955H24.4976C23.8999 6.22955 23.7111 5.93135 23.7111 5.50294V2.93508H25.1825V2.05612H23.7111V0H22.6159V2.05481H22.0261V2.93377H22.6159V5.49773Z" fill="white"/>
<path d="M36.3238 0.00130208H35.2287V1.11335H36.3238V0.00130208Z" fill="white"/>
<path d="M36.3238 1.93108H35.2287V7.10978H36.3238V1.93108Z" fill="white"/>
<path d="M18.5076 7.10978H19.4921C20.819 7.10978 21.4245 6.68918 21.5794 5.95215L20.6054 5.65656C20.4439 6.10972 20.0533 6.22821 19.1952 6.22821H18.9426C17.5401 6.22821 17.3122 6.05112 17.3109 4.94558L17.3135 4.94428H21.6589V3.98589C21.6589 2.25271 20.7591 1.92977 19.3202 1.92977H18.785C17.6456 1.92977 16.2653 2.129 16.2653 3.89343V5.11617C16.2653 6.83111 17.462 7.11108 18.5076 7.10978ZM17.3135 3.90646C17.3135 2.91161 17.7771 2.81264 18.9061 2.81264H19.1275C20.3984 2.81264 20.5624 3.13297 20.5624 3.78666L20.5637 4.06402L17.3135 4.06532V3.90646Z" fill="white"/>
<path d="M31.8014 1.93108H31.3925C29.9068 1.93108 29.2635 2.38814 29.2218 3.07307L30.2662 3.41945C30.3143 2.95197 30.8508 2.81394 31.6647 2.81394C32.8757 2.81394 33.1609 2.88426 33.1609 3.75801V4.2333H33.1387C32.8653 3.86869 32.4915 3.77494 31.5436 3.77494H31.1152C29.7166 3.77494 28.9028 4.12262 28.9028 5.22945V5.54588C28.9041 6.4587 29.2518 7.11108 30.7115 7.11108H31.7741C32.8301 7.11108 32.9369 6.93789 33.1452 6.63449H33.1622V7.10978H34.256V3.78015C34.256 2.33084 33.2937 1.93108 31.8014 1.93108ZM33.1622 5.56281C33.1622 6.04851 32.8288 6.22951 31.5319 6.22951H31.2389C30.1372 6.22951 29.9966 6.01726 29.9966 5.59797V5.32451C29.9966 4.8375 30.2714 4.6539 31.1829 4.6539H31.6699C32.502 4.6539 33.1596 4.81667 33.1596 5.36227V5.56281H33.1622Z" fill="white"/>
<path d="M39.6639 1.93108C39.1782 1.93108 38.6807 2.11598 38.3734 2.61862H38.3344V1.93108H37.2965V7.10847H38.3916V3.995C38.3916 3.36606 38.7523 2.81264 39.6027 2.81264L40 2.1333C39.8222 1.95551 39.6639 1.93108 39.6639 1.93108Z" fill="white"/>
<path d="M8.08902 0.0182292H5.25421V1.44149H3.73849L6.67096 4.86748L9.60473 1.44149H8.08902V0.0182292Z" fill="white"/>
<path d="M0 5.65533H1.51702V7.07859H4.35182V5.65533H5.86754L2.93507 2.22934L0 5.65533Z" fill="white"/>
<path d="M11.2207 6.49519C11.528 6.90146 12.0945 7.11111 12.7911 7.11111H13.1505C14.6064 7.11111 15.6715 6.74 15.6715 5.06281V4.03801C15.6715 2.48453 14.9853 1.93241 13.1961 1.93241H12.6401C11.8588 1.93241 11.4239 2.19805 11.2194 2.48453H11.1999V0.00130208H10.1048V6.95225H11.1999V6.49519H11.2207ZM11.2012 3.99634C11.2012 2.83351 11.9447 2.81267 12.9487 2.81267H13.0633C14.0412 2.81267 14.5777 2.97805 14.5777 4.10181V4.88572C14.5777 5.82848 14.3342 6.22955 13.0281 6.22955H12.7781C11.5398 6.22955 11.2012 5.88968 11.2012 4.95082V3.99634Z" fill="white"/>
<path d="M27.4756 2.05481V1.60687C27.4756 1.17846 27.7556 0.834686 28.3546 0.834686L29.4471 0.835988V0.00130208H27.9952C27.1175 0.00130208 26.3805 0.458361 26.3805 1.61208V2.05612H25.7906V2.93508H26.3805V7.10981H27.4769V2.93508H28.947V2.05481H27.4756Z" fill="white"/>
<path d="M22.6159 5.49773C22.6159 6.65145 23.353 7.10981 24.2306 7.10981H25.5901V6.22955H24.4976C23.8999 6.22955 23.7111 5.93135 23.7111 5.50294V2.93508H25.1825V2.05612H23.7111V0H22.6159V2.05481H22.0261V2.93377H22.6159V5.49773Z" fill="white"/>
<path d="M36.3238 0.00130208H35.2287V1.11335H36.3238V0.00130208Z" fill="white"/>
<path d="M36.3238 1.93108H35.2287V7.10978H36.3238V1.93108Z" fill="white"/>
<path d="M18.5076 7.10978H19.4921C20.819 7.10978 21.4245 6.68918 21.5794 5.95215L20.6054 5.65656C20.4439 6.10972 20.0533 6.22821 19.1952 6.22821H18.9426C17.5401 6.22821 17.3122 6.05112 17.3109 4.94558L17.3135 4.94428H21.6589V3.98589C21.6589 2.25271 20.7591 1.92977 19.3202 1.92977H18.785C17.6456 1.92977 16.2653 2.129 16.2653 3.89343V5.11617C16.2653 6.83111 17.462 7.11108 18.5076 7.10978ZM17.3135 3.90646C17.3135 2.91161 17.7771 2.81264 18.9061 2.81264H19.1275C20.3984 2.81264 20.5624 3.13297 20.5624 3.78666L20.5637 4.06402L17.3135 4.06532V3.90646Z" fill="white"/>
<path d="M31.8014 1.93108H31.3925C29.9068 1.93108 29.2635 2.38814 29.2218 3.07307L30.2662 3.41945C30.3143 2.95197 30.8508 2.81394 31.6647 2.81394C32.8757 2.81394 33.1609 2.88426 33.1609 3.75801V4.2333H33.1387C32.8653 3.86869 32.4915 3.77494 31.5436 3.77494H31.1152C29.7166 3.77494 28.9028 4.12262 28.9028 5.22945V5.54588C28.9041 6.4587 29.2518 7.11108 30.7115 7.11108H31.7741C32.8301 7.11108 32.9369 6.93789 33.1452 6.63449H33.1622V7.10978H34.256V3.78015C34.256 2.33084 33.2937 1.93108 31.8014 1.93108ZM33.1622 5.56281C33.1622 6.04851 32.8288 6.22951 31.5319 6.22951H31.2389C30.1372 6.22951 29.9966 6.01726 29.9966 5.59797V5.32451C29.9966 4.8375 30.2714 4.6539 31.1829 4.6539H31.6699C32.502 4.6539 33.1596 4.81667 33.1596 5.36227V5.56281H33.1622Z" fill="white"/>
<path d="M8.08902 0.0182292H5.25421V1.44149H3.73849L6.67096 4.86748L9.60473 1.44149H8.08902V0.0182292Z" fill="white"/>
<path d="M0 5.65533H1.51702V7.07859H4.35182V5.65533H5.86754L2.93507 2.22934L0 5.65533Z" fill="white"/>
</svg>
