<svg width="204" height="58" viewBox="0 0 204 58" fill="none" xmlns="http://www.w3.org/2000/svg">
<g clip-path="url(#clip0)">
<path d="M27.1721 30.277C27.1297 25.219 31.3117 22.7607 31.4953 22.6477C29.1218 19.2004 25.4484 18.72 24.1627 18.6776C21.0827 18.3527 18.0875 20.5284 16.5193 20.5284C14.9228 20.5284 12.4927 18.72 9.89309 18.7624C6.54467 18.8189 3.39404 20.7545 1.68451 23.778C-1.86171 29.9238 0.780295 38.9659 4.18523 43.9391C5.89476 46.3692 7.87273 49.096 10.4865 48.9971C13.0296 48.8982 13.9903 47.3723 17.0562 47.3723C20.1079 47.3723 20.998 48.9971 23.6541 48.9406C26.395 48.8982 28.1045 46.4964 29.7576 44.038C31.7214 41.2547 32.5126 38.4997 32.5408 38.3584C32.4702 38.3302 27.2286 36.3239 27.1721 30.277Z" fill="#005618"/>
<path d="M22.1564 15.4143C23.5268 13.7047 24.4593 11.3736 24.205 9C22.227 9.08477 19.7404 10.3705 18.3134 12.0517C17.056 13.5352 15.9258 15.9512 16.2083 18.2258C18.4406 18.3954 20.7294 17.0956 22.1564 15.4143Z" fill="#005618"/>
<path d="M50.8022 15L51.8704 11.9205H56.4158L57.4783 15H59.342L55.1545 3.36365H53.126L48.9385 15H50.8022ZM52.3817 10.4432L54.0976 5.47728H54.1885L55.9045 10.4432H52.3817ZM67.2581 6.27274H65.4343L63.2297 12.9886H63.1388L60.9286 6.27274H59.1047L62.2752 15H64.0934L67.2581 6.27274ZM71.1289 15.1932C72.5721 15.1932 73.3846 14.4602 73.7084 13.8068H73.7766V15H75.4357V9.20456C75.4357 6.66478 73.4357 6.1591 72.0493 6.1591C70.4698 6.1591 69.0152 6.79546 68.4471 8.38637L70.0437 8.75001C70.2937 8.13069 70.93 7.5341 72.0721 7.5341C73.1687 7.5341 73.7312 8.10796 73.7312 9.0966V9.13637C73.7312 9.75569 73.0948 9.74433 71.5266 9.92615C69.8732 10.1193 68.18 10.5511 68.18 12.5341C68.18 14.25 69.4698 15.1932 71.1289 15.1932ZM71.4982 13.8295C70.538 13.8295 69.8448 13.3977 69.8448 12.5568C69.8448 11.6477 70.6516 11.3239 71.6346 11.1932C72.1857 11.1193 73.4925 10.9716 73.7368 10.7273V11.8523C73.7368 12.8864 72.913 13.8295 71.4982 13.8295ZM77.6985 15H79.3973V6.27274H77.6985V15ZM78.5564 4.92615C79.1417 4.92615 79.6303 4.4716 79.6303 3.91478C79.6303 3.35796 79.1417 2.89774 78.5564 2.89774C77.9655 2.89774 77.4826 3.35796 77.4826 3.91478C77.4826 4.4716 77.9655 4.92615 78.5564 4.92615ZM83.3817 3.36365H81.6829V15H83.3817V3.36365ZM88.207 15.1932C89.6502 15.1932 90.4627 14.4602 90.7866 13.8068H90.8547V15H92.5138V9.20456C92.5138 6.66478 90.5138 6.1591 89.1275 6.1591C87.5479 6.1591 86.0934 6.79546 85.5252 8.38637L87.1218 8.75001C87.3718 8.13069 88.0081 7.5341 89.1502 7.5341C90.2468 7.5341 90.8093 8.10796 90.8093 9.0966V9.13637C90.8093 9.75569 90.1729 9.74433 88.6047 9.92615C86.9513 10.1193 85.2581 10.5511 85.2581 12.5341C85.2581 14.25 86.5479 15.1932 88.207 15.1932ZM88.5763 13.8295C87.6161 13.8295 86.9229 13.3977 86.9229 12.5568C86.9229 11.6477 87.7297 11.3239 88.7127 11.1932C89.2638 11.1193 90.5706 10.9716 90.815 10.7273V11.8523C90.815 12.8864 89.9911 13.8295 88.5763 13.8295ZM94.913 15H96.5721V13.642H96.7141C97.0209 14.1989 97.6459 15.1705 99.2368 15.1705C101.351 15.1705 102.885 13.4773 102.885 10.6534C102.885 7.82387 101.328 6.1591 99.2198 6.1591C97.6005 6.1591 97.0152 7.14774 96.7141 7.68751H96.6118V3.36365H94.913V15ZM96.5777 10.6364C96.5777 8.81251 97.3732 7.60228 98.8562 7.60228C100.396 7.60228 101.169 8.90342 101.169 10.6364C101.169 12.3864 100.373 13.7216 98.8562 13.7216C97.3959 13.7216 96.5777 12.4716 96.5777 10.6364ZM106.491 3.36365H104.792V15H106.491V3.36365ZM112.538 15.1761C114.442 15.1761 115.788 14.2386 116.175 12.8182L114.567 12.5284C114.26 13.3523 113.521 13.7727 112.555 13.7727C111.101 13.7727 110.123 12.8295 110.078 11.1477H116.282V10.5455C116.282 7.39206 114.396 6.1591 112.419 6.1591C109.987 6.1591 108.385 8.01137 108.385 10.6932C108.385 13.4034 109.964 15.1761 112.538 15.1761ZM110.084 9.87501C110.152 8.63637 111.05 7.56251 112.43 7.56251C113.748 7.56251 114.612 8.53978 114.618 9.87501H110.084ZM126.078 15.1761C128.538 15.1761 130.146 13.375 130.146 10.6761C130.146 7.96024 128.538 6.1591 126.078 6.1591C123.618 6.1591 122.01 7.96024 122.01 10.6761C122.01 13.375 123.618 15.1761 126.078 15.1761ZM126.084 13.75C124.476 13.75 123.726 12.3466 123.726 10.6705C123.726 9.00001 124.476 7.57956 126.084 7.57956C127.68 7.57956 128.43 9.00001 128.43 10.6705C128.43 12.3466 127.68 13.75 126.084 13.75ZM133.741 9.81819C133.741 8.42615 134.594 7.63069 135.775 7.63069C136.929 7.63069 137.628 8.38637 137.628 9.65342V15H139.327V9.44887C139.327 7.28978 138.139 6.1591 136.355 6.1591C135.042 6.1591 134.184 6.76706 133.781 7.69319H133.673V6.27274H132.042V15H133.741V9.81819ZM149.913 6.27274H148.123V4.18183H146.425V6.27274H145.146V7.63637H146.425V12.7898C146.419 14.375 147.629 15.142 148.97 15.1136C149.51 15.108 149.873 15.0057 150.072 14.9318L149.765 13.5284C149.652 13.5511 149.442 13.6023 149.169 13.6023C148.618 13.6023 148.123 13.4205 148.123 12.4375V7.63637H149.913V6.27274ZM153.679 9.81819C153.679 8.42615 154.559 7.63069 155.77 7.63069C156.94 7.63069 157.639 8.37501 157.639 9.65342V15H159.338V9.44887C159.338 7.27274 158.145 6.1591 156.349 6.1591C154.991 6.1591 154.173 6.75001 153.764 7.69319H153.656V3.36365H151.98V15H153.679V9.81819ZM165.366 15.1761C167.27 15.1761 168.616 14.2386 169.003 12.8182L167.395 12.5284C167.088 13.3523 166.349 13.7727 165.383 13.7727C163.929 13.7727 162.952 12.8295 162.906 11.1477H169.111V10.5455C169.111 7.39206 167.224 6.1591 165.247 6.1591C162.815 6.1591 161.213 8.01137 161.213 10.6932C161.213 13.4034 162.792 15.1761 165.366 15.1761ZM162.912 9.87501C162.98 8.63637 163.878 7.56251 165.258 7.56251C166.577 7.56251 167.44 8.53978 167.446 9.87501H162.912Z" fill="#005618"/>
<path d="M53.8252 50L55.7457 44.2614H64.4957L66.4275 50H70.9275L62.7229 26.7273H57.5184L49.3252 50H53.8252ZM56.882 40.875L60.0298 31.5H60.2116L63.3593 40.875H56.882ZM73.811 56.5455H77.9246V47.25H78.0951C78.7428 48.5227 80.0951 50.3068 83.0951 50.3068C87.2087 50.3068 90.2883 47.0455 90.2883 41.2955C90.2883 35.4773 87.1178 32.3182 83.0837 32.3182C80.0042 32.3182 78.7201 34.1705 78.0951 35.4318H77.8565V32.5455H73.811V56.5455ZM77.8451 41.2727C77.8451 37.8864 79.2996 35.6932 81.9474 35.6932C84.686 35.6932 86.0951 38.0227 86.0951 41.2727C86.0951 44.5455 84.6633 46.9318 81.9474 46.9318C79.3224 46.9318 77.8451 44.6591 77.8451 41.2727ZM93.811 56.5455H97.9246V47.25H98.0951C98.7428 48.5227 100.095 50.3068 103.095 50.3068C107.209 50.3068 110.288 47.0455 110.288 41.2955C110.288 35.4773 107.118 32.3182 103.084 32.3182C100.004 32.3182 98.7201 34.1705 98.0951 35.4318H97.8565V32.5455H93.811V56.5455ZM97.8451 41.2727C97.8451 37.8864 99.2996 35.6932 101.947 35.6932C104.686 35.6932 106.095 38.0227 106.095 41.2727C106.095 44.5455 104.663 46.9318 101.947 46.9318C99.3224 46.9318 97.8451 44.6591 97.8451 41.2727ZM134.578 33.125H138.635C138.555 29.1932 135.203 26.4091 130.248 26.4091C125.362 26.4091 121.692 29.1591 121.703 33.2727C121.703 36.6136 124.078 38.5341 127.907 39.5227L130.555 40.2045C133.067 40.8409 134.726 41.625 134.737 43.4318C134.726 45.4205 132.839 46.75 130.089 46.75C127.453 46.75 125.407 45.5682 125.237 43.125H121.089C121.26 47.75 124.703 50.3523 130.123 50.3523C135.703 50.3523 138.942 47.5682 138.953 43.4659C138.942 39.4318 135.612 37.5909 132.112 36.7614L129.93 36.2159C128.021 35.7614 125.953 34.9545 125.976 33.0114C125.987 31.2614 127.555 29.9773 130.192 29.9773C132.703 29.9773 134.362 31.1477 134.578 33.125ZM151.246 32.5455H147.802V28.3636H143.689V32.5455H141.211V35.7273H143.689V45.4318C143.666 48.7159 146.052 50.3295 149.143 50.2386C150.314 50.2045 151.121 49.9773 151.564 49.8295L150.871 46.6136C150.643 46.6705 150.177 46.7727 149.666 46.7727C148.632 46.7727 147.802 46.4091 147.802 44.75V35.7273H151.246V32.5455ZM162.112 50.3409C167.226 50.3409 170.476 46.7386 170.476 41.3409C170.476 35.9318 167.226 32.3182 162.112 32.3182C156.998 32.3182 153.748 35.9318 153.748 41.3409C153.748 46.7386 156.998 50.3409 162.112 50.3409ZM162.135 47.0455C159.305 47.0455 157.919 44.5227 157.919 41.3295C157.919 38.1364 159.305 35.5795 162.135 35.5795C164.919 35.5795 166.305 38.1364 166.305 41.3295C166.305 44.5227 164.919 47.0455 162.135 47.0455ZM173.967 50H178.081V39.7386C178.081 37.5227 179.751 35.9545 182.013 35.9545C182.706 35.9545 183.569 36.0795 183.922 36.1932V32.4091C183.547 32.3409 182.899 32.2955 182.444 32.2955C180.444 32.2955 178.774 33.4318 178.138 35.4545H177.956V32.5455H173.967V50ZM193.663 50.3409C197.731 50.3409 200.527 48.3523 201.254 45.3182L197.413 44.8864C196.856 46.3636 195.493 47.1364 193.72 47.1364C191.061 47.1364 189.3 45.3864 189.265 42.3977H201.425V41.1364C201.425 35.0114 197.743 32.3182 193.447 32.3182C188.447 32.3182 185.186 35.9886 185.186 41.375C185.186 46.8523 188.402 50.3409 193.663 50.3409ZM189.277 39.625C189.402 37.3977 191.05 35.5227 193.504 35.5227C195.868 35.5227 197.459 37.25 197.481 39.625H189.277Z" fill="#005618"/>
</g>
<defs>
<clipPath id="clip0">
<rect width="204" height="58" fill="white"/>
</clipPath>
</defs>
</svg>
