<svg width="172" height="51" viewBox="0 0 172 51" fill="none" xmlns="http://www.w3.org/2000/svg">
<path d="M25.4 50.9C21.9333 50.9 18.6667 50.2667 15.6 49C12.6 47.6667 9.9 45.8333 7.5 43.5C5.16667 41.2333 3.33333 38.5667 2 35.5C0.666667 32.3667 0 29.1 0 25.7C0 22.3 0.666667 19.0667 2 16C3.33333 12.8667 5.16667 10.1667 7.5 7.9C9.9 5.56667 12.6 3.76667 15.6 2.5C18.6667 1.16667 21.9333 0.5 25.4 0.5C28.9333 0.5 32.2333 1.16667 35.3 2.5C38.4333 3.83333 41.2 5.73333 43.6 8.2L39.5 10.6C37.6333 8.8 35.5 7.43333 33.1 6.5C30.7 5.56667 28.1333 5.1 25.4 5.1C22.6 5.1 19.9333 5.63333 17.4 6.7C14.9333 7.76667 12.7333 9.23333 10.8 11.1C8.86667 12.9667 7.33333 15.1667 6.2 17.7C5.13333 20.2333 4.6 22.9 4.6 25.7C4.6 28.5 5.13333 31.1667 6.2 33.7C7.33333 36.2333 8.86667 38.4333 10.8 40.3C12.7333 42.1667 14.9333 43.6333 17.4 44.7C19.9333 45.7667 22.6 46.3 25.4 46.3C28.1333 46.3 30.7 45.8333 33.1 44.9C35.5 43.9667 37.6333 42.6 39.5 40.8L43.6 43.2C41.2 45.6667 38.4333 47.5667 35.3 48.9C32.2333 50.2333 28.9333 50.9 25.4 50.9Z" fill="white"/>
<path d="M70.0625 5.4C68.2625 4.8 66.6292 4.5 65.1625 4.5C61.3625 4.5 58.0958 5.8 55.3625 8.4C54.0958 9.66667 53.0958 11.1333 52.3625 12.8C51.6292 14.4667 51.2625 16.1667 51.2625 17.9V50.4H46.5625V17.9C46.5625 14.3667 47.4958 11.2 49.3625 8.4C51.2958 5.53333 53.9292 3.3 57.2625 1.7C59.6625 0.566666 62.2958 0 65.1625 0C68.8292 0 72.1292 0.899999 75.0625 2.7L70.0625 5.4Z" fill="white"/>
<path d="M93.3625 50.9C89.9625 50.9 86.7292 50.2333 83.6625 48.9C80.5958 47.5667 77.8958 45.7333 75.5625 43.4C73.2292 41.0667 71.3958 38.3667 70.0625 35.3C68.7292 32.2333 68.0625 29 68.0625 25.6C68.0625 22.1333 68.7292 18.8333 70.0625 15.7C71.3958 12.5667 73.2292 9.83333 75.5625 7.5C77.8958 5.16667 80.5958 3.36667 83.6625 2.1C86.7292 0.766666 89.9625 0.0999987 93.3625 0.0999987C96.8292 0.0999987 100.129 0.766666 103.263 2.1C106.396 3.36667 109.129 5.16667 111.463 7.5C113.796 9.83333 115.596 12.5667 116.863 15.7C118.196 18.8333 118.863 22.1333 118.863 25.6C118.863 29 118.196 32.2333 116.863 35.3C115.596 38.3667 113.796 41.0667 111.463 43.4C109.129 45.7333 106.396 47.5667 103.263 48.9C100.129 50.2333 96.8292 50.9 93.3625 50.9ZM93.3625 4.6C90.5625 4.6 87.8958 5.13333 85.3625 6.2C82.8958 7.26666 80.6958 8.76667 78.7625 10.7C76.8292 12.6333 75.2958 14.9 74.1625 17.5C73.0958 20.1 72.5625 22.8 72.5625 25.6C72.5625 28.4 73.0958 31.0667 74.1625 33.6C75.2958 36.1333 76.8292 38.3667 78.7625 40.3C80.6958 42.2333 82.8958 43.7667 85.3625 44.9C87.8958 45.9667 90.5625 46.5 93.3625 46.5C96.1625 46.5 98.8625 45.9667 101.463 44.9C104.063 43.7667 106.296 42.2333 108.162 40.3C110.096 38.3667 111.596 36.1333 112.663 33.6C113.729 31.0667 114.263 28.4 114.263 25.6C114.263 22.8 113.696 20.1 112.562 17.5C111.496 14.9 110.029 12.6333 108.162 10.7C106.296 8.76667 104.063 7.26666 101.463 6.2C98.8625 5.13333 96.1625 4.6 93.3625 4.6Z" fill="white"/>
<path d="M146.198 50.9C142.798 50.9 139.565 50.2333 136.498 48.9C133.432 47.5667 130.732 45.7333 128.398 43.4C126.065 41.0667 124.232 38.3667 122.898 35.3C121.565 32.2333 120.898 29 120.898 25.6C120.898 22.1333 121.565 18.8333 122.898 15.7C124.232 12.5667 126.065 9.83333 128.398 7.5C130.732 5.16667 133.432 3.36667 136.498 2.1C139.565 0.766666 142.798 0.0999987 146.198 0.0999987C149.665 0.0999987 152.965 0.766666 156.098 2.1C159.232 3.36667 161.965 5.16667 164.298 7.5C166.632 9.83333 168.432 12.5667 169.698 15.7C171.032 18.8333 171.698 22.1333 171.698 25.6C171.698 29 171.032 32.2333 169.698 35.3C168.432 38.3667 166.632 41.0667 164.298 43.4C161.965 45.7333 159.232 47.5667 156.098 48.9C152.965 50.2333 149.665 50.9 146.198 50.9ZM146.198 4.6C143.398 4.6 140.732 5.13333 138.198 6.2C135.732 7.26666 133.532 8.76667 131.598 10.7C129.665 12.6333 128.132 14.9 126.998 17.5C125.932 20.1 125.398 22.8 125.398 25.6C125.398 28.4 125.932 31.0667 126.998 33.6C128.132 36.1333 129.665 38.3667 131.598 40.3C133.532 42.2333 135.732 43.7667 138.198 44.9C140.732 45.9667 143.398 46.5 146.198 46.5C148.998 46.5 151.698 45.9667 154.298 44.9C156.898 43.7667 159.132 42.2333 160.998 40.3C162.932 38.3667 164.432 36.1333 165.498 33.6C166.565 31.0667 167.098 28.4 167.098 25.6C167.098 22.8 166.532 20.1 165.398 17.5C164.332 14.9 162.865 12.6333 160.998 10.7C159.132 8.76667 156.898 7.26666 154.298 6.2C151.698 5.13333 148.998 4.6 146.198 4.6Z" fill="white"/>
</svg>
