<svg width="172" height="52" viewBox="0 0 172 52" fill="none" xmlns="http://www.w3.org/2000/svg">
<path d="M25.4 51.5C21.9333 51.5 18.6667 50.8666 15.6 49.6C12.6 48.2666 9.9 46.4333 7.5 44.1C5.16667 41.8333 3.33333 39.1666 2 36.1C0.666667 32.9666 0 29.7 0 26.3C0 22.9 0.666667 19.6666 2 16.6C3.33333 13.4666 5.16667 10.7666 7.5 8.49998C9.9 6.16664 12.6 4.36664 15.6 3.09997C18.6667 1.76664 21.9333 1.09998 25.4 1.09998C28.9333 1.09998 32.2333 1.76664 35.3 3.09997C38.4333 4.43331 41.2 6.33331 43.6 8.79997L39.5 11.2C37.6333 9.39997 35.5 8.03331 33.1 7.09998C30.7 6.16664 28.1333 5.69998 25.4 5.69998C22.6 5.69998 19.9333 6.23331 17.4 7.29998C14.9333 8.36664 12.7333 9.83331 10.8 11.7C8.86667 13.5666 7.33333 15.7666 6.2 18.3C5.13333 20.8333 4.6 23.5 4.6 26.3C4.6 29.1 5.13333 31.7666 6.2 34.3C7.33333 36.8333 8.86667 39.0333 10.8 40.9C12.7333 42.7666 14.9333 44.2333 17.4 45.3C19.9333 46.3666 22.6 46.9 25.4 46.9C28.1333 46.9 30.7 46.4333 33.1 45.5C35.5 44.5666 37.6333 43.2 39.5 41.4L43.6 43.8C41.2 46.2666 38.4333 48.1666 35.3 49.5C32.2333 50.8333 28.9333 51.5 25.4 51.5Z" fill="#181818"/>
<path d="M70.0625 5.99997C68.2625 5.39997 66.6292 5.09997 65.1625 5.09997C61.3625 5.09997 58.0958 6.39997 55.3625 8.99998C54.0958 10.2666 53.0958 11.7333 52.3625 13.4C51.6292 15.0666 51.2625 16.7666 51.2625 18.5V51H46.5625V18.5C46.5625 14.9666 47.4958 11.8 49.3625 8.99997C51.2958 6.13331 53.9292 3.89997 57.2625 2.29997C59.6625 1.16664 62.2958 0.599976 65.1625 0.599976C68.8292 0.599976 72.1292 1.49998 75.0625 3.29997L70.0625 5.99997Z" fill="#181818"/>
<path d="M93.3625 51.5C89.9625 51.5 86.7292 50.8333 83.6625 49.5C80.5958 48.1666 77.8958 46.3333 75.5625 44C73.2292 41.6666 71.3958 38.9666 70.0625 35.9C68.7292 32.8333 68.0625 29.6 68.0625 26.2C68.0625 22.7333 68.7292 19.4333 70.0625 16.3C71.3958 13.1666 73.2292 10.4333 75.5625 8.09997C77.8958 5.76664 80.5958 3.96664 83.6625 2.69998C86.7292 1.36664 89.9625 0.699974 93.3625 0.699974C96.8292 0.699974 100.129 1.36664 103.263 2.69998C106.396 3.96664 109.129 5.76664 111.463 8.09997C113.796 10.4333 115.596 13.1666 116.863 16.3C118.196 19.4333 118.863 22.7333 118.863 26.2C118.863 29.6 118.196 32.8333 116.863 35.9C115.596 38.9666 113.796 41.6666 111.463 44C109.129 46.3333 106.396 48.1666 103.263 49.5C100.129 50.8333 96.8292 51.5 93.3625 51.5ZM93.3625 5.19997C90.5625 5.19997 87.8958 5.73331 85.3625 6.79997C82.8958 7.86664 80.6958 9.36664 78.7625 11.3C76.8292 13.2333 75.2958 15.5 74.1625 18.1C73.0958 20.7 72.5625 23.4 72.5625 26.2C72.5625 29 73.0958 31.6666 74.1625 34.2C75.2958 36.7333 76.8292 38.9666 78.7625 40.9C80.6958 42.8333 82.8958 44.3666 85.3625 45.5C87.8958 46.5666 90.5625 47.1 93.3625 47.1C96.1625 47.1 98.8625 46.5666 101.463 45.5C104.063 44.3666 106.296 42.8333 108.162 40.9C110.096 38.9666 111.596 36.7333 112.663 34.2C113.729 31.6666 114.263 29 114.263 26.2C114.263 23.4 113.696 20.7 112.562 18.1C111.496 15.5 110.029 13.2333 108.162 11.3C106.296 9.36664 104.063 7.86664 101.463 6.79997C98.8625 5.73331 96.1625 5.19997 93.3625 5.19997Z" fill="#181818"/>
<path d="M146.198 51.5C142.798 51.5 139.565 50.8333 136.498 49.5C133.432 48.1666 130.732 46.3333 128.398 44C126.065 41.6666 124.232 38.9666 122.898 35.9C121.565 32.8333 120.898 29.6 120.898 26.2C120.898 22.7333 121.565 19.4333 122.898 16.3C124.232 13.1666 126.065 10.4333 128.398 8.09997C130.732 5.76664 133.432 3.96664 136.498 2.69998C139.565 1.36664 142.798 0.699974 146.198 0.699974C149.665 0.699974 152.965 1.36664 156.098 2.69998C159.232 3.96664 161.965 5.76664 164.298 8.09997C166.632 10.4333 168.432 13.1666 169.698 16.3C171.032 19.4333 171.698 22.7333 171.698 26.2C171.698 29.6 171.032 32.8333 169.698 35.9C168.432 38.9666 166.632 41.6666 164.298 44C161.965 46.3333 159.232 48.1666 156.098 49.5C152.965 50.8333 149.665 51.5 146.198 51.5ZM146.198 5.19997C143.398 5.19997 140.732 5.73331 138.198 6.79997C135.732 7.86664 133.532 9.36664 131.598 11.3C129.665 13.2333 128.132 15.5 126.998 18.1C125.932 20.7 125.398 23.4 125.398 26.2C125.398 29 125.932 31.6666 126.998 34.2C128.132 36.7333 129.665 38.9666 131.598 40.9C133.532 42.8333 135.732 44.3666 138.198 45.5C140.732 46.5666 143.398 47.1 146.198 47.1C148.998 47.1 151.698 46.5666 154.298 45.5C156.898 44.3666 159.132 42.8333 160.998 40.9C162.932 38.9666 164.432 36.7333 165.498 34.2C166.565 31.6666 167.098 29 167.098 26.2C167.098 23.4 166.532 20.7 165.398 18.1C164.332 15.5 162.865 13.2333 160.998 11.3C159.132 9.36664 156.898 7.86664 154.298 6.79997C151.698 5.73331 148.998 5.19997 146.198 5.19997Z" fill="#181818"/>
</svg>
